<?xml version="1.0" encoding="UTF-8"?>
<svg xmlns="http://www.w3.org/2000/svg" xmlns:xlink="http://www.w3.org/1999/xlink" width="1920" height="1080" viewBox="0 0 1920 1080">
<defs>
<g>
<g id="glyph-0-0">
<path d="M 4.492188 -4.105469 C 4.71875 -3.894531 4.902344 -3.644531 5.035156 -3.347656 C 5.167969 -3.054688 5.234375 -2.71875 5.234375 -2.339844 C 5.234375 -2.003906 5.179688 -1.683594 5.066406 -1.378906 C 4.953125 -1.078125 4.789062 -0.816406 4.578125 -0.59375 C 4.351562 -0.367188 4.089844 -0.191406 3.789062 -0.0625 C 3.488281 0.0625 3.128906 0.125 2.710938 0.125 C 2.375 0.125 2.058594 0.0703125 1.757812 -0.0390625 C 1.457031 -0.148438 1.195312 -0.308594 0.964844 -0.519531 C 0.742188 -0.726562 0.5625 -0.976562 0.429688 -1.273438 C 0.296875 -1.566406 0.230469 -1.898438 0.230469 -2.257812 C 0.230469 -2.636719 0.296875 -2.980469 0.425781 -3.285156 C 0.554688 -3.59375 0.730469 -3.855469 0.957031 -4.074219 C 1.179688 -4.289062 1.445312 -4.457031 1.753906 -4.570312 C 2.058594 -4.6875 2.386719 -4.746094 2.734375 -4.746094 C 3.078125 -4.746094 3.402344 -4.691406 3.707031 -4.578125 C 4.007812 -4.464844 4.269531 -4.304688 4.492188 -4.105469 M 3.65625 -0.796875 C 3.753906 -0.996094 3.824219 -1.21875 3.867188 -1.46875 C 3.910156 -1.71875 3.933594 -2.003906 3.933594 -2.316406 C 3.933594 -2.585938 3.914062 -2.84375 3.875 -3.097656 C 3.835938 -3.351562 3.773438 -3.578125 3.679688 -3.773438 C 3.589844 -3.972656 3.464844 -4.132812 3.308594 -4.25 C 3.15625 -4.371094 2.964844 -4.429688 2.734375 -4.429688 C 2.339844 -4.429688 2.042969 -4.242188 1.839844 -3.871094 C 1.636719 -3.5 1.53125 -2.972656 1.53125 -2.292969 C 1.53125 -2.003906 1.554688 -1.730469 1.601562 -1.472656 C 1.644531 -1.21875 1.714844 -0.992188 1.808594 -0.800781 C 1.90625 -0.609375 2.03125 -0.457031 2.179688 -0.351562 C 2.332031 -0.242188 2.515625 -0.1875 2.734375 -0.1875 C 2.949219 -0.1875 3.132812 -0.242188 3.289062 -0.351562 C 3.441406 -0.460938 3.5625 -0.609375 3.65625 -0.796875 Z "/>
</g>
<g id="glyph-0-1">
<path d="M 1.695312 0.109375 C 1.484375 0.109375 1.28125 0.078125 1.078125 0.0195312 C 0.878906 -0.0429688 0.722656 -0.109375 0.613281 -0.179688 L 0.515625 0.0429688 L 0.261719 0.0429688 L 0.21875 -1.171875 L 0.457031 -1.171875 C 0.488281 -1.074219 0.542969 -0.964844 0.617188 -0.839844 C 0.695312 -0.71875 0.78125 -0.609375 0.878906 -0.511719 C 0.980469 -0.414062 1.097656 -0.332031 1.230469 -0.265625 C 1.359375 -0.195312 1.5 -0.164062 1.648438 -0.164062 C 1.847656 -0.164062 1.996094 -0.203125 2.089844 -0.277344 C 2.1875 -0.355469 2.234375 -0.472656 2.234375 -0.632812 C 2.234375 -0.722656 2.214844 -0.792969 2.171875 -0.847656 C 2.128906 -0.90625 2.066406 -0.953125 1.992188 -0.996094 C 1.90625 -1.039062 1.816406 -1.078125 1.714844 -1.105469 C 1.613281 -1.136719 1.488281 -1.175781 1.339844 -1.21875 C 1.195312 -1.261719 1.066406 -1.304688 0.960938 -1.347656 C 0.855469 -1.394531 0.746094 -1.464844 0.632812 -1.558594 C 0.539062 -1.644531 0.457031 -1.746094 0.398438 -1.863281 C 0.339844 -1.984375 0.3125 -2.125 0.3125 -2.292969 C 0.3125 -2.597656 0.441406 -2.84375 0.699219 -3.035156 C 0.957031 -3.222656 1.292969 -3.316406 1.707031 -3.316406 C 1.90625 -3.316406 2.089844 -3.296875 2.253906 -3.257812 C 2.421875 -3.214844 2.558594 -3.171875 2.671875 -3.125 L 2.742188 -3.316406 L 2.988281 -3.316406 L 3.039062 -2.207031 L 2.8125 -2.207031 C 2.738281 -2.433594 2.605469 -2.628906 2.421875 -2.792969 C 2.238281 -2.957031 2.039062 -3.035156 1.824219 -3.035156 C 1.660156 -3.035156 1.527344 -3.003906 1.433594 -2.933594 C 1.335938 -2.863281 1.289062 -2.765625 1.289062 -2.644531 C 1.289062 -2.476562 1.359375 -2.359375 1.5 -2.285156 C 1.636719 -2.210938 1.832031 -2.140625 2.085938 -2.078125 C 2.472656 -1.976562 2.757812 -1.839844 2.9375 -1.667969 C 3.117188 -1.496094 3.207031 -1.277344 3.207031 -1.007812 C 3.207031 -0.652344 3.066406 -0.378906 2.789062 -0.183594 C 2.507812 0.0117188 2.144531 0.109375 1.695312 0.109375 Z "/>
</g>
<g id="glyph-0-2">
</g>
<g id="glyph-0-3">
<path d="M 2.609375 -0.148438 C 2.472656 -0.0898438 2.324219 -0.0351562 2.164062 0.015625 C 2.007812 0.0625 1.8125 0.0859375 1.585938 0.0859375 C 1.246094 0.0859375 0.996094 0.00390625 0.832031 -0.160156 C 0.667969 -0.324219 0.585938 -0.558594 0.585938 -0.863281 L 0.585938 -2.859375 L 0 -2.859375 L 0 -3.214844 L 0.597656 -3.214844 L 0.597656 -4.203125 L 1.652344 -4.203125 L 1.652344 -3.214844 L 2.566406 -3.214844 L 2.566406 -2.859375 L 1.660156 -2.859375 L 1.660156 -1.078125 C 1.660156 -0.828125 1.695312 -0.644531 1.765625 -0.539062 C 1.835938 -0.433594 1.964844 -0.378906 2.148438 -0.378906 C 2.207031 -0.378906 2.289062 -0.386719 2.390625 -0.394531 C 2.496094 -0.402344 2.570312 -0.414062 2.609375 -0.421875 Z "/>
</g>
<g id="glyph-0-4">
<path d="M 3.6875 -0.777344 C 3.613281 -0.652344 3.519531 -0.539062 3.414062 -0.429688 C 3.304688 -0.320312 3.183594 -0.222656 3.046875 -0.148438 C 2.902344 -0.0625 2.753906 0 2.605469 0.0390625 C 2.457031 0.0820312 2.285156 0.105469 2.09375 0.105469 C 1.773438 0.105469 1.496094 0.0585938 1.261719 -0.03125 C 1.027344 -0.125 0.835938 -0.246094 0.683594 -0.398438 C 0.53125 -0.554688 0.417969 -0.734375 0.34375 -0.945312 C 0.269531 -1.15625 0.230469 -1.382812 0.230469 -1.628906 C 0.230469 -1.847656 0.273438 -2.0625 0.351562 -2.265625 C 0.433594 -2.46875 0.550781 -2.648438 0.699219 -2.804688 C 0.847656 -2.960938 1.035156 -3.085938 1.257812 -3.179688 C 1.484375 -3.277344 1.734375 -3.324219 2.011719 -3.324219 C 2.316406 -3.324219 2.566406 -3.285156 2.761719 -3.210938 C 2.957031 -3.140625 3.117188 -3.035156 3.246094 -2.90625 C 3.367188 -2.78125 3.460938 -2.636719 3.515625 -2.46875 C 3.570312 -2.300781 3.601562 -2.125 3.601562 -1.941406 L 3.601562 -1.726562 L 1.398438 -1.726562 C 1.398438 -1.285156 1.484375 -0.945312 1.65625 -0.710938 C 1.828125 -0.480469 2.101562 -0.363281 2.472656 -0.363281 C 2.679688 -0.363281 2.859375 -0.421875 3.023438 -0.53125 C 3.1875 -0.644531 3.324219 -0.785156 3.441406 -0.957031 L 3.6875 -0.777344 M 2.445312 -2.015625 C 2.445312 -2.144531 2.4375 -2.277344 2.425781 -2.414062 C 2.414062 -2.550781 2.390625 -2.664062 2.355469 -2.75 C 2.320312 -2.851562 2.269531 -2.929688 2.207031 -2.980469 C 2.140625 -3.035156 2.0625 -3.058594 1.960938 -3.058594 C 1.796875 -3.058594 1.664062 -2.976562 1.5625 -2.804688 C 1.460938 -2.636719 1.410156 -2.367188 1.398438 -2 Z "/>
</g>
<g id="glyph-0-5">
<path d="M 3.429688 -2.632812 C 3.429688 -2.46875 3.378906 -2.324219 3.277344 -2.199219 C 3.175781 -2.074219 3.042969 -2.011719 2.875 -2.011719 C 2.714844 -2.011719 2.582031 -2.050781 2.472656 -2.132812 C 2.363281 -2.210938 2.308594 -2.328125 2.308594 -2.484375 C 2.308594 -2.5625 2.3125 -2.621094 2.324219 -2.660156 C 2.335938 -2.703125 2.34375 -2.742188 2.351562 -2.78125 C 2.253906 -2.777344 2.148438 -2.742188 2.039062 -2.675781 C 1.925781 -2.613281 1.828125 -2.527344 1.746094 -2.417969 L 1.746094 -0.632812 C 1.746094 -0.554688 1.757812 -0.492188 1.78125 -0.441406 C 1.804688 -0.394531 1.84375 -0.355469 1.902344 -0.324219 C 1.949219 -0.300781 2.027344 -0.28125 2.132812 -0.265625 C 2.242188 -0.25 2.320312 -0.238281 2.367188 -0.238281 L 2.367188 0 L 0.1875 0 L 0.1875 -0.238281 C 0.242188 -0.242188 0.296875 -0.246094 0.351562 -0.253906 C 0.410156 -0.261719 0.457031 -0.273438 0.496094 -0.285156 C 0.5625 -0.308594 0.613281 -0.347656 0.636719 -0.398438 C 0.664062 -0.445312 0.675781 -0.511719 0.675781 -0.59375 L 0.675781 -2.488281 C 0.675781 -2.566406 0.660156 -2.636719 0.621094 -2.695312 C 0.585938 -2.757812 0.539062 -2.808594 0.488281 -2.84375 C 0.449219 -2.871094 0.398438 -2.894531 0.339844 -2.910156 C 0.28125 -2.925781 0.214844 -2.9375 0.144531 -2.945312 L 0.144531 -3.183594 L 1.695312 -3.269531 L 1.746094 -3.21875 L 1.746094 -2.746094 L 1.757812 -2.746094 C 1.90625 -2.921875 2.066406 -3.058594 2.234375 -3.15625 C 2.402344 -3.253906 2.578125 -3.304688 2.761719 -3.304688 C 2.960938 -3.304688 3.125 -3.242188 3.246094 -3.117188 C 3.371094 -2.992188 3.429688 -2.832031 3.429688 -2.632812 Z "/>
</g>
<g id="glyph-0-6">
<path d="M 6.652344 0 L 4.71875 0 L 4.71875 -0.238281 C 4.765625 -0.242188 4.816406 -0.25 4.867188 -0.253906 C 4.921875 -0.257812 4.964844 -0.269531 4.996094 -0.285156 C 5.046875 -0.308594 5.074219 -0.34375 5.089844 -0.394531 C 5.101562 -0.445312 5.105469 -0.511719 5.105469 -0.59375 L 5.105469 -2.113281 C 5.105469 -2.335938 5.066406 -2.503906 4.988281 -2.617188 C 4.910156 -2.726562 4.796875 -2.78125 4.648438 -2.78125 C 4.554688 -2.78125 4.46875 -2.769531 4.398438 -2.738281 C 4.324219 -2.710938 4.257812 -2.671875 4.195312 -2.628906 C 4.132812 -2.585938 4.085938 -2.539062 4.050781 -2.492188 C 4.015625 -2.449219 3.984375 -2.410156 3.960938 -2.375 L 3.960938 -0.628906 C 3.960938 -0.550781 3.972656 -0.488281 3.988281 -0.4375 C 4.007812 -0.390625 4.042969 -0.351562 4.089844 -0.320312 C 4.125 -0.304688 4.164062 -0.285156 4.207031 -0.269531 C 4.253906 -0.253906 4.300781 -0.242188 4.347656 -0.238281 L 4.347656 0 L 2.5 0 L 2.5 -0.238281 C 2.539062 -0.242188 2.589844 -0.246094 2.648438 -0.253906 C 2.707031 -0.261719 2.75 -0.269531 2.777344 -0.285156 C 2.824219 -0.308594 2.851562 -0.34375 2.867188 -0.390625 C 2.878906 -0.4375 2.886719 -0.503906 2.886719 -0.59375 L 2.886719 -2.113281 C 2.886719 -2.335938 2.847656 -2.503906 2.769531 -2.617188 C 2.6875 -2.726562 2.574219 -2.78125 2.425781 -2.78125 C 2.332031 -2.78125 2.25 -2.769531 2.175781 -2.738281 C 2.105469 -2.710938 2.039062 -2.671875 1.976562 -2.628906 C 1.914062 -2.585938 1.863281 -2.539062 1.828125 -2.492188 C 1.792969 -2.449219 1.765625 -2.410156 1.742188 -2.375 L 1.742188 -0.628906 C 1.742188 -0.550781 1.75 -0.488281 1.769531 -0.4375 C 1.789062 -0.390625 1.824219 -0.351562 1.875 -0.320312 C 1.910156 -0.304688 1.949219 -0.285156 1.992188 -0.269531 C 2.039062 -0.253906 2.085938 -0.242188 2.136719 -0.238281 L 2.136719 0 L 0.183594 0 L 0.183594 -0.238281 C 0.242188 -0.242188 0.296875 -0.246094 0.351562 -0.253906 C 0.40625 -0.261719 0.453125 -0.269531 0.492188 -0.285156 C 0.5625 -0.3125 0.609375 -0.351562 0.632812 -0.398438 C 0.660156 -0.449219 0.671875 -0.511719 0.671875 -0.59375 L 0.671875 -2.488281 C 0.671875 -2.554688 0.65625 -2.625 0.617188 -2.691406 C 0.582031 -2.757812 0.539062 -2.808594 0.484375 -2.84375 C 0.445312 -2.871094 0.398438 -2.894531 0.335938 -2.910156 C 0.277344 -2.925781 0.210938 -2.9375 0.140625 -2.945312 L 0.140625 -3.183594 L 1.691406 -3.269531 L 1.742188 -3.21875 L 1.742188 -2.761719 L 1.753906 -2.761719 C 1.816406 -2.816406 1.886719 -2.878906 1.972656 -2.953125 C 2.054688 -3.027344 2.132812 -3.089844 2.207031 -3.132812 C 2.289062 -3.1875 2.390625 -3.230469 2.515625 -3.265625 C 2.640625 -3.300781 2.78125 -3.316406 2.929688 -3.316406 C 3.175781 -3.316406 3.382812 -3.261719 3.550781 -3.15625 C 3.714844 -3.046875 3.832031 -2.90625 3.902344 -2.726562 L 3.933594 -2.726562 C 3.996094 -2.785156 4.070312 -2.855469 4.164062 -2.933594 C 4.253906 -3.015625 4.339844 -3.078125 4.414062 -3.125 C 4.5 -3.179688 4.605469 -3.226562 4.738281 -3.261719 C 4.871094 -3.296875 5.007812 -3.316406 5.160156 -3.316406 C 5.488281 -3.316406 5.738281 -3.21875 5.917969 -3.027344 C 6.09375 -2.835938 6.179688 -2.558594 6.179688 -2.203125 L 6.179688 -0.621094 C 6.179688 -0.542969 6.195312 -0.476562 6.21875 -0.429688 C 6.242188 -0.378906 6.285156 -0.339844 6.347656 -0.316406 C 6.382812 -0.300781 6.425781 -0.285156 6.476562 -0.269531 C 6.527344 -0.253906 6.585938 -0.242188 6.652344 -0.238281 Z "/>
</g>
<g id="glyph-0-7">
<path d="M 3.511719 -2.84375 C 3.671875 -2.695312 3.796875 -2.515625 3.878906 -2.308594 C 3.964844 -2.101562 4.007812 -1.875 4.007812 -1.628906 C 4.007812 -1.390625 3.964844 -1.164062 3.882812 -0.949219 C 3.796875 -0.734375 3.675781 -0.550781 3.515625 -0.398438 C 3.34375 -0.238281 3.140625 -0.113281 2.902344 -0.0273438 C 2.664062 0.0625 2.390625 0.105469 2.085938 0.105469 C 1.820312 0.105469 1.578125 0.0664062 1.355469 -0.0078125 C 1.132812 -0.0859375 0.9375 -0.199219 0.765625 -0.351562 C 0.601562 -0.496094 0.46875 -0.675781 0.375 -0.890625 C 0.277344 -1.105469 0.230469 -1.34375 0.230469 -1.609375 C 0.230469 -1.867188 0.273438 -2.101562 0.355469 -2.304688 C 0.441406 -2.507812 0.566406 -2.6875 0.730469 -2.84375 C 0.894531 -2.996094 1.089844 -3.113281 1.328125 -3.199219 C 1.5625 -3.28125 1.824219 -3.324219 2.117188 -3.324219 C 2.417969 -3.324219 2.6875 -3.28125 2.917969 -3.199219 C 3.148438 -3.113281 3.347656 -2.996094 3.511719 -2.84375 M 2.679688 -0.589844 C 2.726562 -0.710938 2.761719 -0.859375 2.785156 -1.03125 C 2.808594 -1.207031 2.820312 -1.40625 2.820312 -1.636719 C 2.820312 -1.789062 2.808594 -1.960938 2.785156 -2.15625 C 2.765625 -2.351562 2.730469 -2.507812 2.6875 -2.621094 C 2.636719 -2.757812 2.566406 -2.863281 2.472656 -2.941406 C 2.378906 -3.019531 2.261719 -3.058594 2.121094 -3.058594 C 1.96875 -3.058594 1.84375 -3.015625 1.753906 -2.933594 C 1.660156 -2.847656 1.589844 -2.738281 1.539062 -2.605469 C 1.492188 -2.480469 1.460938 -2.335938 1.445312 -2.167969 C 1.429688 -2.003906 1.417969 -1.832031 1.417969 -1.648438 C 1.417969 -1.414062 1.425781 -1.21875 1.441406 -1.0625 C 1.457031 -0.90625 1.492188 -0.75 1.550781 -0.59375 C 1.601562 -0.460938 1.675781 -0.355469 1.765625 -0.277344 C 1.859375 -0.199219 1.980469 -0.160156 2.121094 -0.160156 C 2.253906 -0.160156 2.363281 -0.195312 2.457031 -0.269531 C 2.550781 -0.339844 2.625 -0.449219 2.679688 -0.589844 Z "/>
</g>
<g id="glyph-0-8">
<path d="M 4.148438 -1.601562 L 2.605469 -1.601562 L 2.605469 -0.0625 L 2.074219 -0.0625 L 2.074219 -1.601562 L 0.535156 -1.601562 L 0.535156 -2.136719 L 2.074219 -2.136719 L 2.074219 -3.675781 L 2.605469 -3.675781 L 2.605469 -2.136719 L 4.148438 -2.136719 Z "/>
</g>
<g id="glyph-0-9">
<path d="M 3.898438 0 L 1.863281 0 L 1.863281 -0.238281 C 1.972656 -0.242188 2.0625 -0.253906 2.132812 -0.265625 C 2.203125 -0.277344 2.242188 -0.300781 2.242188 -0.339844 C 2.242188 -0.355469 2.230469 -0.382812 2.214844 -0.417969 C 2.195312 -0.457031 2.171875 -0.5 2.144531 -0.542969 C 2.101562 -0.609375 2.03125 -0.71875 1.929688 -0.863281 C 1.828125 -1.007812 1.734375 -1.144531 1.644531 -1.269531 C 1.519531 -1.121094 1.414062 -0.996094 1.328125 -0.894531 C 1.242188 -0.789062 1.152344 -0.675781 1.0625 -0.558594 C 1.027344 -0.519531 1.003906 -0.480469 0.992188 -0.449219 C 0.980469 -0.417969 0.972656 -0.398438 0.972656 -0.390625 C 0.972656 -0.339844 1.007812 -0.304688 1.078125 -0.277344 C 1.148438 -0.25 1.234375 -0.238281 1.332031 -0.238281 L 1.332031 0 L 0.0078125 0 L 0.0078125 -0.238281 C 0.1875 -0.273438 0.328125 -0.332031 0.433594 -0.414062 C 0.539062 -0.492188 0.609375 -0.554688 0.644531 -0.597656 C 0.804688 -0.769531 0.9375 -0.910156 1.046875 -1.023438 C 1.15625 -1.136719 1.304688 -1.292969 1.488281 -1.496094 C 1.367188 -1.664062 1.214844 -1.875 1.039062 -2.121094 C 0.867188 -2.367188 0.71875 -2.570312 0.601562 -2.726562 C 0.542969 -2.804688 0.472656 -2.867188 0.386719 -2.910156 C 0.300781 -2.949219 0.191406 -2.976562 0.0546875 -2.992188 L 0.0546875 -3.230469 L 2.042969 -3.230469 L 2.042969 -2.992188 C 1.972656 -2.992188 1.902344 -2.988281 1.832031 -2.976562 C 1.765625 -2.96875 1.730469 -2.953125 1.730469 -2.933594 C 1.730469 -2.914062 1.734375 -2.894531 1.746094 -2.867188 C 1.757812 -2.839844 1.769531 -2.816406 1.789062 -2.785156 C 1.828125 -2.71875 1.894531 -2.613281 1.984375 -2.480469 C 2.070312 -2.347656 2.167969 -2.207031 2.269531 -2.058594 C 2.367188 -2.175781 2.449219 -2.273438 2.515625 -2.351562 C 2.582031 -2.425781 2.664062 -2.535156 2.769531 -2.671875 C 2.808594 -2.722656 2.832031 -2.761719 2.84375 -2.789062 C 2.851562 -2.816406 2.859375 -2.832031 2.859375 -2.839844 C 2.859375 -2.875 2.835938 -2.910156 2.789062 -2.9375 C 2.742188 -2.96875 2.648438 -2.984375 2.511719 -2.992188 L 2.511719 -3.230469 L 3.808594 -3.230469 L 3.808594 -2.992188 C 3.703125 -2.972656 3.597656 -2.9375 3.5 -2.882812 C 3.398438 -2.828125 3.296875 -2.746094 3.1875 -2.628906 C 3.019531 -2.453125 2.894531 -2.324219 2.816406 -2.246094 C 2.742188 -2.164062 2.613281 -2.027344 2.4375 -1.839844 C 2.535156 -1.699219 2.679688 -1.492188 2.867188 -1.222656 C 3.058594 -0.953125 3.21875 -0.726562 3.355469 -0.542969 C 3.414062 -0.460938 3.480469 -0.394531 3.554688 -0.339844 C 3.625 -0.289062 3.742188 -0.253906 3.898438 -0.238281 Z "/>
</g>
<g id="glyph-0-10">
<path d="M 3.257812 -1.59375 L 0.578125 -1.59375 L 0.578125 -2.054688 C 0.660156 -2.144531 0.804688 -2.261719 1.007812 -2.410156 C 1.207031 -2.558594 1.375 -2.683594 1.511719 -2.785156 C 1.601562 -2.847656 1.691406 -2.921875 1.785156 -3.015625 C 1.882812 -3.105469 1.953125 -3.183594 1.996094 -3.257812 C 2.054688 -3.351562 2.101562 -3.441406 2.132812 -3.523438 C 2.164062 -3.605469 2.179688 -3.71875 2.179688 -3.863281 C 2.179688 -4.054688 2.128906 -4.210938 2.03125 -4.324219 C 1.9375 -4.4375 1.804688 -4.492188 1.640625 -4.492188 C 1.589844 -4.492188 1.542969 -4.488281 1.492188 -4.480469 C 1.445312 -4.472656 1.398438 -4.460938 1.351562 -4.445312 C 1.371094 -4.382812 1.394531 -4.3125 1.421875 -4.234375 C 1.445312 -4.15625 1.457031 -4.070312 1.457031 -3.972656 C 1.457031 -3.859375 1.417969 -3.769531 1.332031 -3.699219 C 1.25 -3.632812 1.140625 -3.597656 1.011719 -3.597656 C 0.890625 -3.597656 0.792969 -3.640625 0.71875 -3.722656 C 0.644531 -3.804688 0.605469 -3.90625 0.605469 -4.027344 C 0.605469 -4.222656 0.722656 -4.394531 0.960938 -4.535156 C 1.195312 -4.675781 1.480469 -4.746094 1.8125 -4.746094 C 2.210938 -4.746094 2.527344 -4.667969 2.761719 -4.507812 C 2.996094 -4.347656 3.113281 -4.125 3.113281 -3.84375 C 3.113281 -3.65625 3.078125 -3.496094 3.007812 -3.367188 C 2.9375 -3.238281 2.847656 -3.128906 2.742188 -3.042969 C 2.632812 -2.953125 2.515625 -2.878906 2.382812 -2.816406 C 2.253906 -2.75 2.136719 -2.699219 2.035156 -2.65625 C 1.886719 -2.59375 1.746094 -2.535156 1.617188 -2.480469 C 1.488281 -2.425781 1.34375 -2.363281 1.183594 -2.296875 L 1.183594 -2.257812 L 3.257812 -2.257812 Z "/>
</g>
<g id="glyph-0-11">
<path d="M 2.25 -1.414062 L 0.277344 -1.414062 L 0.277344 -2.136719 L 2.25 -2.136719 Z "/>
</g>
<g id="glyph-0-12">
<path d="M 2.046875 0.105469 C 1.746094 0.105469 1.480469 0.0585938 1.25 -0.0273438 C 1.015625 -0.117188 0.828125 -0.234375 0.675781 -0.386719 C 0.527344 -0.542969 0.414062 -0.722656 0.339844 -0.933594 C 0.269531 -1.144531 0.230469 -1.375 0.230469 -1.621094 C 0.230469 -1.847656 0.277344 -2.0625 0.367188 -2.265625 C 0.457031 -2.46875 0.578125 -2.648438 0.730469 -2.800781 C 0.890625 -2.960938 1.085938 -3.085938 1.324219 -3.183594 C 1.558594 -3.277344 1.820312 -3.324219 2.101562 -3.324219 C 2.503906 -3.324219 2.816406 -3.25 3.050781 -3.097656 C 3.28125 -2.945312 3.398438 -2.742188 3.398438 -2.488281 C 3.398438 -2.332031 3.355469 -2.203125 3.273438 -2.109375 C 3.191406 -2.015625 3.050781 -1.964844 2.847656 -1.964844 C 2.683594 -1.964844 2.550781 -2.003906 2.441406 -2.082031 C 2.332031 -2.160156 2.273438 -2.261719 2.273438 -2.390625 C 2.273438 -2.496094 2.292969 -2.601562 2.328125 -2.703125 C 2.363281 -2.808594 2.382812 -2.886719 2.390625 -2.941406 C 2.367188 -2.980469 2.335938 -3.011719 2.296875 -3.03125 C 2.261719 -3.054688 2.203125 -3.0625 2.125 -3.0625 C 2.027344 -3.0625 1.9375 -3.039062 1.859375 -2.996094 C 1.777344 -2.949219 1.703125 -2.867188 1.632812 -2.753906 C 1.566406 -2.644531 1.511719 -2.5 1.472656 -2.316406 C 1.433594 -2.136719 1.414062 -1.917969 1.414062 -1.660156 C 1.414062 -1.273438 1.503906 -0.960938 1.683594 -0.726562 C 1.867188 -0.488281 2.082031 -0.371094 2.335938 -0.371094 C 2.574219 -0.371094 2.765625 -0.425781 2.910156 -0.53125 C 3.050781 -0.640625 3.175781 -0.792969 3.289062 -0.988281 L 3.53125 -0.820312 C 3.464844 -0.6875 3.382812 -0.566406 3.289062 -0.457031 C 3.199219 -0.347656 3.085938 -0.25 2.957031 -0.164062 C 2.820312 -0.078125 2.679688 -0.0078125 2.539062 0.0351562 C 2.398438 0.0820312 2.234375 0.105469 2.046875 0.105469 Z "/>
</g>
<g id="glyph-0-13">
<path d="M 3.910156 -0.0703125 C 3.8125 -0.0273438 3.703125 0.0117188 3.570312 0.046875 C 3.441406 0.0820312 3.304688 0.0976562 3.160156 0.0976562 C 2.894531 0.0976562 2.695312 0.0585938 2.570312 -0.0195312 C 2.445312 -0.101562 2.359375 -0.214844 2.3125 -0.359375 L 2.296875 -0.359375 C 2.222656 -0.289062 2.148438 -0.222656 2.082031 -0.171875 C 2.011719 -0.121094 1.941406 -0.0742188 1.859375 -0.0390625 C 1.757812 0.0078125 1.660156 0.0429688 1.566406 0.0703125 C 1.472656 0.09375 1.339844 0.105469 1.171875 0.105469 C 0.917969 0.105469 0.703125 0.03125 0.523438 -0.121094 C 0.347656 -0.269531 0.257812 -0.464844 0.257812 -0.710938 C 0.257812 -0.851562 0.277344 -0.972656 0.316406 -1.070312 C 0.355469 -1.171875 0.410156 -1.257812 0.480469 -1.332031 C 0.546875 -1.402344 0.621094 -1.460938 0.707031 -1.507812 C 0.792969 -1.550781 0.886719 -1.59375 0.992188 -1.632812 C 1.1875 -1.707031 1.421875 -1.78125 1.695312 -1.855469 C 1.96875 -1.933594 2.167969 -2.003906 2.296875 -2.0625 L 2.296875 -2.375 C 2.296875 -2.429688 2.289062 -2.503906 2.28125 -2.589844 C 2.273438 -2.679688 2.253906 -2.753906 2.226562 -2.816406 C 2.195312 -2.886719 2.148438 -2.945312 2.082031 -2.992188 C 2.019531 -3.039062 1.933594 -3.0625 1.824219 -3.0625 C 1.730469 -3.0625 1.652344 -3.050781 1.585938 -3.023438 C 1.523438 -2.996094 1.472656 -2.96875 1.433594 -2.9375 C 1.4375 -2.894531 1.457031 -2.828125 1.488281 -2.742188 C 1.519531 -2.652344 1.53125 -2.566406 1.53125 -2.484375 C 1.53125 -2.445312 1.523438 -2.402344 1.503906 -2.34375 C 1.484375 -2.289062 1.457031 -2.246094 1.417969 -2.214844 C 1.367188 -2.171875 1.3125 -2.136719 1.25 -2.113281 C 1.1875 -2.089844 1.09375 -2.078125 0.964844 -2.078125 C 0.78125 -2.078125 0.644531 -2.121094 0.550781 -2.207031 C 0.457031 -2.296875 0.410156 -2.410156 0.410156 -2.550781 C 0.410156 -2.671875 0.457031 -2.78125 0.554688 -2.878906 C 0.652344 -2.976562 0.769531 -3.054688 0.90625 -3.117188 C 1.046875 -3.183594 1.203125 -3.234375 1.378906 -3.269531 C 1.558594 -3.304688 1.722656 -3.324219 1.875 -3.324219 C 2.085938 -3.324219 2.277344 -3.3125 2.453125 -3.285156 C 2.628906 -3.261719 2.789062 -3.210938 2.929688 -3.132812 C 3.0625 -3.054688 3.171875 -2.945312 3.25 -2.800781 C 3.328125 -2.65625 3.367188 -2.46875 3.367188 -2.234375 C 3.367188 -1.992188 3.363281 -1.699219 3.355469 -1.363281 C 3.34375 -1.027344 3.339844 -0.804688 3.339844 -0.699219 C 3.339844 -0.601562 3.355469 -0.523438 3.382812 -0.46875 C 3.414062 -0.414062 3.457031 -0.371094 3.519531 -0.339844 C 3.554688 -0.324219 3.613281 -0.3125 3.691406 -0.3125 C 3.773438 -0.308594 3.84375 -0.304688 3.910156 -0.304688 L 3.910156 -0.0703125 M 2.296875 -1.765625 C 2.171875 -1.722656 2.050781 -1.675781 1.933594 -1.621094 C 1.8125 -1.570312 1.714844 -1.511719 1.636719 -1.453125 C 1.558594 -1.394531 1.496094 -1.316406 1.449219 -1.222656 C 1.402344 -1.125 1.378906 -1.015625 1.378906 -0.886719 C 1.378906 -0.71875 1.417969 -0.59375 1.496094 -0.519531 C 1.574219 -0.441406 1.667969 -0.402344 1.78125 -0.402344 C 1.902344 -0.402344 2 -0.429688 2.078125 -0.476562 C 2.15625 -0.527344 2.222656 -0.585938 2.28125 -0.65625 Z "/>
</g>
<g id="glyph-0-14">
<path d="M 4.484375 0 L 2.527344 0 L 2.527344 -0.238281 C 2.570312 -0.242188 2.621094 -0.246094 2.679688 -0.253906 C 2.738281 -0.261719 2.78125 -0.269531 2.8125 -0.285156 C 2.859375 -0.308594 2.890625 -0.34375 2.910156 -0.390625 C 2.929688 -0.4375 2.9375 -0.503906 2.9375 -0.59375 L 2.9375 -2.117188 C 2.9375 -2.335938 2.898438 -2.503906 2.816406 -2.617188 C 2.734375 -2.726562 2.613281 -2.78125 2.457031 -2.78125 C 2.371094 -2.78125 2.289062 -2.769531 2.214844 -2.742188 C 2.136719 -2.71875 2.066406 -2.679688 1.992188 -2.628906 C 1.929688 -2.585938 1.878906 -2.542969 1.839844 -2.496094 C 1.804688 -2.453125 1.769531 -2.410156 1.746094 -2.375 L 1.746094 -0.628906 C 1.746094 -0.550781 1.753906 -0.488281 1.777344 -0.4375 C 1.800781 -0.386719 1.835938 -0.347656 1.882812 -0.320312 C 1.917969 -0.304688 1.960938 -0.285156 2.015625 -0.269531 C 2.066406 -0.253906 2.117188 -0.242188 2.167969 -0.238281 L 2.167969 0 L 0.1875 0 L 0.1875 -0.238281 C 0.242188 -0.242188 0.296875 -0.246094 0.351562 -0.253906 C 0.410156 -0.261719 0.457031 -0.273438 0.496094 -0.285156 C 0.5625 -0.308594 0.613281 -0.347656 0.636719 -0.398438 C 0.664062 -0.445312 0.675781 -0.511719 0.675781 -0.59375 L 0.675781 -2.488281 C 0.675781 -2.554688 0.660156 -2.621094 0.625 -2.683594 C 0.589844 -2.75 0.542969 -2.804688 0.488281 -2.84375 C 0.449219 -2.871094 0.398438 -2.894531 0.339844 -2.910156 C 0.28125 -2.925781 0.214844 -2.9375 0.144531 -2.945312 L 0.144531 -3.183594 L 1.695312 -3.269531 L 1.746094 -3.21875 L 1.746094 -2.746094 L 1.757812 -2.746094 C 1.820312 -2.800781 1.890625 -2.867188 1.980469 -2.941406 C 2.066406 -3.019531 2.144531 -3.082031 2.21875 -3.128906 C 2.300781 -3.179688 2.40625 -3.226562 2.535156 -3.261719 C 2.664062 -3.296875 2.804688 -3.316406 2.953125 -3.316406 C 3.304688 -3.316406 3.570312 -3.214844 3.75 -3.015625 C 3.925781 -2.816406 4.015625 -2.546875 4.015625 -2.21875 L 4.015625 -0.621094 C 4.015625 -0.542969 4.027344 -0.476562 4.050781 -0.429688 C 4.074219 -0.382812 4.117188 -0.34375 4.183594 -0.316406 C 4.21875 -0.300781 4.261719 -0.285156 4.3125 -0.269531 C 4.363281 -0.253906 4.421875 -0.242188 4.484375 -0.238281 Z "/>
</g>
<g id="glyph-0-15">
<path d="M 2.179688 0 L 0.125 0 L 0.125 -0.238281 C 0.183594 -0.242188 0.238281 -0.246094 0.292969 -0.253906 C 0.347656 -0.261719 0.394531 -0.269531 0.433594 -0.285156 C 0.503906 -0.3125 0.550781 -0.351562 0.578125 -0.398438 C 0.601562 -0.449219 0.617188 -0.511719 0.617188 -0.59375 L 0.617188 -4.199219 C 0.617188 -4.28125 0.597656 -4.359375 0.566406 -4.429688 C 0.53125 -4.5 0.484375 -4.554688 0.429688 -4.589844 C 0.386719 -4.617188 0.320312 -4.644531 0.234375 -4.671875 C 0.144531 -4.695312 0.0664062 -4.710938 0 -4.71875 L 0 -4.953125 L 1.640625 -5.039062 L 1.6875 -4.988281 L 1.6875 -0.632812 C 1.6875 -0.554688 1.703125 -0.488281 1.730469 -0.4375 C 1.761719 -0.390625 1.804688 -0.351562 1.871094 -0.320312 C 1.914062 -0.304688 1.960938 -0.285156 2.007812 -0.269531 C 2.054688 -0.253906 2.113281 -0.242188 2.179688 -0.238281 Z "/>
</g>
<g id="glyph-0-16">
<path d="M 1.886719 -4.105469 C 1.886719 -4.015625 1.871094 -3.898438 1.839844 -3.75 C 1.808594 -3.605469 1.769531 -3.433594 1.722656 -3.234375 C 1.675781 -3.050781 1.625 -2.816406 1.566406 -2.539062 C 1.507812 -2.257812 1.445312 -1.914062 1.378906 -1.503906 L 1.128906 -1.503906 C 1.0625 -1.917969 1.003906 -2.261719 0.945312 -2.539062 C 0.886719 -2.816406 0.832031 -3.046875 0.789062 -3.230469 C 0.746094 -3.402344 0.707031 -3.570312 0.671875 -3.734375 C 0.640625 -3.898438 0.621094 -4.023438 0.621094 -4.105469 C 0.621094 -4.273438 0.683594 -4.414062 0.808594 -4.53125 C 0.929688 -4.652344 1.078125 -4.710938 1.253906 -4.710938 C 1.425781 -4.710938 1.574219 -4.652344 1.699219 -4.53125 C 1.824219 -4.414062 1.886719 -4.273438 1.886719 -4.105469 M 1.882812 -0.507812 C 1.882812 -0.34375 1.820312 -0.203125 1.695312 -0.0820312 C 1.570312 0.0351562 1.421875 0.09375 1.257812 0.09375 C 1.085938 0.09375 0.941406 0.0351562 0.816406 -0.0820312 C 0.691406 -0.203125 0.628906 -0.34375 0.628906 -0.507812 C 0.628906 -0.671875 0.691406 -0.816406 0.816406 -0.9375 C 0.941406 -1.054688 1.085938 -1.117188 1.257812 -1.117188 C 1.421875 -1.117188 1.570312 -1.054688 1.695312 -0.9375 C 1.820312 -0.816406 1.882812 -0.671875 1.882812 -0.507812 Z "/>
</g>
</g>
</defs>
<g fill="rgb(91.764706%, 16.862745%, 12.156863%)" fill-opacity="1">
<use xlink:href="#glyph-0-0" x="30" y="26.112305"/>
<use xlink:href="#glyph-0-1" x="35" y="26.112305"/>
<use xlink:href="#glyph-0-2" x="38" y="26.112305"/>
<use xlink:href="#glyph-0-3" x="40" y="26.112305"/>
<use xlink:href="#glyph-0-4" x="43" y="26.112305"/>
<use xlink:href="#glyph-0-5" x="47" y="26.112305"/>
<use xlink:href="#glyph-0-6" x="50" y="26.112305"/>
<use xlink:href="#glyph-0-7" x="57" y="26.112305"/>
<use xlink:href="#glyph-0-1" x="61" y="26.112305"/>
<use xlink:href="#glyph-0-2" x="64" y="26.112305"/>
<use xlink:href="#glyph-0-8" x="66" y="26.112305"/>
<use xlink:href="#glyph-0-9" x="71" y="26.112305"/>
<use xlink:href="#glyph-0-10" x="75" y="26.112305"/>
<use xlink:href="#glyph-0-2" x="79" y="26.112305"/>
<use xlink:href="#glyph-0-4" x="81" y="26.112305"/>
<use xlink:href="#glyph-0-2" x="85" y="26.112305"/>
<use xlink:href="#glyph-0-11" x="87" y="26.112305"/>
<use xlink:href="#glyph-0-9" x="90" y="26.112305"/>
<use xlink:href="#glyph-0-10" x="94" y="26.112305"/>
<use xlink:href="#glyph-0-2" x="98" y="26.112305"/>
<use xlink:href="#glyph-0-1" x="100" y="26.112305"/>
<use xlink:href="#glyph-0-4" x="103" y="26.112305"/>
<use xlink:href="#glyph-0-2" x="107" y="26.112305"/>
<use xlink:href="#glyph-0-12" x="109" y="26.112305"/>
<use xlink:href="#glyph-0-13" x="113" y="26.112305"/>
<use xlink:href="#glyph-0-14" x="117" y="26.112305"/>
<use xlink:href="#glyph-0-12" x="122" y="26.112305"/>
<use xlink:href="#glyph-0-4" x="126" y="26.112305"/>
<use xlink:href="#glyph-0-15" x="130" y="26.112305"/>
<use xlink:href="#glyph-0-13" x="132" y="26.112305"/>
<use xlink:href="#glyph-0-6" x="136" y="26.112305"/>
<use xlink:href="#glyph-0-16" x="143" y="26.112305"/>
</g>
</svg>
