<?xml version="1.0" encoding="UTF-8"?>
<svg xmlns="http://www.w3.org/2000/svg" xmlns:xlink="http://www.w3.org/1999/xlink" width="1920" height="1080" viewBox="0 0 1920 1080">
<defs>
<g>
<g id="glyph-0-0">
<path d="M 3.089844 -1.003906 C 3.210938 -0.921875 3.308594 -0.816406 3.390625 -0.683594 C 3.46875 -0.550781 3.507812 -0.390625 3.507812 -0.195312 C 3.507812 0.175781 3.332031 0.484375 2.976562 0.730469 C 2.617188 0.976562 2.160156 1.101562 1.597656 1.101562 C 1.199219 1.101562 0.855469 1.015625 0.574219 0.84375 C 0.296875 0.671875 0.15625 0.460938 0.15625 0.207031 C 0.15625 0.0664062 0.199219 -0.0507812 0.289062 -0.148438 C 0.382812 -0.246094 0.503906 -0.296875 0.652344 -0.296875 C 0.8125 -0.296875 0.9375 -0.253906 1.039062 -0.167969 C 1.140625 -0.0859375 1.191406 0.0273438 1.191406 0.171875 C 1.191406 0.265625 1.171875 0.375 1.136719 0.496094 C 1.101562 0.617188 1.074219 0.707031 1.054688 0.765625 C 1.101562 0.785156 1.15625 0.800781 1.226562 0.808594 C 1.296875 0.820312 1.378906 0.828125 1.472656 0.828125 C 1.585938 0.828125 1.699219 0.808594 1.808594 0.769531 C 1.921875 0.730469 2.015625 0.671875 2.097656 0.585938 C 2.183594 0.496094 2.25 0.390625 2.296875 0.269531 C 2.34375 0.148438 2.367188 -0.0117188 2.367188 -0.207031 C 2.367188 -0.320312 2.355469 -0.429688 2.335938 -0.53125 C 2.3125 -0.632812 2.277344 -0.722656 2.21875 -0.796875 C 2.164062 -0.871094 2.089844 -0.929688 1.992188 -0.972656 C 1.894531 -1.015625 1.773438 -1.039062 1.625 -1.039062 L 1.246094 -1.039062 L 1.246094 -1.398438 L 1.511719 -1.398438 C 1.761719 -1.398438 1.945312 -1.472656 2.058594 -1.621094 C 2.167969 -1.769531 2.226562 -1.996094 2.226562 -2.300781 C 2.226562 -2.546875 2.171875 -2.730469 2.0625 -2.851562 C 1.953125 -2.972656 1.796875 -3.035156 1.59375 -3.035156 C 1.515625 -3.035156 1.449219 -3.03125 1.390625 -3.019531 C 1.332031 -3.011719 1.273438 -2.996094 1.214844 -2.972656 C 1.234375 -2.902344 1.261719 -2.808594 1.296875 -2.6875 C 1.328125 -2.566406 1.34375 -2.464844 1.34375 -2.378906 C 1.34375 -2.238281 1.292969 -2.125 1.195312 -2.039062 C 1.097656 -1.957031 0.972656 -1.914062 0.816406 -1.914062 C 0.664062 -1.914062 0.546875 -1.964844 0.457031 -2.0625 C 0.371094 -2.160156 0.324219 -2.277344 0.324219 -2.417969 C 0.324219 -2.664062 0.46875 -2.875 0.753906 -3.046875 C 1.039062 -3.222656 1.398438 -3.308594 1.828125 -3.308594 C 2.128906 -3.308594 2.375 -3.273438 2.570312 -3.203125 C 2.765625 -3.136719 2.921875 -3.050781 3.035156 -2.949219 C 3.144531 -2.847656 3.222656 -2.742188 3.265625 -2.628906 C 3.308594 -2.511719 3.328125 -2.410156 3.328125 -2.316406 C 3.328125 -2.230469 3.3125 -2.132812 3.273438 -2.019531 C 3.238281 -1.910156 3.183594 -1.8125 3.113281 -1.730469 C 3.023438 -1.628906 2.910156 -1.542969 2.769531 -1.46875 C 2.628906 -1.394531 2.460938 -1.335938 2.273438 -1.296875 L 2.273438 -1.25 C 2.402344 -1.242188 2.542969 -1.21875 2.691406 -1.179688 C 2.84375 -1.140625 2.976562 -1.082031 3.089844 -1.003906 Z "/>
</g>
<g id="glyph-0-1">
<path d="M 2.875 -1.414062 C 3.027344 -1.316406 3.152344 -1.179688 3.253906 -1.011719 C 3.355469 -0.84375 3.40625 -0.636719 3.40625 -0.386719 C 3.40625 0.0507812 3.234375 0.40625 2.894531 0.683594 C 2.554688 0.960938 2.125 1.101562 1.597656 1.101562 C 1.1875 1.101562 0.847656 1.011719 0.574219 0.839844 C 0.304688 0.664062 0.167969 0.457031 0.167969 0.21875 C 0.167969 0.078125 0.210938 -0.0429688 0.304688 -0.140625 C 0.394531 -0.238281 0.515625 -0.285156 0.664062 -0.285156 C 0.824219 -0.285156 0.953125 -0.246094 1.050781 -0.160156 C 1.152344 -0.0742188 1.203125 0.0390625 1.203125 0.179688 C 1.203125 0.277344 1.183594 0.386719 1.152344 0.503906 C 1.117188 0.621094 1.089844 0.710938 1.066406 0.773438 C 1.117188 0.789062 1.171875 0.804688 1.234375 0.8125 C 1.300781 0.820312 1.359375 0.828125 1.414062 0.828125 C 1.527344 0.828125 1.640625 0.800781 1.75 0.75 C 1.859375 0.699219 1.953125 0.625 2.027344 0.527344 C 2.117188 0.417969 2.1875 0.285156 2.230469 0.132812 C 2.277344 -0.0195312 2.300781 -0.191406 2.300781 -0.386719 C 2.300781 -0.664062 2.226562 -0.894531 2.074219 -1.074219 C 1.925781 -1.253906 1.730469 -1.34375 1.492188 -1.34375 C 1.304688 -1.34375 1.148438 -1.308594 1.023438 -1.234375 C 0.898438 -1.160156 0.785156 -1.0625 0.6875 -0.941406 L 0.457031 -1.015625 L 0.746094 -3.214844 L 3.265625 -3.214844 L 3.265625 -2.390625 L 0.960938 -2.390625 L 0.839844 -1.40625 C 0.945312 -1.472656 1.085938 -1.539062 1.253906 -1.597656 C 1.421875 -1.660156 1.621094 -1.691406 1.851562 -1.691406 C 2.027344 -1.691406 2.203125 -1.671875 2.375 -1.632812 C 2.546875 -1.59375 2.714844 -1.523438 2.875 -1.414062 Z "/>
</g>
<g id="glyph-0-2">
</g>
<g id="glyph-0-3">
<path d="M 3.746094 -2.085938 L 0.550781 -2.085938 L 0.550781 -2.574219 L 3.746094 -2.574219 L 3.746094 -2.085938 M 3.746094 -0.851562 L 0.550781 -0.851562 L 0.550781 -1.339844 L 3.746094 -1.339844 Z "/>
</g>
<g id="glyph-0-4">
<path d="M 3.632812 -0.574219 L 3.289062 -0.230469 L 2.148438 -1.378906 L 1.003906 -0.230469 L 0.660156 -0.574219 L 1.808594 -1.71875 L 0.660156 -2.855469 L 1.003906 -3.203125 L 2.148438 -2.054688 L 3.289062 -3.203125 L 3.632812 -2.855469 L 2.484375 -1.71875 Z "/>
</g>
<g id="glyph-0-5">
<path d="M 3.414062 -2.859375 L 1.242188 1.101562 L 0.792969 1.101562 L 2.804688 -2.410156 L 1.4375 -2.410156 C 1.265625 -2.410156 1.128906 -2.410156 1.03125 -2.40625 C 0.933594 -2.40625 0.84375 -2.386719 0.765625 -2.347656 C 0.699219 -2.316406 0.640625 -2.25 0.59375 -2.140625 C 0.546875 -2.03125 0.511719 -1.898438 0.484375 -1.742188 L 0.265625 -1.742188 L 0.265625 -3.214844 L 3.414062 -3.214844 Z "/>
</g>
<g id="glyph-0-6">
<path d="M 3.21875 -2.609375 C 3.367188 -2.46875 3.480469 -2.304688 3.554688 -2.117188 C 3.632812 -1.925781 3.671875 -1.71875 3.671875 -1.496094 C 3.671875 -1.273438 3.632812 -1.066406 3.558594 -0.871094 C 3.480469 -0.671875 3.371094 -0.507812 3.222656 -0.367188 C 3.066406 -0.21875 2.878906 -0.101562 2.660156 -0.0234375 C 2.441406 0.0546875 2.191406 0.09375 1.914062 0.09375 C 1.667969 0.09375 1.445312 0.0625 1.242188 -0.0078125 C 1.039062 -0.078125 0.859375 -0.183594 0.703125 -0.320312 C 0.550781 -0.457031 0.429688 -0.621094 0.34375 -0.816406 C 0.253906 -1.011719 0.210938 -1.230469 0.210938 -1.472656 C 0.210938 -1.710938 0.25 -1.925781 0.328125 -2.109375 C 0.402344 -2.296875 0.519531 -2.460938 0.671875 -2.609375 C 0.820312 -2.746094 1 -2.855469 1.214844 -2.929688 C 1.433594 -3.007812 1.671875 -3.046875 1.9375 -3.046875 C 2.21875 -3.046875 2.464844 -3.007812 2.675781 -2.929688 C 2.886719 -2.855469 3.066406 -2.746094 3.21875 -2.609375 M 2.457031 -0.539062 C 2.5 -0.652344 2.53125 -0.785156 2.550781 -0.945312 C 2.574219 -1.105469 2.582031 -1.289062 2.582031 -1.5 C 2.582031 -1.640625 2.574219 -1.800781 2.554688 -1.976562 C 2.535156 -2.15625 2.503906 -2.296875 2.464844 -2.402344 C 2.417969 -2.527344 2.351562 -2.625 2.265625 -2.699219 C 2.179688 -2.769531 2.074219 -2.804688 1.945312 -2.804688 C 1.804688 -2.804688 1.691406 -2.765625 1.605469 -2.6875 C 1.523438 -2.609375 1.457031 -2.511719 1.410156 -2.386719 C 1.371094 -2.273438 1.339844 -2.140625 1.324219 -1.988281 C 1.308594 -1.835938 1.300781 -1.679688 1.300781 -1.511719 C 1.300781 -1.296875 1.308594 -1.117188 1.320312 -0.972656 C 1.335938 -0.832031 1.371094 -0.6875 1.421875 -0.546875 C 1.46875 -0.421875 1.535156 -0.324219 1.621094 -0.253906 C 1.707031 -0.183594 1.8125 -0.144531 1.945312 -0.144531 C 2.066406 -0.144531 2.167969 -0.179688 2.253906 -0.246094 C 2.339844 -0.3125 2.40625 -0.410156 2.457031 -0.539062 Z "/>
</g>
<g id="glyph-0-7">
<path d="M 1.554688 0.101562 C 1.363281 0.101562 1.171875 0.0742188 0.988281 0.015625 C 0.804688 -0.0390625 0.664062 -0.101562 0.5625 -0.164062 L 0.472656 0.0390625 L 0.238281 0.0390625 L 0.199219 -1.074219 L 0.417969 -1.074219 C 0.449219 -0.984375 0.496094 -0.882812 0.566406 -0.769531 C 0.636719 -0.660156 0.714844 -0.558594 0.804688 -0.46875 C 0.898438 -0.378906 1.007812 -0.304688 1.125 -0.242188 C 1.246094 -0.179688 1.375 -0.148438 1.511719 -0.148438 C 1.695312 -0.148438 1.828125 -0.183594 1.917969 -0.253906 C 2.003906 -0.324219 2.050781 -0.433594 2.050781 -0.582031 C 2.050781 -0.660156 2.03125 -0.726562 1.988281 -0.777344 C 1.949219 -0.832031 1.894531 -0.875 1.824219 -0.914062 C 1.75 -0.953125 1.664062 -0.988281 1.570312 -1.015625 C 1.476562 -1.042969 1.363281 -1.074219 1.230469 -1.117188 C 1.09375 -1.15625 0.976562 -1.195312 0.882812 -1.238281 C 0.785156 -1.277344 0.683594 -1.339844 0.582031 -1.429688 C 0.492188 -1.507812 0.421875 -1.601562 0.367188 -1.710938 C 0.3125 -1.820312 0.285156 -1.949219 0.285156 -2.101562 C 0.285156 -2.382812 0.402344 -2.609375 0.640625 -2.78125 C 0.875 -2.953125 1.183594 -3.039062 1.566406 -3.039062 C 1.746094 -3.039062 1.914062 -3.023438 2.066406 -2.984375 C 2.21875 -2.949219 2.347656 -2.90625 2.449219 -2.863281 L 2.511719 -3.039062 L 2.738281 -3.039062 L 2.785156 -2.023438 L 2.578125 -2.023438 C 2.507812 -2.230469 2.390625 -2.410156 2.21875 -2.558594 C 2.050781 -2.707031 1.867188 -2.785156 1.675781 -2.785156 C 1.519531 -2.785156 1.398438 -2.753906 1.3125 -2.6875 C 1.226562 -2.625 1.179688 -2.535156 1.179688 -2.421875 C 1.179688 -2.273438 1.246094 -2.164062 1.375 -2.09375 C 1.5 -2.027344 1.679688 -1.964844 1.910156 -1.902344 C 2.265625 -1.8125 2.527344 -1.6875 2.691406 -1.527344 C 2.855469 -1.371094 2.9375 -1.167969 2.9375 -0.925781 C 2.9375 -0.597656 2.8125 -0.347656 2.554688 -0.167969 C 2.300781 0.0117188 1.964844 0.101562 1.554688 0.101562 Z "/>
</g>
<g id="glyph-0-8">
<path d="M 3.378906 -0.714844 C 3.3125 -0.601562 3.226562 -0.492188 3.128906 -0.390625 C 3.03125 -0.292969 2.917969 -0.207031 2.792969 -0.132812 C 2.660156 -0.0585938 2.523438 0 2.386719 0.0390625 C 2.253906 0.0742188 2.09375 0.09375 1.917969 0.09375 C 1.625 0.09375 1.371094 0.0546875 1.15625 -0.03125 C 0.941406 -0.113281 0.765625 -0.226562 0.625 -0.367188 C 0.488281 -0.507812 0.382812 -0.675781 0.316406 -0.867188 C 0.246094 -1.058594 0.210938 -1.265625 0.210938 -1.492188 C 0.210938 -1.695312 0.25 -1.890625 0.324219 -2.074219 C 0.398438 -2.261719 0.503906 -2.425781 0.640625 -2.570312 C 0.777344 -2.714844 0.949219 -2.828125 1.152344 -2.914062 C 1.359375 -3.003906 1.589844 -3.046875 1.84375 -3.046875 C 2.121094 -3.046875 2.351562 -3.011719 2.53125 -2.945312 C 2.710938 -2.878906 2.855469 -2.785156 2.976562 -2.664062 C 3.089844 -2.550781 3.171875 -2.417969 3.222656 -2.261719 C 3.273438 -2.109375 3.300781 -1.949219 3.300781 -1.777344 L 3.300781 -1.585938 L 1.28125 -1.585938 C 1.28125 -1.175781 1.363281 -0.867188 1.519531 -0.652344 C 1.675781 -0.441406 1.925781 -0.335938 2.269531 -0.335938 C 2.453125 -0.335938 2.621094 -0.386719 2.773438 -0.488281 C 2.921875 -0.589844 3.046875 -0.71875 3.152344 -0.878906 L 3.378906 -0.714844 M 2.242188 -1.847656 C 2.242188 -1.964844 2.234375 -2.089844 2.222656 -2.214844 C 2.210938 -2.339844 2.191406 -2.441406 2.160156 -2.519531 C 2.125 -2.613281 2.082031 -2.683594 2.019531 -2.734375 C 1.960938 -2.78125 1.890625 -2.804688 1.800781 -2.804688 C 1.644531 -2.804688 1.523438 -2.726562 1.433594 -2.570312 C 1.339844 -2.417969 1.289062 -2.171875 1.28125 -1.835938 Z "/>
</g>
<g id="glyph-0-9">
<path d="M 1.875 0.09375 C 1.601562 0.09375 1.355469 0.0546875 1.144531 -0.0234375 C 0.933594 -0.105469 0.757812 -0.214844 0.621094 -0.355469 C 0.484375 -0.496094 0.382812 -0.664062 0.3125 -0.855469 C 0.246094 -1.050781 0.210938 -1.257812 0.210938 -1.484375 C 0.210938 -1.691406 0.253906 -1.890625 0.335938 -2.078125 C 0.417969 -2.261719 0.53125 -2.429688 0.671875 -2.570312 C 0.816406 -2.714844 0.996094 -2.828125 1.210938 -2.917969 C 1.429688 -3.003906 1.667969 -3.046875 1.925781 -3.046875 C 2.292969 -3.046875 2.582031 -2.976562 2.796875 -2.839844 C 3.007812 -2.699219 3.113281 -2.515625 3.113281 -2.28125 C 3.113281 -2.136719 3.078125 -2.019531 3 -1.933594 C 2.925781 -1.847656 2.796875 -1.800781 2.609375 -1.800781 C 2.460938 -1.800781 2.335938 -1.839844 2.234375 -1.910156 C 2.136719 -1.980469 2.085938 -2.074219 2.085938 -2.191406 C 2.085938 -2.289062 2.101562 -2.382812 2.132812 -2.480469 C 2.164062 -2.574219 2.183594 -2.648438 2.191406 -2.699219 C 2.167969 -2.734375 2.140625 -2.761719 2.105469 -2.78125 C 2.074219 -2.796875 2.019531 -2.808594 1.949219 -2.808594 C 1.859375 -2.808594 1.777344 -2.785156 1.703125 -2.746094 C 1.628906 -2.703125 1.5625 -2.628906 1.496094 -2.523438 C 1.4375 -2.425781 1.386719 -2.292969 1.351562 -2.125 C 1.3125 -1.957031 1.296875 -1.757812 1.296875 -1.523438 C 1.296875 -1.167969 1.378906 -0.882812 1.542969 -0.664062 C 1.710938 -0.449219 1.910156 -0.339844 2.140625 -0.339844 C 2.359375 -0.339844 2.535156 -0.390625 2.664062 -0.488281 C 2.796875 -0.585938 2.914062 -0.726562 3.011719 -0.90625 L 3.238281 -0.75 C 3.175781 -0.628906 3.101562 -0.519531 3.015625 -0.417969 C 2.929688 -0.320312 2.828125 -0.230469 2.710938 -0.152344 C 2.582031 -0.0703125 2.457031 -0.0078125 2.328125 0.03125 C 2.199219 0.0742188 2.046875 0.09375 1.875 0.09375 Z "/>
</g>
<g id="glyph-0-10">
<path d="M 3.582031 -0.0625 C 3.496094 -0.0234375 3.394531 0.0117188 3.273438 0.0429688 C 3.15625 0.0742188 3.027344 0.0898438 2.894531 0.0898438 C 2.652344 0.0898438 2.472656 0.0546875 2.355469 -0.0195312 C 2.242188 -0.09375 2.164062 -0.195312 2.121094 -0.332031 L 2.105469 -0.332031 C 2.035156 -0.261719 1.96875 -0.207031 1.90625 -0.15625 C 1.84375 -0.109375 1.777344 -0.0703125 1.707031 -0.0351562 C 1.613281 0.0078125 1.523438 0.0390625 1.4375 0.0625 C 1.347656 0.0859375 1.226562 0.09375 1.074219 0.09375 C 0.839844 0.09375 0.644531 0.0273438 0.480469 -0.109375 C 0.316406 -0.246094 0.234375 -0.425781 0.234375 -0.652344 C 0.234375 -0.78125 0.253906 -0.890625 0.289062 -0.980469 C 0.324219 -1.074219 0.375 -1.152344 0.441406 -1.222656 C 0.5 -1.285156 0.570312 -1.339844 0.648438 -1.378906 C 0.726562 -1.421875 0.816406 -1.460938 0.90625 -1.496094 C 1.085938 -1.5625 1.300781 -1.632812 1.554688 -1.703125 C 1.804688 -1.773438 1.988281 -1.835938 2.105469 -1.890625 L 2.105469 -2.179688 C 2.105469 -2.226562 2.097656 -2.292969 2.089844 -2.375 C 2.082031 -2.457031 2.066406 -2.523438 2.039062 -2.582031 C 2.011719 -2.644531 1.96875 -2.699219 1.910156 -2.742188 C 1.851562 -2.785156 1.769531 -2.808594 1.671875 -2.808594 C 1.585938 -2.808594 1.511719 -2.796875 1.453125 -2.769531 C 1.394531 -2.746094 1.347656 -2.71875 1.3125 -2.695312 C 1.320312 -2.65625 1.335938 -2.59375 1.363281 -2.511719 C 1.390625 -2.429688 1.40625 -2.351562 1.40625 -2.277344 C 1.40625 -2.242188 1.394531 -2.199219 1.378906 -2.148438 C 1.359375 -2.097656 1.335938 -2.058594 1.300781 -2.027344 C 1.253906 -1.988281 1.203125 -1.957031 1.148438 -1.9375 C 1.089844 -1.914062 1.003906 -1.902344 0.882812 -1.902344 C 0.71875 -1.902344 0.589844 -1.945312 0.503906 -2.023438 C 0.417969 -2.105469 0.375 -2.210938 0.375 -2.339844 C 0.375 -2.449219 0.421875 -2.550781 0.507812 -2.640625 C 0.597656 -2.726562 0.707031 -2.800781 0.832031 -2.859375 C 0.957031 -2.917969 1.101562 -2.964844 1.265625 -2.996094 C 1.429688 -3.03125 1.578125 -3.046875 1.71875 -3.046875 C 1.910156 -3.046875 2.089844 -3.035156 2.25 -3.011719 C 2.410156 -2.988281 2.554688 -2.941406 2.683594 -2.871094 C 2.808594 -2.800781 2.90625 -2.699219 2.980469 -2.566406 C 3.050781 -2.433594 3.089844 -2.261719 3.089844 -2.050781 C 3.089844 -1.824219 3.082031 -1.558594 3.074219 -1.25 C 3.066406 -0.941406 3.0625 -0.738281 3.0625 -0.640625 C 3.0625 -0.550781 3.074219 -0.480469 3.101562 -0.429688 C 3.128906 -0.378906 3.167969 -0.339844 3.226562 -0.3125 C 3.257812 -0.296875 3.3125 -0.289062 3.386719 -0.285156 C 3.457031 -0.28125 3.523438 -0.28125 3.582031 -0.28125 L 3.582031 -0.0625 M 2.105469 -1.617188 C 1.992188 -1.578125 1.882812 -1.535156 1.769531 -1.488281 C 1.660156 -1.4375 1.570312 -1.386719 1.5 -1.332031 C 1.429688 -1.277344 1.371094 -1.207031 1.328125 -1.121094 C 1.285156 -1.03125 1.265625 -0.929688 1.265625 -0.8125 C 1.265625 -0.65625 1.300781 -0.542969 1.371094 -0.476562 C 1.441406 -0.40625 1.53125 -0.371094 1.632812 -0.371094 C 1.742188 -0.371094 1.832031 -0.390625 1.90625 -0.4375 C 1.976562 -0.480469 2.039062 -0.539062 2.089844 -0.601562 Z "/>
</g>
<g id="glyph-0-11">
<path d="M 4.113281 0 L 2.316406 0 L 2.316406 -0.21875 C 2.355469 -0.222656 2.402344 -0.226562 2.457031 -0.234375 C 2.507812 -0.238281 2.550781 -0.25 2.578125 -0.261719 C 2.621094 -0.285156 2.648438 -0.316406 2.667969 -0.359375 C 2.683594 -0.398438 2.695312 -0.460938 2.695312 -0.542969 L 2.695312 -1.9375 C 2.695312 -2.140625 2.65625 -2.296875 2.582031 -2.398438 C 2.507812 -2.5 2.398438 -2.550781 2.25 -2.550781 C 2.171875 -2.550781 2.097656 -2.539062 2.027344 -2.515625 C 1.960938 -2.492188 1.890625 -2.457031 1.828125 -2.410156 C 1.769531 -2.371094 1.722656 -2.332031 1.6875 -2.289062 C 1.652344 -2.246094 1.625 -2.210938 1.597656 -2.179688 L 1.597656 -0.574219 C 1.597656 -0.507812 1.609375 -0.449219 1.628906 -0.402344 C 1.648438 -0.355469 1.683594 -0.320312 1.726562 -0.296875 C 1.757812 -0.277344 1.800781 -0.261719 1.847656 -0.246094 C 1.894531 -0.234375 1.941406 -0.222656 1.988281 -0.21875 L 1.988281 0 L 0.171875 0 L 0.171875 -0.21875 C 0.222656 -0.222656 0.273438 -0.226562 0.324219 -0.234375 C 0.375 -0.242188 0.417969 -0.25 0.453125 -0.261719 C 0.515625 -0.285156 0.5625 -0.316406 0.585938 -0.363281 C 0.609375 -0.410156 0.621094 -0.46875 0.621094 -0.542969 L 0.621094 -2.28125 C 0.621094 -2.339844 0.605469 -2.402344 0.574219 -2.460938 C 0.542969 -2.519531 0.5 -2.570312 0.449219 -2.609375 C 0.410156 -2.632812 0.367188 -2.652344 0.3125 -2.667969 C 0.257812 -2.683594 0.195312 -2.695312 0.132812 -2.699219 L 0.132812 -2.917969 L 1.554688 -2.996094 L 1.597656 -2.949219 L 1.597656 -2.519531 L 1.609375 -2.519531 C 1.667969 -2.566406 1.734375 -2.628906 1.8125 -2.699219 C 1.894531 -2.765625 1.96875 -2.824219 2.035156 -2.867188 C 2.109375 -2.914062 2.203125 -2.957031 2.324219 -2.988281 C 2.445312 -3.023438 2.570312 -3.039062 2.707031 -3.039062 C 3.03125 -3.039062 3.273438 -2.949219 3.4375 -2.765625 C 3.597656 -2.582031 3.679688 -2.335938 3.679688 -2.03125 L 3.679688 -0.570312 C 3.679688 -0.496094 3.691406 -0.4375 3.710938 -0.394531 C 3.734375 -0.351562 3.773438 -0.316406 3.835938 -0.289062 C 3.867188 -0.277344 3.90625 -0.261719 3.953125 -0.246094 C 4 -0.234375 4.050781 -0.222656 4.113281 -0.21875 Z "/>
</g>
<g id="glyph-0-12">
<path d="M 1.996094 0 L 0.117188 0 L 0.117188 -0.21875 C 0.167969 -0.222656 0.21875 -0.226562 0.269531 -0.234375 C 0.316406 -0.238281 0.359375 -0.25 0.398438 -0.261719 C 0.460938 -0.285156 0.507812 -0.320312 0.53125 -0.367188 C 0.550781 -0.410156 0.5625 -0.46875 0.5625 -0.542969 L 0.5625 -3.847656 C 0.5625 -3.925781 0.546875 -3.996094 0.519531 -4.058594 C 0.488281 -4.125 0.445312 -4.171875 0.394531 -4.207031 C 0.355469 -4.234375 0.292969 -4.257812 0.214844 -4.28125 C 0.132812 -4.304688 0.0625 -4.320312 0 -4.324219 L 0 -4.542969 L 1.503906 -4.617188 L 1.546875 -4.570312 L 1.546875 -0.582031 C 1.546875 -0.507812 1.5625 -0.449219 1.585938 -0.402344 C 1.613281 -0.355469 1.65625 -0.320312 1.714844 -0.296875 C 1.753906 -0.277344 1.796875 -0.261719 1.839844 -0.246094 C 1.882812 -0.234375 1.9375 -0.222656 1.996094 -0.21875 Z "/>
</g>
<g id="glyph-0-13">
<path d="M 6.097656 0 L 4.328125 0 L 4.328125 -0.21875 C 4.371094 -0.222656 4.414062 -0.230469 4.460938 -0.234375 C 4.511719 -0.238281 4.550781 -0.246094 4.582031 -0.261719 C 4.625 -0.28125 4.652344 -0.316406 4.664062 -0.363281 C 4.675781 -0.410156 4.679688 -0.46875 4.679688 -0.542969 L 4.679688 -1.9375 C 4.679688 -2.140625 4.644531 -2.296875 4.570312 -2.398438 C 4.5 -2.5 4.394531 -2.550781 4.257812 -2.550781 C 4.171875 -2.550781 4.097656 -2.539062 4.03125 -2.511719 C 3.964844 -2.484375 3.902344 -2.449219 3.847656 -2.410156 C 3.789062 -2.367188 3.742188 -2.328125 3.710938 -2.285156 C 3.679688 -2.242188 3.652344 -2.207031 3.632812 -2.179688 L 3.632812 -0.574219 C 3.632812 -0.503906 3.640625 -0.445312 3.65625 -0.402344 C 3.671875 -0.355469 3.703125 -0.320312 3.75 -0.296875 C 3.78125 -0.277344 3.816406 -0.261719 3.859375 -0.246094 C 3.898438 -0.234375 3.941406 -0.222656 3.984375 -0.21875 L 3.984375 0 L 2.292969 0 L 2.292969 -0.21875 C 2.328125 -0.222656 2.375 -0.226562 2.425781 -0.234375 C 2.480469 -0.238281 2.519531 -0.25 2.546875 -0.261719 C 2.585938 -0.285156 2.613281 -0.316406 2.628906 -0.359375 C 2.640625 -0.398438 2.648438 -0.460938 2.648438 -0.542969 L 2.648438 -1.9375 C 2.648438 -2.140625 2.609375 -2.296875 2.539062 -2.398438 C 2.464844 -2.5 2.359375 -2.550781 2.226562 -2.550781 C 2.140625 -2.550781 2.0625 -2.539062 1.996094 -2.511719 C 1.929688 -2.484375 1.867188 -2.449219 1.8125 -2.410156 C 1.753906 -2.367188 1.710938 -2.328125 1.675781 -2.285156 C 1.644531 -2.242188 1.617188 -2.207031 1.597656 -2.179688 L 1.597656 -0.574219 C 1.597656 -0.507812 1.605469 -0.449219 1.625 -0.402344 C 1.640625 -0.355469 1.671875 -0.320312 1.71875 -0.296875 C 1.75 -0.277344 1.785156 -0.261719 1.828125 -0.246094 C 1.867188 -0.234375 1.910156 -0.222656 1.957031 -0.21875 L 1.957031 0 L 0.171875 0 L 0.171875 -0.21875 C 0.222656 -0.222656 0.273438 -0.226562 0.320312 -0.234375 C 0.371094 -0.238281 0.414062 -0.25 0.449219 -0.261719 C 0.515625 -0.285156 0.558594 -0.320312 0.582031 -0.367188 C 0.605469 -0.410156 0.617188 -0.46875 0.617188 -0.542969 L 0.617188 -2.28125 C 0.617188 -2.34375 0.601562 -2.40625 0.566406 -2.464844 C 0.53125 -2.527344 0.492188 -2.574219 0.445312 -2.609375 C 0.410156 -2.632812 0.363281 -2.652344 0.308594 -2.667969 C 0.253906 -2.683594 0.195312 -2.695312 0.128906 -2.699219 L 0.128906 -2.917969 L 1.550781 -2.996094 L 1.597656 -2.949219 L 1.597656 -2.53125 L 1.609375 -2.53125 C 1.664062 -2.578125 1.730469 -2.640625 1.808594 -2.707031 C 1.882812 -2.777344 1.957031 -2.832031 2.023438 -2.875 C 2.097656 -2.921875 2.191406 -2.960938 2.304688 -2.992188 C 2.421875 -3.023438 2.546875 -3.039062 2.683594 -3.039062 C 2.914062 -3.039062 3.101562 -2.992188 3.253906 -2.894531 C 3.40625 -2.792969 3.515625 -2.664062 3.578125 -2.5 L 3.605469 -2.5 C 3.660156 -2.554688 3.734375 -2.617188 3.816406 -2.691406 C 3.898438 -2.761719 3.976562 -2.820312 4.046875 -2.863281 C 4.125 -2.914062 4.222656 -2.957031 4.34375 -2.988281 C 4.464844 -3.023438 4.59375 -3.039062 4.730469 -3.039062 C 5.03125 -3.039062 5.261719 -2.953125 5.421875 -2.773438 C 5.585938 -2.597656 5.667969 -2.347656 5.667969 -2.019531 L 5.667969 -0.570312 C 5.667969 -0.496094 5.675781 -0.4375 5.699219 -0.390625 C 5.722656 -0.347656 5.761719 -0.3125 5.816406 -0.289062 C 5.851562 -0.277344 5.890625 -0.261719 5.9375 -0.246094 C 5.984375 -0.234375 6.035156 -0.222656 6.097656 -0.21875 Z "/>
</g>
<g id="glyph-0-14">
<path d="M 4.027344 -0.0625 L 2.558594 0.0234375 L 2.511719 -0.0195312 L 2.511719 -0.292969 L 2.492188 -0.296875 C 2.394531 -0.191406 2.261719 -0.101562 2.097656 -0.0234375 C 1.929688 0.0546875 1.761719 0.09375 1.59375 0.09375 C 1.191406 0.09375 0.863281 -0.0546875 0.601562 -0.351562 C 0.34375 -0.652344 0.210938 -1.035156 0.210938 -1.511719 C 0.210938 -1.929688 0.355469 -2.289062 0.648438 -2.589844 C 0.9375 -2.890625 1.292969 -3.039062 1.703125 -3.039062 C 1.867188 -3.039062 2.019531 -3.023438 2.164062 -2.984375 C 2.308594 -2.949219 2.421875 -2.90625 2.507812 -2.855469 L 2.507812 -3.832031 C 2.507812 -3.90625 2.492188 -3.972656 2.460938 -4.039062 C 2.433594 -4.101562 2.390625 -4.152344 2.34375 -4.1875 C 2.28125 -4.234375 2.203125 -4.265625 2.109375 -4.28125 C 2.019531 -4.300781 1.925781 -4.316406 1.832031 -4.324219 L 1.832031 -4.542969 L 3.445312 -4.617188 L 3.492188 -4.570312 L 3.492188 -0.660156 C 3.492188 -0.582031 3.503906 -0.519531 3.527344 -0.46875 C 3.554688 -0.417969 3.59375 -0.375 3.648438 -0.347656 C 3.691406 -0.324219 3.75 -0.308594 3.832031 -0.296875 C 3.910156 -0.289062 3.976562 -0.28125 4.027344 -0.28125 L 4.027344 -0.0625 M 2.507812 -0.59375 L 2.507812 -2.28125 C 2.492188 -2.324219 2.472656 -2.375 2.449219 -2.433594 C 2.421875 -2.488281 2.390625 -2.539062 2.34375 -2.589844 C 2.304688 -2.632812 2.253906 -2.667969 2.1875 -2.699219 C 2.121094 -2.730469 2.046875 -2.746094 1.960938 -2.746094 C 1.761719 -2.746094 1.601562 -2.636719 1.472656 -2.410156 C 1.347656 -2.1875 1.28125 -1.867188 1.28125 -1.460938 C 1.28125 -1.296875 1.292969 -1.152344 1.316406 -1.023438 C 1.339844 -0.898438 1.378906 -0.78125 1.4375 -0.675781 C 1.496094 -0.570312 1.570312 -0.488281 1.660156 -0.425781 C 1.75 -0.367188 1.859375 -0.335938 1.984375 -0.335938 C 2.105469 -0.335938 2.207031 -0.359375 2.285156 -0.40625 C 2.367188 -0.453125 2.4375 -0.515625 2.507812 -0.59375 Z "/>
</g>
<g id="glyph-0-15">
<path d="M 2.058594 0 L 0.171875 0 L 0.171875 -0.21875 C 0.226562 -0.222656 0.277344 -0.226562 0.324219 -0.234375 C 0.375 -0.238281 0.417969 -0.25 0.453125 -0.261719 C 0.515625 -0.285156 0.5625 -0.320312 0.585938 -0.367188 C 0.613281 -0.410156 0.625 -0.46875 0.625 -0.542969 L 0.625 -2.28125 C 0.625 -2.347656 0.609375 -2.410156 0.578125 -2.464844 C 0.546875 -2.515625 0.507812 -2.558594 0.460938 -2.589844 C 0.421875 -2.613281 0.371094 -2.636719 0.296875 -2.660156 C 0.222656 -2.679688 0.15625 -2.695312 0.0976562 -2.699219 L 0.0976562 -2.917969 L 1.558594 -2.996094 L 1.605469 -2.949219 L 1.605469 -0.582031 C 1.605469 -0.511719 1.621094 -0.453125 1.648438 -0.402344 C 1.679688 -0.355469 1.722656 -0.320312 1.777344 -0.296875 C 1.816406 -0.277344 1.863281 -0.261719 1.910156 -0.246094 C 1.957031 -0.234375 2.007812 -0.222656 2.058594 -0.21875 L 2.058594 0 M 1.625 -4.070312 C 1.625 -3.917969 1.566406 -3.789062 1.449219 -3.683594 C 1.332031 -3.578125 1.195312 -3.523438 1.035156 -3.523438 C 0.875 -3.523438 0.734375 -3.578125 0.617188 -3.683594 C 0.503906 -3.789062 0.445312 -3.917969 0.445312 -4.070312 C 0.445312 -4.222656 0.503906 -4.351562 0.617188 -4.457031 C 0.734375 -4.566406 0.875 -4.617188 1.035156 -4.617188 C 1.195312 -4.617188 1.335938 -4.566406 1.449219 -4.457031 C 1.566406 -4.351562 1.625 -4.222656 1.625 -4.070312 Z "/>
</g>
<g id="glyph-0-16">
<path d="M 3.144531 -2.414062 C 3.144531 -2.261719 3.097656 -2.128906 3.003906 -2.015625 C 2.910156 -1.902344 2.789062 -1.84375 2.632812 -1.84375 C 2.488281 -1.84375 2.367188 -1.878906 2.265625 -1.953125 C 2.164062 -2.027344 2.117188 -2.136719 2.117188 -2.277344 C 2.117188 -2.347656 2.121094 -2.402344 2.128906 -2.441406 C 2.140625 -2.476562 2.148438 -2.515625 2.15625 -2.546875 C 2.066406 -2.542969 1.96875 -2.511719 1.867188 -2.453125 C 1.765625 -2.394531 1.675781 -2.316406 1.597656 -2.21875 L 1.597656 -0.578125 C 1.597656 -0.507812 1.609375 -0.453125 1.632812 -0.40625 C 1.652344 -0.359375 1.691406 -0.324219 1.742188 -0.296875 C 1.785156 -0.277344 1.855469 -0.257812 1.957031 -0.242188 C 2.054688 -0.226562 2.125 -0.21875 2.167969 -0.21875 L 2.167969 0 L 0.171875 0 L 0.171875 -0.21875 C 0.222656 -0.222656 0.273438 -0.226562 0.324219 -0.234375 C 0.375 -0.242188 0.417969 -0.25 0.453125 -0.261719 C 0.515625 -0.285156 0.5625 -0.316406 0.585938 -0.363281 C 0.609375 -0.410156 0.621094 -0.46875 0.621094 -0.542969 L 0.621094 -2.28125 C 0.621094 -2.351562 0.605469 -2.414062 0.570312 -2.472656 C 0.535156 -2.527344 0.496094 -2.574219 0.449219 -2.609375 C 0.410156 -2.632812 0.367188 -2.652344 0.3125 -2.667969 C 0.257812 -2.683594 0.195312 -2.695312 0.132812 -2.699219 L 0.132812 -2.917969 L 1.554688 -2.996094 L 1.597656 -2.949219 L 1.597656 -2.519531 L 1.609375 -2.519531 C 1.75 -2.675781 1.894531 -2.800781 2.046875 -2.894531 C 2.203125 -2.984375 2.363281 -3.027344 2.53125 -3.027344 C 2.714844 -3.027344 2.863281 -2.972656 2.976562 -2.855469 C 3.089844 -2.742188 3.144531 -2.59375 3.144531 -2.414062 Z "/>
</g>
<g id="glyph-0-17">
<path d="M 1.730469 -3.761719 C 1.730469 -3.679688 1.714844 -3.574219 1.6875 -3.4375 C 1.660156 -3.304688 1.621094 -3.148438 1.578125 -2.964844 C 1.535156 -2.792969 1.488281 -2.582031 1.433594 -2.324219 C 1.382812 -2.070312 1.324219 -1.753906 1.265625 -1.378906 L 1.035156 -1.378906 C 0.976562 -1.757812 0.917969 -2.074219 0.867188 -2.328125 C 0.8125 -2.578125 0.765625 -2.792969 0.722656 -2.960938 C 0.683594 -3.121094 0.648438 -3.273438 0.617188 -3.425781 C 0.585938 -3.574219 0.570312 -3.6875 0.570312 -3.761719 C 0.570312 -3.914062 0.625 -4.046875 0.738281 -4.15625 C 0.851562 -4.261719 0.988281 -4.316406 1.148438 -4.316406 C 1.304688 -4.316406 1.441406 -4.261719 1.558594 -4.15625 C 1.671875 -4.046875 1.730469 -3.914062 1.730469 -3.761719 M 1.722656 -0.464844 C 1.722656 -0.3125 1.667969 -0.183594 1.554688 -0.0742188 C 1.4375 0.03125 1.304688 0.0859375 1.152344 0.0859375 C 0.996094 0.0859375 0.863281 0.03125 0.746094 -0.0742188 C 0.632812 -0.183594 0.574219 -0.3125 0.574219 -0.464844 C 0.574219 -0.617188 0.632812 -0.746094 0.746094 -0.859375 C 0.863281 -0.96875 0.996094 -1.023438 1.152344 -1.023438 C 1.304688 -1.023438 1.4375 -0.96875 1.554688 -0.859375 C 1.667969 -0.746094 1.722656 -0.617188 1.722656 -0.464844 Z "/>
</g>
<g id="glyph-1-0">
<path d="M 3.960938 -2.054688 L 0.5 -2.054688 L 0.5 -2.457031 L 3.960938 -2.457031 L 3.554688 -2.933594 L 3.554688 -3.101562 L 5.753906 -2.257812 L 3.554688 -1.433594 L 3.554688 -1.585938 Z "/>
</g>
</g>
</defs>
<g fill="rgb(91.764706%, 16.862745%, 12.156863%)" fill-opacity="1">
<use xlink:href="#glyph-0-0" x="30" y="25.603516"/>
<use xlink:href="#glyph-0-1" x="34" y="25.603516"/>
<use xlink:href="#glyph-0-2" x="38" y="25.603516"/>
<use xlink:href="#glyph-0-3" x="40" y="25.603516"/>
<use xlink:href="#glyph-0-2" x="44" y="25.603516"/>
<use xlink:href="#glyph-0-1" x="46" y="25.603516"/>
<use xlink:href="#glyph-0-2" x="50" y="25.603516"/>
<use xlink:href="#glyph-0-4" x="52" y="25.603516"/>
<use xlink:href="#glyph-0-2" x="56" y="25.603516"/>
<use xlink:href="#glyph-0-5" x="58" y="25.603516"/>
<use xlink:href="#glyph-0-2" x="61" y="25.603516"/>
<use xlink:href="#glyph-0-2" x="63" y="25.603516"/>
</g>
<g fill="rgb(91.764706%, 16.862745%, 12.156863%)" fill-opacity="1">
<use xlink:href="#glyph-1-0" x="65" y="25.603516"/>
</g>
<g fill="rgb(91.764706%, 16.862745%, 12.156863%)" fill-opacity="1">
<use xlink:href="#glyph-0-2" x="71" y="25.603516"/>
<use xlink:href="#glyph-0-2" x="73" y="25.603516"/>
<use xlink:href="#glyph-0-6" x="75" y="25.603516"/>
<use xlink:href="#glyph-0-2" x="79" y="25.603516"/>
<use xlink:href="#glyph-0-5" x="81" y="25.603516"/>
<use xlink:href="#glyph-0-2" x="84" y="25.603516"/>
<use xlink:href="#glyph-0-7" x="86" y="25.603516"/>
<use xlink:href="#glyph-0-8" x="89" y="25.603516"/>
<use xlink:href="#glyph-0-2" x="92" y="25.603516"/>
<use xlink:href="#glyph-0-9" x="94" y="25.603516"/>
<use xlink:href="#glyph-0-10" x="97" y="25.603516"/>
<use xlink:href="#glyph-0-11" x="101" y="25.603516"/>
<use xlink:href="#glyph-0-9" x="105" y="25.603516"/>
<use xlink:href="#glyph-0-8" x="108" y="25.603516"/>
<use xlink:href="#glyph-0-12" x="111" y="25.603516"/>
<use xlink:href="#glyph-0-10" x="113" y="25.603516"/>
<use xlink:href="#glyph-0-2" x="117" y="25.603516"/>
<use xlink:href="#glyph-0-9" x="119" y="25.603516"/>
<use xlink:href="#glyph-0-6" x="122" y="25.603516"/>
<use xlink:href="#glyph-0-13" x="126" y="25.603516"/>
<use xlink:href="#glyph-0-2" x="132" y="25.603516"/>
<use xlink:href="#glyph-0-6" x="134" y="25.603516"/>
<use xlink:href="#glyph-0-2" x="138" y="25.603516"/>
<use xlink:href="#glyph-0-14" x="140" y="25.603516"/>
<use xlink:href="#glyph-0-8" x="144" y="25.603516"/>
<use xlink:href="#glyph-0-11" x="147" y="25.603516"/>
<use xlink:href="#glyph-0-6" x="151" y="25.603516"/>
<use xlink:href="#glyph-0-13" x="155" y="25.603516"/>
<use xlink:href="#glyph-0-15" x="161" y="25.603516"/>
<use xlink:href="#glyph-0-11" x="163" y="25.603516"/>
<use xlink:href="#glyph-0-10" x="167" y="25.603516"/>
<use xlink:href="#glyph-0-14" x="171" y="25.603516"/>
<use xlink:href="#glyph-0-6" x="175" y="25.603516"/>
<use xlink:href="#glyph-0-16" x="179" y="25.603516"/>
<use xlink:href="#glyph-0-17" x="182" y="25.603516"/>
</g>
</svg>
