<?xml version="1.0" encoding="UTF-8"?>
<svg xmlns="http://www.w3.org/2000/svg" xmlns:xlink="http://www.w3.org/1999/xlink" width="1920" height="1080" viewBox="0 0 1920 1080">
<defs>
<g>
<g id="glyph-0-0">
<path d="M 5.019531 0 L 3.722656 0 C 3.4375 -0.449219 3.175781 -0.839844 2.945312 -1.167969 C 2.714844 -1.492188 2.460938 -1.832031 2.191406 -2.179688 L 1.699219 -2.179688 L 1.699219 -0.65625 C 1.699219 -0.574219 1.710938 -0.503906 1.734375 -0.445312 C 1.761719 -0.386719 1.8125 -0.339844 1.894531 -0.308594 C 1.9375 -0.292969 2.007812 -0.277344 2.109375 -0.265625 C 2.210938 -0.25 2.296875 -0.242188 2.367188 -0.242188 L 2.367188 0 L 0.332031 0 L 0.332031 -0.242188 C 0.386719 -0.246094 0.464844 -0.253906 0.566406 -0.265625 C 0.671875 -0.277344 0.742188 -0.289062 0.785156 -0.308594 C 0.851562 -0.339844 0.898438 -0.382812 0.929688 -0.4375 C 0.960938 -0.492188 0.976562 -0.566406 0.976562 -0.65625 L 0.976562 -4.132812 C 0.976562 -4.210938 0.964844 -4.28125 0.941406 -4.34375 C 0.921875 -4.40625 0.867188 -4.449219 0.785156 -4.480469 C 0.726562 -4.503906 0.652344 -4.519531 0.5625 -4.539062 C 0.472656 -4.554688 0.394531 -4.566406 0.332031 -4.570312 L 0.332031 -4.8125 L 2.554688 -4.8125 C 2.757812 -4.8125 2.949219 -4.789062 3.125 -4.75 C 3.304688 -4.707031 3.464844 -4.640625 3.609375 -4.546875 C 3.75 -4.457031 3.863281 -4.339844 3.945312 -4.191406 C 4.03125 -4.046875 4.070312 -3.871094 4.070312 -3.664062 C 4.070312 -3.480469 4.042969 -3.316406 3.988281 -3.171875 C 3.929688 -3.03125 3.847656 -2.90625 3.738281 -2.804688 C 3.632812 -2.707031 3.511719 -2.621094 3.371094 -2.550781 C 3.226562 -2.480469 3.070312 -2.417969 2.898438 -2.371094 C 3.136719 -2.054688 3.332031 -1.792969 3.492188 -1.578125 C 3.648438 -1.363281 3.839844 -1.101562 4.070312 -0.792969 C 4.167969 -0.65625 4.257812 -0.558594 4.339844 -0.492188 C 4.417969 -0.429688 4.5 -0.375 4.578125 -0.335938 C 4.636719 -0.304688 4.710938 -0.285156 4.796875 -0.269531 C 4.886719 -0.253906 4.960938 -0.242188 5.019531 -0.242188 L 5.019531 0 M 3.234375 -3.585938 C 3.234375 -3.875 3.152344 -4.105469 2.984375 -4.277344 C 2.816406 -4.449219 2.582031 -4.535156 2.273438 -4.535156 L 1.699219 -4.535156 L 1.699219 -2.472656 L 2.144531 -2.472656 C 2.453125 -2.472656 2.714844 -2.570312 2.921875 -2.769531 C 3.128906 -2.972656 3.234375 -3.242188 3.234375 -3.585938 Z "/>
</g>
<g id="glyph-0-1">
<path d="M 3.214844 -0.785156 C 3.074219 -0.519531 2.886719 -0.308594 2.652344 -0.148438 C 2.417969 0.0078125 2.144531 0.0898438 1.839844 0.0898438 C 1.570312 0.0898438 1.335938 0.0390625 1.132812 -0.0546875 C 0.933594 -0.148438 0.765625 -0.277344 0.632812 -0.441406 C 0.503906 -0.605469 0.40625 -0.792969 0.339844 -1.011719 C 0.277344 -1.226562 0.242188 -1.457031 0.242188 -1.699219 C 0.242188 -1.914062 0.277344 -2.128906 0.347656 -2.335938 C 0.417969 -2.546875 0.519531 -2.734375 0.652344 -2.902344 C 0.78125 -3.0625 0.941406 -3.191406 1.128906 -3.289062 C 1.320312 -3.390625 1.535156 -3.4375 1.773438 -3.4375 C 2.015625 -3.4375 2.226562 -3.398438 2.402344 -3.324219 C 2.574219 -3.246094 2.714844 -3.140625 2.824219 -3.007812 C 2.929688 -2.882812 3.003906 -2.730469 3.058594 -2.558594 C 3.109375 -2.386719 3.132812 -2.203125 3.132812 -2 L 3.132812 -1.777344 L 0.917969 -1.777344 C 0.917969 -1.558594 0.941406 -1.359375 0.980469 -1.179688 C 1.023438 -1 1.089844 -0.84375 1.179688 -0.707031 C 1.269531 -0.574219 1.382812 -0.472656 1.527344 -0.394531 C 1.667969 -0.320312 1.835938 -0.28125 2.035156 -0.28125 C 2.234375 -0.28125 2.410156 -0.328125 2.554688 -0.421875 C 2.699219 -0.515625 2.839844 -0.6875 2.976562 -0.933594 L 3.214844 -0.785156 M 2.464844 -2.0625 C 2.464844 -2.1875 2.453125 -2.324219 2.433594 -2.46875 C 2.410156 -2.613281 2.375 -2.730469 2.328125 -2.828125 C 2.277344 -2.933594 2.207031 -3.015625 2.117188 -3.082031 C 2.023438 -3.148438 1.910156 -3.179688 1.765625 -3.179688 C 1.527344 -3.179688 1.332031 -3.082031 1.175781 -2.882812 C 1.019531 -2.6875 0.933594 -2.414062 0.917969 -2.0625 Z "/>
</g>
<g id="glyph-0-2">
<path d="M 3.507812 -1.707031 C 3.507812 -1.46875 3.46875 -1.238281 3.394531 -1.011719 C 3.320312 -0.785156 3.214844 -0.59375 3.074219 -0.433594 C 2.917969 -0.253906 2.738281 -0.117188 2.53125 -0.03125 C 2.324219 0.0585938 2.09375 0.101562 1.839844 0.101562 C 1.625 0.101562 1.425781 0.0625 1.230469 -0.0195312 C 1.039062 -0.0976562 0.867188 -0.214844 0.71875 -0.371094 C 0.570312 -0.519531 0.457031 -0.707031 0.367188 -0.925781 C 0.28125 -1.140625 0.238281 -1.386719 0.238281 -1.65625 C 0.238281 -2.179688 0.390625 -2.605469 0.695312 -2.941406 C 1 -3.273438 1.398438 -3.4375 1.890625 -3.4375 C 2.359375 -3.4375 2.746094 -3.28125 3.050781 -2.964844 C 3.355469 -2.648438 3.507812 -2.230469 3.507812 -1.707031 M 2.804688 -1.699219 C 2.804688 -1.867188 2.785156 -2.046875 2.753906 -2.234375 C 2.71875 -2.425781 2.667969 -2.585938 2.601562 -2.714844 C 2.527344 -2.855469 2.433594 -2.96875 2.316406 -3.054688 C 2.195312 -3.136719 2.054688 -3.179688 1.882812 -3.179688 C 1.710938 -3.179688 1.558594 -3.136719 1.4375 -3.050781 C 1.3125 -2.964844 1.214844 -2.847656 1.136719 -2.699219 C 1.0625 -2.5625 1.011719 -2.402344 0.984375 -2.226562 C 0.953125 -2.050781 0.9375 -1.878906 0.9375 -1.714844 C 0.9375 -1.5 0.957031 -1.296875 0.992188 -1.113281 C 1.027344 -0.929688 1.082031 -0.765625 1.160156 -0.621094 C 1.238281 -0.476562 1.332031 -0.363281 1.449219 -0.28125 C 1.566406 -0.195312 1.710938 -0.15625 1.882812 -0.15625 C 2.167969 -0.15625 2.390625 -0.292969 2.554688 -0.566406 C 2.722656 -0.839844 2.804688 -1.21875 2.804688 -1.699219 Z "/>
</g>
<g id="glyph-0-3">
<path d="M 2.804688 -2.914062 C 2.804688 -2.796875 2.777344 -2.695312 2.71875 -2.605469 C 2.664062 -2.515625 2.574219 -2.472656 2.457031 -2.472656 C 2.332031 -2.472656 2.234375 -2.503906 2.167969 -2.570312 C 2.101562 -2.636719 2.066406 -2.707031 2.066406 -2.785156 C 2.066406 -2.835938 2.070312 -2.882812 2.082031 -2.921875 C 2.089844 -2.964844 2.09375 -3.003906 2.101562 -3.042969 C 1.996094 -3.042969 1.871094 -3 1.730469 -2.914062 C 1.585938 -2.828125 1.464844 -2.707031 1.367188 -2.550781 L 1.367188 -0.605469 C 1.367188 -0.523438 1.382812 -0.460938 1.414062 -0.410156 C 1.441406 -0.359375 1.492188 -0.324219 1.554688 -0.296875 C 1.613281 -0.277344 1.6875 -0.257812 1.773438 -0.246094 C 1.863281 -0.234375 1.941406 -0.226562 2.007812 -0.222656 L 2.007812 0 L 0.242188 0 L 0.242188 -0.222656 C 0.296875 -0.226562 0.351562 -0.234375 0.40625 -0.238281 C 0.460938 -0.242188 0.507812 -0.25 0.550781 -0.265625 C 0.613281 -0.285156 0.660156 -0.320312 0.691406 -0.371094 C 0.71875 -0.421875 0.734375 -0.488281 0.734375 -0.570312 L 0.734375 -2.632812 C 0.734375 -2.703125 0.71875 -2.769531 0.6875 -2.839844 C 0.652344 -2.90625 0.609375 -2.960938 0.550781 -3 C 0.507812 -3.027344 0.457031 -3.046875 0.398438 -3.058594 C 0.339844 -3.074219 0.273438 -3.082031 0.207031 -3.085938 L 0.207031 -3.308594 L 1.320312 -3.382812 L 1.367188 -3.335938 L 1.367188 -2.863281 L 1.382812 -2.863281 C 1.523438 -3.046875 1.679688 -3.1875 1.851562 -3.28125 C 2.023438 -3.378906 2.179688 -3.425781 2.324219 -3.425781 C 2.464844 -3.425781 2.582031 -3.378906 2.671875 -3.285156 C 2.757812 -3.191406 2.804688 -3.070312 2.804688 -2.914062 Z "/>
</g>
<g id="glyph-0-4">
<path d="M 3.109375 -0.347656 C 3.199219 -0.261719 3.269531 -0.164062 3.324219 -0.0546875 C 3.375 0.0546875 3.402344 0.1875 3.402344 0.347656 C 3.402344 0.507812 3.367188 0.660156 3.296875 0.800781 C 3.226562 0.941406 3.121094 1.066406 2.976562 1.167969 C 2.824219 1.277344 2.644531 1.359375 2.433594 1.417969 C 2.222656 1.476562 1.964844 1.503906 1.65625 1.503906 C 1.148438 1.503906 0.769531 1.429688 0.519531 1.285156 C 0.269531 1.136719 0.140625 0.917969 0.140625 0.632812 C 0.140625 0.402344 0.234375 0.222656 0.414062 0.0898438 C 0.59375 -0.046875 0.824219 -0.117188 1.105469 -0.128906 L 1.105469 -0.175781 C 1.039062 -0.195312 0.96875 -0.222656 0.894531 -0.253906 C 0.824219 -0.28125 0.761719 -0.320312 0.707031 -0.359375 C 0.648438 -0.40625 0.601562 -0.460938 0.566406 -0.527344 C 0.53125 -0.589844 0.511719 -0.671875 0.511719 -0.765625 C 0.511719 -0.886719 0.554688 -0.996094 0.640625 -1.097656 C 0.722656 -1.199219 0.851562 -1.285156 1.023438 -1.355469 L 1.023438 -1.40625 C 0.808594 -1.507812 0.636719 -1.640625 0.519531 -1.796875 C 0.398438 -1.957031 0.339844 -2.144531 0.339844 -2.351562 C 0.339844 -2.667969 0.457031 -2.929688 0.695312 -3.132812 C 0.929688 -3.335938 1.230469 -3.4375 1.601562 -3.4375 C 1.703125 -3.4375 1.804688 -3.429688 1.902344 -3.40625 C 2.003906 -3.386719 2.105469 -3.359375 2.210938 -3.328125 L 3.378906 -3.328125 L 3.378906 -3.003906 L 2.589844 -3.003906 L 2.589844 -2.984375 C 2.675781 -2.886719 2.734375 -2.777344 2.777344 -2.660156 C 2.816406 -2.542969 2.839844 -2.429688 2.839844 -2.316406 C 2.839844 -2.023438 2.71875 -1.773438 2.480469 -1.570312 C 2.242188 -1.367188 1.964844 -1.265625 1.648438 -1.265625 L 1.238281 -1.265625 C 1.1875 -1.246094 1.132812 -1.214844 1.074219 -1.167969 C 1.019531 -1.117188 0.988281 -1.054688 0.988281 -0.972656 C 0.988281 -0.890625 1.015625 -0.824219 1.0625 -0.78125 C 1.109375 -0.738281 1.167969 -0.707031 1.234375 -0.691406 C 1.300781 -0.671875 1.375 -0.664062 1.464844 -0.65625 C 1.550781 -0.652344 1.640625 -0.648438 1.734375 -0.648438 C 1.832031 -0.644531 1.96875 -0.636719 2.140625 -0.628906 C 2.3125 -0.617188 2.4375 -0.609375 2.507812 -0.605469 C 2.613281 -0.601562 2.71875 -0.578125 2.824219 -0.53125 C 2.929688 -0.488281 3.023438 -0.425781 3.109375 -0.347656 M 2.195312 -2.328125 C 2.195312 -2.59375 2.140625 -2.804688 2.03125 -2.960938 C 1.925781 -3.117188 1.773438 -3.199219 1.578125 -3.199219 C 1.472656 -3.199219 1.382812 -3.175781 1.308594 -3.132812 C 1.230469 -3.085938 1.167969 -3.023438 1.121094 -2.941406 C 1.078125 -2.867188 1.042969 -2.777344 1.027344 -2.671875 C 1.007812 -2.570312 0.996094 -2.460938 0.996094 -2.351562 C 0.996094 -2.097656 1.050781 -1.894531 1.160156 -1.734375 C 1.269531 -1.578125 1.414062 -1.5 1.585938 -1.5 C 1.78125 -1.5 1.929688 -1.578125 2.035156 -1.734375 C 2.140625 -1.890625 2.195312 -2.089844 2.195312 -2.328125 M 2.84375 0.476562 C 2.84375 0.347656 2.816406 0.242188 2.757812 0.164062 C 2.699219 0.0820312 2.609375 0.0273438 2.488281 -0.00390625 C 2.425781 -0.0117188 2.296875 -0.0234375 2.097656 -0.0351562 C 1.902344 -0.046875 1.675781 -0.0507812 1.414062 -0.0507812 C 1.167969 -0.00390625 0.996094 0.078125 0.894531 0.1875 C 0.789062 0.300781 0.738281 0.445312 0.738281 0.621094 C 0.738281 0.699219 0.757812 0.773438 0.789062 0.847656 C 0.824219 0.921875 0.882812 0.988281 0.964844 1.046875 C 1.046875 1.105469 1.152344 1.15625 1.285156 1.191406 C 1.417969 1.230469 1.582031 1.246094 1.773438 1.246094 C 2.105469 1.246094 2.367188 1.183594 2.558594 1.054688 C 2.75 0.929688 2.84375 0.734375 2.84375 0.476562 Z "/>
</g>
<g id="glyph-0-5">
<path d="M 3.410156 -0.0625 C 3.304688 -0.0234375 3.210938 0.0078125 3.132812 0.03125 C 3.050781 0.0546875 2.960938 0.0664062 2.859375 0.0664062 C 2.683594 0.0664062 2.542969 0.0273438 2.4375 -0.0546875 C 2.332031 -0.136719 2.265625 -0.257812 2.234375 -0.417969 L 2.214844 -0.417969 C 2.066406 -0.253906 1.910156 -0.128906 1.742188 -0.0429688 C 1.574219 0.0429688 1.371094 0.0859375 1.132812 0.0859375 C 0.882812 0.0859375 0.675781 0.0078125 0.515625 -0.144531 C 0.351562 -0.300781 0.269531 -0.5 0.269531 -0.75 C 0.269531 -0.878906 0.289062 -0.992188 0.324219 -1.09375 C 0.363281 -1.195312 0.414062 -1.289062 0.488281 -1.371094 C 0.542969 -1.4375 0.621094 -1.5 0.710938 -1.550781 C 0.804688 -1.605469 0.890625 -1.648438 0.972656 -1.679688 C 1.074219 -1.714844 1.28125 -1.789062 1.59375 -1.890625 C 1.902344 -1.996094 2.113281 -2.078125 2.222656 -2.136719 L 2.222656 -2.472656 C 2.222656 -2.5 2.214844 -2.558594 2.203125 -2.640625 C 2.191406 -2.726562 2.164062 -2.804688 2.121094 -2.878906 C 2.078125 -2.960938 2.011719 -3.035156 1.929688 -3.097656 C 1.847656 -3.160156 1.730469 -3.191406 1.578125 -3.191406 C 1.476562 -3.191406 1.378906 -3.171875 1.289062 -3.136719 C 1.199219 -3.101562 1.136719 -3.066406 1.101562 -3.027344 C 1.101562 -2.984375 1.113281 -2.914062 1.132812 -2.828125 C 1.15625 -2.738281 1.167969 -2.660156 1.167969 -2.582031 C 1.167969 -2.503906 1.128906 -2.433594 1.058594 -2.367188 C 0.988281 -2.300781 0.890625 -2.269531 0.761719 -2.269531 C 0.648438 -2.269531 0.566406 -2.308594 0.515625 -2.390625 C 0.460938 -2.46875 0.433594 -2.558594 0.433594 -2.660156 C 0.433594 -2.761719 0.472656 -2.863281 0.542969 -2.957031 C 0.617188 -3.050781 0.714844 -3.136719 0.832031 -3.210938 C 0.933594 -3.273438 1.054688 -3.328125 1.199219 -3.371094 C 1.34375 -3.417969 1.484375 -3.4375 1.625 -3.4375 C 1.8125 -3.4375 1.980469 -3.425781 2.121094 -3.398438 C 2.261719 -3.375 2.390625 -3.316406 2.503906 -3.230469 C 2.621094 -3.148438 2.707031 -3.035156 2.769531 -2.890625 C 2.828125 -2.746094 2.859375 -2.5625 2.859375 -2.335938 C 2.859375 -2.011719 2.855469 -1.726562 2.847656 -1.476562 C 2.839844 -1.226562 2.839844 -0.953125 2.839844 -0.65625 C 2.839844 -0.570312 2.851562 -0.5 2.882812 -0.449219 C 2.914062 -0.394531 2.960938 -0.351562 3.023438 -0.316406 C 3.058594 -0.296875 3.113281 -0.285156 3.183594 -0.28125 C 3.257812 -0.277344 3.335938 -0.277344 3.410156 -0.277344 L 3.410156 -0.0625 M 2.226562 -1.851562 C 2.035156 -1.792969 1.867188 -1.738281 1.722656 -1.683594 C 1.578125 -1.628906 1.441406 -1.5625 1.320312 -1.480469 C 1.207031 -1.402344 1.117188 -1.3125 1.050781 -1.207031 C 0.984375 -1.101562 0.953125 -0.976562 0.953125 -0.832031 C 0.953125 -0.644531 1 -0.503906 1.101562 -0.417969 C 1.199219 -0.328125 1.324219 -0.285156 1.476562 -0.285156 C 1.636719 -0.285156 1.777344 -0.324219 1.898438 -0.402344 C 2.019531 -0.480469 2.125 -0.574219 2.207031 -0.679688 Z "/>
</g>
<g id="glyph-0-6">
<path d="M 3.9375 0 L 2.300781 0 L 2.300781 -0.222656 C 2.355469 -0.226562 2.410156 -0.234375 2.472656 -0.238281 C 2.535156 -0.242188 2.585938 -0.25 2.628906 -0.265625 C 2.691406 -0.285156 2.738281 -0.320312 2.769531 -0.371094 C 2.800781 -0.421875 2.8125 -0.488281 2.8125 -0.570312 L 2.8125 -2.289062 C 2.8125 -2.527344 2.757812 -2.710938 2.644531 -2.839844 C 2.535156 -2.96875 2.398438 -3.03125 2.238281 -3.03125 C 2.117188 -3.03125 2.007812 -3.011719 1.90625 -2.976562 C 1.808594 -2.9375 1.71875 -2.890625 1.640625 -2.839844 C 1.566406 -2.785156 1.507812 -2.730469 1.464844 -2.671875 C 1.417969 -2.609375 1.386719 -2.5625 1.367188 -2.527344 L 1.367188 -0.605469 C 1.367188 -0.527344 1.382812 -0.464844 1.414062 -0.414062 C 1.445312 -0.363281 1.492188 -0.324219 1.554688 -0.296875 C 1.605469 -0.277344 1.65625 -0.257812 1.710938 -0.246094 C 1.765625 -0.234375 1.824219 -0.226562 1.882812 -0.222656 L 1.882812 0 L 0.242188 0 L 0.242188 -0.222656 C 0.296875 -0.226562 0.351562 -0.234375 0.40625 -0.238281 C 0.460938 -0.242188 0.507812 -0.25 0.550781 -0.265625 C 0.613281 -0.285156 0.660156 -0.320312 0.691406 -0.371094 C 0.71875 -0.421875 0.734375 -0.488281 0.734375 -0.570312 L 0.734375 -2.632812 C 0.734375 -2.707031 0.71875 -2.777344 0.6875 -2.84375 C 0.652344 -2.90625 0.609375 -2.960938 0.550781 -3 C 0.507812 -3.027344 0.457031 -3.046875 0.398438 -3.058594 C 0.339844 -3.074219 0.273438 -3.082031 0.207031 -3.085938 L 0.207031 -3.308594 L 1.320312 -3.382812 L 1.367188 -3.335938 L 1.367188 -2.863281 L 1.382812 -2.863281 C 1.4375 -2.917969 1.503906 -2.984375 1.585938 -3.058594 C 1.667969 -3.136719 1.746094 -3.199219 1.816406 -3.246094 C 1.902344 -3.300781 2 -3.34375 2.117188 -3.378906 C 2.230469 -3.417969 2.359375 -3.433594 2.503906 -3.433594 C 2.828125 -3.433594 3.066406 -3.335938 3.21875 -3.132812 C 3.375 -2.933594 3.453125 -2.667969 3.453125 -2.335938 L 3.453125 -0.597656 C 3.453125 -0.519531 3.464844 -0.453125 3.492188 -0.40625 C 3.519531 -0.355469 3.566406 -0.320312 3.632812 -0.292969 C 3.6875 -0.269531 3.734375 -0.253906 3.773438 -0.242188 C 3.8125 -0.234375 3.867188 -0.226562 3.9375 -0.222656 Z "/>
</g>
<g id="glyph-0-7">
<path d="M 1.863281 0 L 0.25 0 L 0.25 -0.222656 C 0.304688 -0.226562 0.355469 -0.234375 0.410156 -0.238281 C 0.46875 -0.242188 0.515625 -0.25 0.554688 -0.265625 C 0.621094 -0.285156 0.667969 -0.320312 0.695312 -0.371094 C 0.726562 -0.421875 0.742188 -0.488281 0.742188 -0.570312 L 0.742188 -2.632812 C 0.742188 -2.703125 0.726562 -2.769531 0.695312 -2.828125 C 0.660156 -2.890625 0.613281 -2.941406 0.554688 -2.980469 C 0.511719 -3.007812 0.449219 -3.03125 0.371094 -3.050781 C 0.289062 -3.070312 0.214844 -3.082031 0.144531 -3.085938 L 0.144531 -3.308594 L 1.324219 -3.382812 L 1.375 -3.335938 L 1.375 -0.609375 C 1.375 -0.53125 1.386719 -0.464844 1.417969 -0.414062 C 1.449219 -0.363281 1.496094 -0.324219 1.5625 -0.296875 C 1.609375 -0.277344 1.660156 -0.261719 1.707031 -0.25 C 1.753906 -0.238281 1.804688 -0.226562 1.863281 -0.222656 L 1.863281 0 M 1.441406 -4.703125 C 1.441406 -4.574219 1.398438 -4.460938 1.3125 -4.367188 C 1.230469 -4.269531 1.125 -4.222656 1 -4.222656 C 0.886719 -4.222656 0.785156 -4.265625 0.699219 -4.359375 C 0.617188 -4.449219 0.574219 -4.554688 0.574219 -4.671875 C 0.574219 -4.796875 0.617188 -4.90625 0.699219 -4.996094 C 0.785156 -5.089844 0.886719 -5.136719 1 -5.136719 C 1.128906 -5.136719 1.234375 -5.09375 1.316406 -5.007812 C 1.398438 -4.917969 1.441406 -4.816406 1.441406 -4.703125 Z "/>
</g>
<g id="glyph-0-8">
<path d="M 2.890625 0 L 0.1875 0 L 0.1875 -0.179688 L 2.082031 -3.070312 L 1.613281 -3.070312 C 1.414062 -3.070312 1.261719 -3.066406 1.152344 -3.058594 C 1.039062 -3.050781 0.9375 -3.027344 0.84375 -2.992188 C 0.78125 -2.964844 0.722656 -2.894531 0.667969 -2.777344 C 0.609375 -2.660156 0.5625 -2.503906 0.523438 -2.316406 L 0.316406 -2.316406 L 0.316406 -3.34375 L 2.871094 -3.34375 L 2.871094 -3.203125 L 0.949219 -0.273438 C 1.03125 -0.273438 1.121094 -0.269531 1.21875 -0.269531 C 1.316406 -0.269531 1.421875 -0.269531 1.53125 -0.269531 C 1.625 -0.269531 1.71875 -0.269531 1.816406 -0.269531 C 1.914062 -0.273438 2.039062 -0.277344 2.195312 -0.289062 C 2.285156 -0.292969 2.351562 -0.324219 2.398438 -0.378906 C 2.445312 -0.4375 2.480469 -0.5 2.503906 -0.574219 C 2.53125 -0.636719 2.558594 -0.730469 2.59375 -0.84375 C 2.628906 -0.960938 2.660156 -1.070312 2.6875 -1.179688 L 2.890625 -1.179688 Z "/>
</g>
<g id="glyph-0-9">
<path d="M 5.964844 0 L 4.335938 0 L 4.335938 -0.222656 C 4.386719 -0.226562 4.441406 -0.234375 4.496094 -0.238281 C 4.546875 -0.242188 4.59375 -0.25 4.636719 -0.265625 C 4.699219 -0.285156 4.746094 -0.320312 4.777344 -0.371094 C 4.804688 -0.421875 4.820312 -0.488281 4.820312 -0.570312 L 4.820312 -2.296875 C 4.820312 -2.53125 4.769531 -2.710938 4.660156 -2.839844 C 4.554688 -2.96875 4.417969 -3.03125 4.257812 -3.03125 C 4.148438 -3.03125 4.042969 -3.015625 3.945312 -2.980469 C 3.847656 -2.945312 3.761719 -2.898438 3.679688 -2.839844 C 3.613281 -2.789062 3.558594 -2.734375 3.515625 -2.675781 C 3.46875 -2.621094 3.4375 -2.570312 3.414062 -2.53125 L 3.414062 -0.605469 C 3.414062 -0.523438 3.429688 -0.460938 3.453125 -0.410156 C 3.480469 -0.359375 3.527344 -0.320312 3.59375 -0.292969 C 3.644531 -0.269531 3.691406 -0.257812 3.734375 -0.246094 C 3.777344 -0.234375 3.832031 -0.226562 3.898438 -0.222656 L 3.898438 0 L 2.304688 0 L 2.304688 -0.222656 C 2.359375 -0.226562 2.40625 -0.234375 2.457031 -0.238281 C 2.503906 -0.242188 2.550781 -0.25 2.589844 -0.265625 C 2.652344 -0.285156 2.699219 -0.320312 2.730469 -0.371094 C 2.761719 -0.421875 2.777344 -0.488281 2.777344 -0.570312 L 2.777344 -2.296875 C 2.777344 -2.53125 2.722656 -2.710938 2.617188 -2.839844 C 2.507812 -2.96875 2.375 -3.03125 2.210938 -3.03125 C 2.101562 -3.03125 1.996094 -3.015625 1.898438 -2.980469 C 1.800781 -2.945312 1.714844 -2.894531 1.632812 -2.835938 C 1.566406 -2.785156 1.511719 -2.730469 1.464844 -2.667969 C 1.417969 -2.605469 1.386719 -2.558594 1.363281 -2.527344 L 1.363281 -0.609375 C 1.363281 -0.535156 1.378906 -0.46875 1.410156 -0.417969 C 1.441406 -0.363281 1.488281 -0.324219 1.554688 -0.296875 C 1.601562 -0.277344 1.648438 -0.257812 1.699219 -0.246094 C 1.75 -0.234375 1.804688 -0.226562 1.863281 -0.222656 L 1.863281 0 L 0.242188 0 L 0.242188 -0.222656 C 0.292969 -0.226562 0.347656 -0.234375 0.402344 -0.238281 C 0.457031 -0.242188 0.503906 -0.25 0.546875 -0.265625 C 0.609375 -0.285156 0.65625 -0.320312 0.6875 -0.371094 C 0.71875 -0.421875 0.730469 -0.488281 0.730469 -0.570312 L 0.730469 -2.644531 C 0.730469 -2.71875 0.714844 -2.78125 0.683594 -2.839844 C 0.652344 -2.898438 0.605469 -2.945312 0.546875 -2.988281 C 0.503906 -3.015625 0.449219 -3.035156 0.386719 -3.054688 C 0.324219 -3.070312 0.257812 -3.082031 0.191406 -3.085938 L 0.191406 -3.308594 L 1.308594 -3.382812 L 1.355469 -3.335938 L 1.355469 -2.859375 L 1.378906 -2.859375 C 1.4375 -2.914062 1.503906 -2.980469 1.585938 -3.058594 C 1.667969 -3.136719 1.742188 -3.199219 1.8125 -3.246094 C 1.894531 -3.300781 1.992188 -3.34375 2.109375 -3.378906 C 2.230469 -3.417969 2.359375 -3.433594 2.496094 -3.433594 C 2.710938 -3.433594 2.898438 -3.375 3.054688 -3.261719 C 3.210938 -3.144531 3.324219 -3.003906 3.390625 -2.839844 C 3.472656 -2.917969 3.542969 -2.988281 3.605469 -3.046875 C 3.667969 -3.105469 3.75 -3.171875 3.851562 -3.238281 C 3.9375 -3.296875 4.039062 -3.34375 4.152344 -3.378906 C 4.269531 -3.417969 4.398438 -3.433594 4.542969 -3.433594 C 4.824219 -3.433594 5.046875 -3.34375 5.210938 -3.15625 C 5.375 -2.972656 5.457031 -2.6875 5.457031 -2.300781 L 5.457031 -0.605469 C 5.457031 -0.523438 5.472656 -0.460938 5.5 -0.410156 C 5.527344 -0.359375 5.574219 -0.320312 5.636719 -0.292969 C 5.691406 -0.269531 5.742188 -0.257812 5.792969 -0.246094 C 5.84375 -0.234375 5.902344 -0.226562 5.964844 -0.222656 Z "/>
</g>
<g id="glyph-0-10">
<path d="M 2.453125 -1.636719 C 2.542969 -1.554688 2.617188 -1.460938 2.664062 -1.355469 C 2.714844 -1.25 2.738281 -1.121094 2.738281 -0.964844 C 2.738281 -0.65625 2.625 -0.402344 2.390625 -0.207031 C 2.160156 -0.0117188 1.859375 0.0898438 1.492188 0.0898438 C 1.296875 0.0898438 1.117188 0.0546875 0.953125 -0.015625 C 0.789062 -0.0859375 0.671875 -0.152344 0.605469 -0.210938 L 0.535156 0.0117188 L 0.28125 0.0117188 L 0.246094 -1.152344 L 0.480469 -1.152344 C 0.5 -1.0625 0.539062 -0.960938 0.597656 -0.84375 C 0.65625 -0.726562 0.726562 -0.617188 0.808594 -0.523438 C 0.898438 -0.421875 1.003906 -0.339844 1.128906 -0.273438 C 1.25 -0.203125 1.390625 -0.167969 1.542969 -0.167969 C 1.757812 -0.167969 1.925781 -0.21875 2.042969 -0.316406 C 2.160156 -0.417969 2.222656 -0.558594 2.222656 -0.742188 C 2.222656 -0.835938 2.203125 -0.917969 2.164062 -0.988281 C 2.128906 -1.058594 2.074219 -1.117188 2 -1.167969 C 1.925781 -1.222656 1.835938 -1.269531 1.726562 -1.308594 C 1.617188 -1.351562 1.496094 -1.394531 1.363281 -1.433594 C 1.257812 -1.464844 1.140625 -1.507812 1.007812 -1.566406 C 0.878906 -1.621094 0.765625 -1.683594 0.675781 -1.757812 C 0.574219 -1.839844 0.492188 -1.9375 0.429688 -2.050781 C 0.367188 -2.167969 0.335938 -2.300781 0.335938 -2.457031 C 0.335938 -2.730469 0.4375 -2.964844 0.640625 -3.152344 C 0.84375 -3.34375 1.117188 -3.4375 1.457031 -3.4375 C 1.589844 -3.4375 1.722656 -3.421875 1.859375 -3.386719 C 1.996094 -3.351562 2.109375 -3.3125 2.195312 -3.265625 L 2.273438 -3.441406 L 2.515625 -3.441406 L 2.566406 -2.367188 L 2.332031 -2.367188 C 2.285156 -2.605469 2.183594 -2.804688 2.027344 -2.953125 C 1.867188 -3.105469 1.675781 -3.179688 1.453125 -3.179688 C 1.265625 -3.179688 1.121094 -3.132812 1.015625 -3.039062 C 0.90625 -2.945312 0.855469 -2.835938 0.855469 -2.703125 C 0.855469 -2.601562 0.871094 -2.515625 0.90625 -2.449219 C 0.941406 -2.378906 0.996094 -2.324219 1.066406 -2.273438 C 1.132812 -2.230469 1.21875 -2.1875 1.320312 -2.148438 C 1.421875 -2.109375 1.550781 -2.0625 1.703125 -2.015625 C 1.851562 -1.964844 1.992188 -1.910156 2.125 -1.847656 C 2.257812 -1.785156 2.367188 -1.714844 2.453125 -1.636719 Z "/>
</g>
<g id="glyph-0-11">
</g>
<g id="glyph-0-12">
<path d="M 1.789062 0.0898438 C 1.304688 0.0898438 0.929688 -0.0742188 0.65625 -0.394531 C 0.382812 -0.714844 0.242188 -1.144531 0.242188 -1.683594 C 0.242188 -1.921875 0.28125 -2.140625 0.355469 -2.34375 C 0.429688 -2.550781 0.535156 -2.734375 0.675781 -2.902344 C 0.808594 -3.0625 0.976562 -3.191406 1.175781 -3.289062 C 1.378906 -3.390625 1.597656 -3.4375 1.835938 -3.4375 C 2.160156 -3.4375 2.429688 -3.359375 2.632812 -3.203125 C 2.839844 -3.046875 2.941406 -2.832031 2.941406 -2.558594 C 2.941406 -2.445312 2.914062 -2.347656 2.863281 -2.261719 C 2.808594 -2.171875 2.71875 -2.128906 2.59375 -2.128906 C 2.460938 -2.128906 2.355469 -2.164062 2.285156 -2.230469 C 2.210938 -2.296875 2.171875 -2.375 2.171875 -2.457031 C 2.171875 -2.558594 2.1875 -2.664062 2.214844 -2.769531 C 2.242188 -2.875 2.257812 -2.957031 2.261719 -3.003906 C 2.222656 -3.074219 2.160156 -3.121094 2.082031 -3.144531 C 2 -3.167969 1.914062 -3.179688 1.820312 -3.179688 C 1.714844 -3.179688 1.609375 -3.15625 1.511719 -3.109375 C 1.414062 -3.066406 1.320312 -2.980469 1.226562 -2.855469 C 1.144531 -2.742188 1.074219 -2.589844 1.023438 -2.398438 C 0.972656 -2.203125 0.945312 -1.976562 0.945312 -1.707031 C 0.945312 -1.289062 1.039062 -0.945312 1.226562 -0.679688 C 1.410156 -0.414062 1.65625 -0.28125 1.957031 -0.28125 C 2.175781 -0.28125 2.359375 -0.335938 2.507812 -0.441406 C 2.65625 -0.546875 2.792969 -0.707031 2.917969 -0.921875 L 3.136719 -0.78125 C 2.988281 -0.511719 2.789062 -0.300781 2.546875 -0.144531 C 2.300781 0.0117188 2.050781 0.0898438 1.789062 0.0898438 Z "/>
</g>
<g id="glyph-0-13">
<path d="M 3.90625 -0.0625 L 2.738281 0.0117188 L 2.683594 -0.0351562 L 2.683594 -0.347656 L 2.660156 -0.351562 C 2.539062 -0.222656 2.394531 -0.113281 2.222656 -0.03125 C 2.050781 0.0546875 1.871094 0.09375 1.691406 0.09375 C 1.5 0.09375 1.316406 0.0507812 1.140625 -0.03125 C 0.960938 -0.117188 0.808594 -0.234375 0.675781 -0.390625 C 0.542969 -0.546875 0.4375 -0.734375 0.359375 -0.953125 C 0.28125 -1.171875 0.242188 -1.414062 0.242188 -1.679688 C 0.242188 -1.921875 0.285156 -2.148438 0.371094 -2.367188 C 0.453125 -2.582031 0.566406 -2.773438 0.714844 -2.9375 C 0.851562 -3.085938 1.019531 -3.207031 1.222656 -3.300781 C 1.421875 -3.390625 1.625 -3.433594 1.832031 -3.433594 C 1.988281 -3.433594 2.140625 -3.414062 2.289062 -3.375 C 2.441406 -3.335938 2.570312 -3.285156 2.679688 -3.222656 L 2.679688 -4.390625 C 2.679688 -4.484375 2.664062 -4.570312 2.632812 -4.648438 C 2.597656 -4.726562 2.554688 -4.789062 2.5 -4.828125 C 2.4375 -4.871094 2.351562 -4.902344 2.242188 -4.921875 C 2.136719 -4.941406 2.019531 -4.953125 1.894531 -4.964844 L 1.894531 -5.175781 L 3.265625 -5.25 L 3.316406 -5.199219 L 3.316406 -0.691406 C 3.316406 -0.613281 3.332031 -0.546875 3.363281 -0.488281 C 3.390625 -0.433594 3.4375 -0.386719 3.496094 -0.347656 C 3.539062 -0.320312 3.601562 -0.304688 3.683594 -0.296875 C 3.761719 -0.292969 3.839844 -0.285156 3.90625 -0.285156 L 3.90625 -0.0625 M 2.679688 -0.648438 L 2.679688 -2.605469 C 2.660156 -2.664062 2.632812 -2.726562 2.589844 -2.792969 C 2.550781 -2.863281 2.5 -2.925781 2.4375 -2.980469 C 2.371094 -3.035156 2.296875 -3.082031 2.207031 -3.121094 C 2.121094 -3.160156 2.019531 -3.175781 1.898438 -3.175781 C 1.765625 -3.175781 1.640625 -3.140625 1.527344 -3.070312 C 1.414062 -3 1.3125 -2.902344 1.222656 -2.769531 C 1.140625 -2.644531 1.074219 -2.484375 1.027344 -2.285156 C 0.976562 -2.089844 0.953125 -1.875 0.953125 -1.636719 C 0.953125 -1.449219 0.972656 -1.277344 1.007812 -1.121094 C 1.042969 -0.964844 1.105469 -0.820312 1.191406 -0.6875 C 1.269531 -0.5625 1.371094 -0.460938 1.492188 -0.382812 C 1.617188 -0.304688 1.761719 -0.269531 1.929688 -0.269531 C 2.109375 -0.269531 2.261719 -0.308594 2.378906 -0.386719 C 2.496094 -0.464844 2.597656 -0.550781 2.679688 -0.648438 Z "/>
</g>
<g id="glyph-0-14">
<path d="M 1.8125 0 L 0.179688 0 L 0.179688 -0.222656 C 0.230469 -0.226562 0.285156 -0.234375 0.347656 -0.238281 C 0.40625 -0.246094 0.453125 -0.253906 0.492188 -0.265625 C 0.554688 -0.285156 0.601562 -0.320312 0.632812 -0.371094 C 0.664062 -0.421875 0.679688 -0.488281 0.679688 -0.570312 L 0.679688 -4.445312 C 0.679688 -4.527344 0.664062 -4.601562 0.628906 -4.671875 C 0.59375 -4.746094 0.546875 -4.800781 0.492188 -4.839844 C 0.449219 -4.867188 0.375 -4.894531 0.269531 -4.917969 C 0.160156 -4.9375 0.0742188 -4.953125 0.0078125 -4.957031 L 0.0078125 -5.175781 L 1.265625 -5.25 L 1.3125 -5.199219 L 1.3125 -0.609375 C 1.3125 -0.53125 1.328125 -0.464844 1.355469 -0.414062 C 1.386719 -0.363281 1.433594 -0.324219 1.5 -0.296875 C 1.546875 -0.277344 1.597656 -0.257812 1.644531 -0.246094 C 1.695312 -0.234375 1.75 -0.226562 1.8125 -0.222656 Z "/>
</g>
<g id="glyph-0-15">
<path d="M 3.882812 0 L 2.238281 0 L 2.238281 -0.222656 C 2.289062 -0.226562 2.347656 -0.234375 2.410156 -0.238281 C 2.472656 -0.242188 2.527344 -0.25 2.566406 -0.265625 C 2.628906 -0.285156 2.675781 -0.320312 2.707031 -0.371094 C 2.738281 -0.421875 2.753906 -0.488281 2.753906 -0.570312 L 2.753906 -2.289062 C 2.753906 -2.527344 2.695312 -2.710938 2.585938 -2.839844 C 2.472656 -2.96875 2.335938 -3.03125 2.175781 -3.03125 C 2.058594 -3.03125 1.949219 -3.011719 1.847656 -2.976562 C 1.746094 -2.9375 1.65625 -2.890625 1.578125 -2.839844 C 1.5 -2.78125 1.441406 -2.726562 1.402344 -2.667969 C 1.359375 -2.613281 1.328125 -2.5625 1.304688 -2.527344 L 1.304688 -0.605469 C 1.304688 -0.527344 1.320312 -0.464844 1.351562 -0.414062 C 1.382812 -0.363281 1.429688 -0.324219 1.492188 -0.296875 C 1.542969 -0.277344 1.59375 -0.257812 1.644531 -0.246094 C 1.699219 -0.234375 1.757812 -0.226562 1.820312 -0.222656 L 1.820312 0 L 0.183594 0 L 0.183594 -0.222656 C 0.234375 -0.226562 0.289062 -0.234375 0.34375 -0.238281 C 0.402344 -0.246094 0.449219 -0.253906 0.484375 -0.265625 C 0.550781 -0.285156 0.597656 -0.320312 0.628906 -0.371094 C 0.660156 -0.421875 0.675781 -0.488281 0.675781 -0.570312 L 0.675781 -4.464844 C 0.675781 -4.542969 0.65625 -4.617188 0.621094 -4.695312 C 0.585938 -4.773438 0.542969 -4.832031 0.484375 -4.867188 C 0.445312 -4.898438 0.371094 -4.917969 0.269531 -4.933594 C 0.167969 -4.945312 0.0820312 -4.953125 0.0195312 -4.957031 L 0.0195312 -5.175781 L 1.257812 -5.25 L 1.304688 -5.199219 L 1.304688 -2.863281 L 1.320312 -2.863281 C 1.394531 -2.941406 1.460938 -3.003906 1.523438 -3.0625 C 1.582031 -3.121094 1.664062 -3.179688 1.765625 -3.246094 C 1.851562 -3.300781 1.953125 -3.34375 2.066406 -3.378906 C 2.183594 -3.417969 2.316406 -3.433594 2.460938 -3.433594 C 2.757812 -3.433594 2.988281 -3.339844 3.148438 -3.152344 C 3.308594 -2.960938 3.390625 -2.691406 3.390625 -2.335938 L 3.390625 -0.597656 C 3.390625 -0.519531 3.40625 -0.453125 3.433594 -0.40625 C 3.460938 -0.355469 3.507812 -0.320312 3.574219 -0.292969 C 3.628906 -0.269531 3.675781 -0.257812 3.714844 -0.246094 C 3.757812 -0.234375 3.8125 -0.226562 3.882812 -0.222656 Z "/>
</g>
<g id="glyph-0-16">
<path d="M 2.308594 -0.144531 C 2.160156 -0.0859375 2.023438 -0.0351562 1.890625 0.0078125 C 1.761719 0.0507812 1.601562 0.0703125 1.410156 0.0703125 C 1.128906 0.0703125 0.933594 0 0.820312 -0.140625 C 0.703125 -0.28125 0.648438 -0.480469 0.648438 -0.738281 L 0.648438 -3.003906 L 0.0429688 -3.003906 L 0.0429688 -3.328125 L 0.660156 -3.328125 L 0.660156 -4.371094 L 1.277344 -4.371094 L 1.277344 -3.328125 L 2.238281 -3.328125 L 2.238281 -3.003906 L 1.285156 -3.003906 L 1.285156 -1.136719 C 1.285156 -0.996094 1.289062 -0.878906 1.300781 -0.785156 C 1.308594 -0.691406 1.335938 -0.609375 1.375 -0.539062 C 1.410156 -0.472656 1.464844 -0.425781 1.535156 -0.390625 C 1.609375 -0.355469 1.707031 -0.339844 1.828125 -0.339844 C 1.882812 -0.339844 1.96875 -0.34375 2.078125 -0.355469 C 2.1875 -0.363281 2.265625 -0.378906 2.308594 -0.394531 Z "/>
</g>
<g id="glyph-0-17">
<path d="M 1.550781 -2.894531 C 1.550781 -2.769531 1.503906 -2.660156 1.414062 -2.570312 C 1.320312 -2.480469 1.210938 -2.433594 1.085938 -2.433594 C 0.957031 -2.433594 0.847656 -2.480469 0.757812 -2.570312 C 0.667969 -2.660156 0.621094 -2.769531 0.621094 -2.894531 C 0.621094 -3.019531 0.664062 -3.128906 0.757812 -3.21875 C 0.847656 -3.3125 0.957031 -3.355469 1.085938 -3.355469 C 1.214844 -3.355469 1.324219 -3.3125 1.414062 -3.21875 C 1.503906 -3.128906 1.550781 -3.019531 1.550781 -2.894531 M 1.550781 -0.390625 C 1.550781 -0.261719 1.503906 -0.15625 1.414062 -0.0664062 C 1.320312 0.0234375 1.210938 0.0664062 1.085938 0.0664062 C 0.957031 0.0664062 0.847656 0.0234375 0.757812 -0.0664062 C 0.667969 -0.15625 0.621094 -0.261719 0.621094 -0.390625 C 0.621094 -0.515625 0.667969 -0.625 0.757812 -0.71875 C 0.847656 -0.808594 0.957031 -0.855469 1.085938 -0.855469 C 1.210938 -0.855469 1.320312 -0.808594 1.414062 -0.71875 C 1.503906 -0.625 1.550781 -0.515625 1.550781 -0.390625 Z "/>
</g>
</g>
</defs>
<g fill="rgb(56.470588%, 56.470588%, 56.470588%)" fill-opacity="1">
<use xlink:href="#glyph-0-0" x="30" y="26.367188"/>
<use xlink:href="#glyph-0-1" x="35" y="26.367188"/>
<use xlink:href="#glyph-0-2" x="38" y="26.367188"/>
<use xlink:href="#glyph-0-3" x="42" y="26.367188"/>
<use xlink:href="#glyph-0-4" x="45" y="26.367188"/>
<use xlink:href="#glyph-0-5" x="49" y="26.367188"/>
<use xlink:href="#glyph-0-6" x="52" y="26.367188"/>
<use xlink:href="#glyph-0-7" x="56" y="26.367188"/>
<use xlink:href="#glyph-0-8" x="58" y="26.367188"/>
<use xlink:href="#glyph-0-5" x="61" y="26.367188"/>
<use xlink:href="#glyph-0-9" x="64" y="26.367188"/>
<use xlink:href="#glyph-0-2" x="70" y="26.367188"/>
<use xlink:href="#glyph-0-10" x="74" y="26.367188"/>
<use xlink:href="#glyph-0-11" x="77" y="26.367188"/>
<use xlink:href="#glyph-0-12" x="79" y="26.367188"/>
<use xlink:href="#glyph-0-5" x="82" y="26.367188"/>
<use xlink:href="#glyph-0-13" x="85" y="26.367188"/>
<use xlink:href="#glyph-0-5" x="89" y="26.367188"/>
<use xlink:href="#glyph-0-11" x="92" y="26.367188"/>
<use xlink:href="#glyph-0-12" x="94" y="26.367188"/>
<use xlink:href="#glyph-0-2" x="97" y="26.367188"/>
<use xlink:href="#glyph-0-14" x="101" y="26.367188"/>
<use xlink:href="#glyph-0-12" x="103" y="26.367188"/>
<use xlink:href="#glyph-0-15" x="106" y="26.367188"/>
<use xlink:href="#glyph-0-1" x="110" y="26.367188"/>
<use xlink:href="#glyph-0-16" x="113" y="26.367188"/>
<use xlink:href="#glyph-0-1" x="115" y="26.367188"/>
<use xlink:href="#glyph-0-17" x="118" y="26.367188"/>
</g>
</svg>
