<?xml version="1.0" encoding="UTF-8"?>
<svg xmlns="http://www.w3.org/2000/svg" xmlns:xlink="http://www.w3.org/1999/xlink" width="1920" height="1080" viewBox="0 0 1920 1080">
<defs>
<g>
<g id="glyph-0-0">
<path d="M 2.546875 0.121094 C 2.25 0.121094 1.964844 0.0625 1.691406 -0.0546875 C 1.417969 -0.175781 1.171875 -0.34375 0.960938 -0.566406 C 0.753906 -0.785156 0.585938 -1.054688 0.460938 -1.375 C 0.335938 -1.695312 0.273438 -2.054688 0.273438 -2.453125 C 0.273438 -2.851562 0.335938 -3.214844 0.457031 -3.542969 C 0.582031 -3.867188 0.75 -4.148438 0.964844 -4.382812 C 1.179688 -4.617188 1.433594 -4.796875 1.722656 -4.921875 C 2.015625 -5.050781 2.324219 -5.113281 2.65625 -5.113281 C 2.902344 -5.113281 3.125 -5.082031 3.328125 -5.023438 C 3.527344 -4.960938 3.714844 -4.875 3.898438 -4.765625 L 4.042969 -5.003906 L 4.324219 -5.003906 L 4.355469 -3.21875 L 4.066406 -3.21875 C 4.027344 -3.394531 3.972656 -3.582031 3.898438 -3.785156 C 3.820312 -3.988281 3.734375 -4.160156 3.632812 -4.300781 C 3.519531 -4.460938 3.386719 -4.585938 3.230469 -4.679688 C 3.078125 -4.769531 2.898438 -4.8125 2.699219 -4.8125 C 2.472656 -4.8125 2.261719 -4.761719 2.0625 -4.664062 C 1.867188 -4.5625 1.699219 -4.410156 1.554688 -4.214844 C 1.417969 -4.023438 1.3125 -3.78125 1.234375 -3.488281 C 1.15625 -3.191406 1.117188 -2.863281 1.117188 -2.503906 C 1.117188 -2.183594 1.160156 -1.886719 1.238281 -1.621094 C 1.320312 -1.355469 1.4375 -1.121094 1.585938 -0.917969 C 1.738281 -0.71875 1.914062 -0.5625 2.121094 -0.449219 C 2.324219 -0.335938 2.554688 -0.277344 2.808594 -0.277344 C 3 -0.277344 3.175781 -0.308594 3.332031 -0.367188 C 3.492188 -0.429688 3.632812 -0.507812 3.75 -0.605469 C 3.867188 -0.710938 3.96875 -0.828125 4.058594 -0.960938 C 4.148438 -1.089844 4.222656 -1.234375 4.277344 -1.390625 L 4.542969 -1.261719 C 4.339844 -0.765625 4.074219 -0.410156 3.738281 -0.199219 C 3.40625 0.0117188 3.007812 0.121094 2.546875 0.121094 Z "/>
</g>
</g>
</defs>
<g fill="rgb(100%, 100%, 100%)" fill-opacity="1">
<use xlink:href="#glyph-0-0" x="30" y="26.623047"/>
</g>
</svg>
