<?xml version="1.0" encoding="UTF-8"?>
<svg xmlns="http://www.w3.org/2000/svg" xmlns:xlink="http://www.w3.org/1999/xlink" width="1920" height="1080" viewBox="0 0 1920 1080">
<defs>
<g>
<g id="glyph-0-0">
<path d="M 4.933594 -3.753906 C 4.933594 -3.46875 4.875 -3.226562 4.757812 -3.023438 C 4.644531 -2.820312 4.480469 -2.65625 4.277344 -2.527344 C 4.066406 -2.398438 3.824219 -2.300781 3.554688 -2.242188 C 3.28125 -2.183594 2.976562 -2.15625 2.636719 -2.15625 L 2.230469 -2.15625 L 2.230469 -0.746094 C 2.230469 -0.664062 2.246094 -0.589844 2.277344 -0.527344 C 2.308594 -0.464844 2.367188 -0.414062 2.457031 -0.378906 C 2.503906 -0.359375 2.582031 -0.339844 2.6875 -0.316406 C 2.792969 -0.296875 2.882812 -0.28125 2.957031 -0.273438 L 2.957031 0 L 0.242188 0 L 0.242188 -0.273438 C 0.3125 -0.28125 0.402344 -0.292969 0.515625 -0.304688 C 0.628906 -0.316406 0.707031 -0.332031 0.75 -0.351562 C 0.84375 -0.390625 0.902344 -0.4375 0.933594 -0.488281 C 0.960938 -0.542969 0.976562 -0.621094 0.976562 -0.714844 L 0.976562 -4.246094 C 0.976562 -4.328125 0.960938 -4.398438 0.933594 -4.460938 C 0.90625 -4.519531 0.84375 -4.570312 0.75 -4.609375 C 0.683594 -4.636719 0.597656 -4.664062 0.488281 -4.683594 C 0.378906 -4.707031 0.296875 -4.722656 0.242188 -4.730469 L 0.242188 -5.003906 L 3.003906 -5.003906 C 3.652344 -5.003906 4.132812 -4.902344 4.453125 -4.695312 C 4.773438 -4.488281 4.933594 -4.175781 4.933594 -3.753906 M 3.558594 -3.574219 C 3.558594 -3.949219 3.484375 -4.226562 3.332031 -4.410156 C 3.179688 -4.59375 2.910156 -4.683594 2.523438 -4.683594 L 2.230469 -4.683594 L 2.230469 -2.484375 L 2.378906 -2.484375 C 2.761719 -2.484375 3.054688 -2.574219 3.257812 -2.753906 C 3.457031 -2.929688 3.558594 -3.203125 3.558594 -3.574219 Z "/>
</g>
<g id="glyph-0-1">
<path d="M 3.71875 -2.851562 C 3.71875 -2.675781 3.660156 -2.515625 3.550781 -2.382812 C 3.441406 -2.246094 3.296875 -2.179688 3.113281 -2.179688 C 2.941406 -2.179688 2.796875 -2.222656 2.679688 -2.308594 C 2.558594 -2.394531 2.5 -2.523438 2.5 -2.691406 C 2.5 -2.773438 2.507812 -2.839844 2.519531 -2.882812 C 2.53125 -2.929688 2.539062 -2.972656 2.550781 -3.011719 C 2.441406 -3.007812 2.328125 -2.96875 2.207031 -2.898438 C 2.085938 -2.828125 1.980469 -2.738281 1.890625 -2.621094 L 1.890625 -0.683594 C 1.890625 -0.601562 1.902344 -0.535156 1.929688 -0.480469 C 1.953125 -0.425781 2 -0.382812 2.058594 -0.351562 C 2.109375 -0.328125 2.195312 -0.304688 2.3125 -0.289062 C 2.429688 -0.269531 2.511719 -0.261719 2.5625 -0.257812 L 2.5625 0 L 0.203125 0 L 0.203125 -0.257812 C 0.261719 -0.261719 0.324219 -0.269531 0.382812 -0.277344 C 0.441406 -0.285156 0.492188 -0.296875 0.535156 -0.308594 C 0.609375 -0.335938 0.664062 -0.375 0.691406 -0.429688 C 0.71875 -0.484375 0.734375 -0.554688 0.734375 -0.640625 L 0.734375 -2.695312 C 0.734375 -2.777344 0.714844 -2.855469 0.671875 -2.921875 C 0.632812 -2.988281 0.585938 -3.042969 0.527344 -3.082031 C 0.488281 -3.109375 0.433594 -3.132812 0.367188 -3.152344 C 0.304688 -3.171875 0.234375 -3.183594 0.15625 -3.191406 L 0.15625 -3.449219 L 1.835938 -3.539062 L 1.890625 -3.488281 L 1.890625 -2.976562 L 1.90625 -2.976562 C 2.066406 -3.164062 2.238281 -3.3125 2.421875 -3.417969 C 2.601562 -3.527344 2.792969 -3.578125 2.992188 -3.578125 C 3.210938 -3.578125 3.386719 -3.511719 3.519531 -3.375 C 3.652344 -3.242188 3.71875 -3.066406 3.71875 -2.851562 Z "/>
</g>
<g id="glyph-0-2">
<path d="M 3.804688 -3.082031 C 3.980469 -2.921875 4.113281 -2.726562 4.203125 -2.5 C 4.296875 -2.273438 4.339844 -2.03125 4.339844 -1.765625 C 4.339844 -1.507812 4.296875 -1.257812 4.207031 -1.027344 C 4.113281 -0.796875 3.984375 -0.597656 3.808594 -0.433594 C 3.625 -0.257812 3.402344 -0.121094 3.144531 -0.0273438 C 2.886719 0.0664062 2.59375 0.113281 2.261719 0.113281 C 1.972656 0.113281 1.710938 0.0703125 1.46875 -0.0117188 C 1.226562 -0.09375 1.015625 -0.214844 0.828125 -0.382812 C 0.648438 -0.539062 0.507812 -0.734375 0.40625 -0.964844 C 0.300781 -1.195312 0.25 -1.457031 0.25 -1.742188 C 0.25 -2.023438 0.296875 -2.273438 0.386719 -2.496094 C 0.476562 -2.714844 0.613281 -2.910156 0.792969 -3.082031 C 0.96875 -3.246094 1.183594 -3.375 1.4375 -3.464844 C 1.691406 -3.554688 1.976562 -3.601562 2.292969 -3.601562 C 2.621094 -3.601562 2.910156 -3.554688 3.160156 -3.464844 C 3.410156 -3.375 3.625 -3.246094 3.804688 -3.082031 M 2.902344 -0.636719 C 2.953125 -0.769531 2.992188 -0.929688 3.015625 -1.117188 C 3.042969 -1.304688 3.054688 -1.523438 3.054688 -1.773438 C 3.054688 -1.9375 3.042969 -2.125 3.019531 -2.339844 C 2.996094 -2.550781 2.960938 -2.714844 2.914062 -2.839844 C 2.855469 -2.988281 2.777344 -3.101562 2.679688 -3.1875 C 2.578125 -3.273438 2.453125 -3.316406 2.300781 -3.316406 C 2.132812 -3.316406 2 -3.269531 1.898438 -3.175781 C 1.800781 -3.085938 1.722656 -2.96875 1.667969 -2.820312 C 1.617188 -2.6875 1.585938 -2.53125 1.566406 -2.351562 C 1.546875 -2.171875 1.539062 -1.984375 1.539062 -1.789062 C 1.539062 -1.53125 1.546875 -1.320312 1.5625 -1.152344 C 1.578125 -0.984375 1.617188 -0.816406 1.683594 -0.644531 C 1.734375 -0.5 1.8125 -0.382812 1.914062 -0.300781 C 2.015625 -0.214844 2.144531 -0.171875 2.300781 -0.171875 C 2.441406 -0.171875 2.5625 -0.210938 2.664062 -0.289062 C 2.765625 -0.371094 2.84375 -0.484375 2.902344 -0.636719 Z "/>
</g>
<g id="glyph-0-3">
<path d="M 4.410156 -1.722656 C 4.410156 -1.195312 4.238281 -0.757812 3.886719 -0.410156 C 3.539062 -0.0625 3.097656 0.113281 2.558594 0.113281 C 2.351562 0.113281 2.175781 0.0976562 2.027344 0.0703125 C 1.875 0.0390625 1.75 0.00390625 1.648438 -0.0390625 C 1.539062 -0.0820312 1.453125 -0.128906 1.386719 -0.171875 C 1.324219 -0.214844 1.273438 -0.25 1.234375 -0.277344 L 0.730469 0.179688 L 0.523438 0.0976562 C 0.535156 -0.0742188 0.542969 -0.257812 0.550781 -0.460938 C 0.558594 -0.660156 0.5625 -0.933594 0.5625 -1.273438 L 0.5625 -4.574219 C 0.5625 -4.664062 0.546875 -4.746094 0.507812 -4.824219 C 0.472656 -4.898438 0.425781 -4.957031 0.363281 -4.996094 C 0.320312 -5.027344 0.253906 -5.050781 0.167969 -5.070312 C 0.0820312 -5.09375 0.00390625 -5.105469 -0.0703125 -5.109375 L -0.0703125 -5.367188 L 1.675781 -5.460938 L 1.726562 -5.402344 L 1.726562 -3.109375 L 1.75 -3.109375 C 1.921875 -3.277344 2.097656 -3.398438 2.277344 -3.476562 C 2.457031 -3.554688 2.640625 -3.59375 2.820312 -3.59375 C 3.3125 -3.59375 3.703125 -3.425781 3.984375 -3.089844 C 4.269531 -2.753906 4.410156 -2.296875 4.410156 -1.722656 M 3.144531 -1.683594 C 3.144531 -1.859375 3.132812 -2.03125 3.105469 -2.199219 C 3.078125 -2.363281 3.035156 -2.511719 2.96875 -2.636719 C 2.90625 -2.765625 2.824219 -2.867188 2.71875 -2.941406 C 2.617188 -3.019531 2.488281 -3.058594 2.335938 -3.058594 C 2.195312 -3.058594 2.074219 -3.035156 1.980469 -2.988281 C 1.886719 -2.941406 1.804688 -2.871094 1.726562 -2.777344 L 1.726562 -0.726562 C 1.742188 -0.679688 1.769531 -0.617188 1.808594 -0.542969 C 1.847656 -0.464844 1.886719 -0.40625 1.925781 -0.363281 C 1.980469 -0.300781 2.042969 -0.253906 2.105469 -0.222656 C 2.167969 -0.191406 2.257812 -0.175781 2.371094 -0.175781 C 2.609375 -0.175781 2.800781 -0.308594 2.9375 -0.570312 C 3.078125 -0.832031 3.144531 -1.203125 3.144531 -1.683594 Z "/>
</g>
<g id="glyph-0-4">
<path d="M 2.359375 0 L 0.136719 0 L 0.136719 -0.257812 C 0.199219 -0.261719 0.257812 -0.269531 0.316406 -0.273438 C 0.375 -0.28125 0.425781 -0.292969 0.472656 -0.308594 C 0.546875 -0.339844 0.597656 -0.378906 0.625 -0.433594 C 0.652344 -0.484375 0.667969 -0.554688 0.667969 -0.640625 L 0.667969 -4.550781 C 0.667969 -4.640625 0.648438 -4.722656 0.613281 -4.796875 C 0.574219 -4.875 0.527344 -4.933594 0.464844 -4.972656 C 0.417969 -5.003906 0.347656 -5.03125 0.253906 -5.0625 C 0.15625 -5.089844 0.0742188 -5.105469 0 -5.109375 L 0 -5.367188 L 1.777344 -5.460938 L 1.832031 -5.402344 L 1.832031 -0.6875 C 1.832031 -0.601562 1.847656 -0.53125 1.875 -0.476562 C 1.90625 -0.421875 1.957031 -0.378906 2.027344 -0.347656 C 2.074219 -0.328125 2.121094 -0.308594 2.175781 -0.292969 C 2.226562 -0.277344 2.289062 -0.265625 2.359375 -0.257812 Z "/>
</g>
<g id="glyph-0-5">
<path d="M 3.996094 -0.84375 C 3.914062 -0.707031 3.8125 -0.582031 3.699219 -0.464844 C 3.582031 -0.34375 3.449219 -0.242188 3.300781 -0.160156 C 3.144531 -0.0703125 2.984375 0 2.824219 0.0429688 C 2.660156 0.0898438 2.476562 0.113281 2.269531 0.113281 C 1.917969 0.113281 1.621094 0.0625 1.367188 -0.0351562 C 1.113281 -0.132812 0.90625 -0.265625 0.742188 -0.433594 C 0.574219 -0.601562 0.453125 -0.796875 0.371094 -1.023438 C 0.289062 -1.25 0.25 -1.496094 0.25 -1.761719 C 0.25 -2.003906 0.292969 -2.234375 0.382812 -2.453125 C 0.472656 -2.671875 0.597656 -2.867188 0.757812 -3.039062 C 0.917969 -3.207031 1.121094 -3.34375 1.363281 -3.445312 C 1.605469 -3.550781 1.878906 -3.601562 2.179688 -3.601562 C 2.507812 -3.601562 2.777344 -3.5625 2.992188 -3.480469 C 3.203125 -3.402344 3.378906 -3.289062 3.515625 -3.148438 C 3.648438 -3.015625 3.746094 -2.855469 3.808594 -2.675781 C 3.871094 -2.492188 3.902344 -2.300781 3.902344 -2.101562 L 3.902344 -1.871094 L 1.515625 -1.871094 C 1.515625 -1.390625 1.609375 -1.023438 1.796875 -0.773438 C 1.980469 -0.519531 2.277344 -0.394531 2.679688 -0.394531 C 2.902344 -0.394531 3.101562 -0.457031 3.277344 -0.578125 C 3.453125 -0.699219 3.601562 -0.851562 3.726562 -1.035156 L 3.996094 -0.84375 M 2.648438 -2.183594 C 2.648438 -2.324219 2.640625 -2.46875 2.628906 -2.617188 C 2.613281 -2.765625 2.589844 -2.886719 2.554688 -2.980469 C 2.511719 -3.089844 2.457031 -3.175781 2.390625 -3.230469 C 2.320312 -3.285156 2.230469 -3.316406 2.125 -3.316406 C 1.945312 -3.316406 1.800781 -3.222656 1.691406 -3.039062 C 1.585938 -2.855469 1.527344 -2.566406 1.515625 -2.167969 Z "/>
</g>
<g id="glyph-0-6">
<path d="M 7.207031 0 L 5.113281 0 L 5.113281 -0.257812 C 5.164062 -0.265625 5.21875 -0.269531 5.273438 -0.273438 C 5.332031 -0.28125 5.378906 -0.292969 5.414062 -0.308594 C 5.464844 -0.332031 5.5 -0.375 5.511719 -0.429688 C 5.527344 -0.484375 5.535156 -0.554688 5.535156 -0.640625 L 5.535156 -2.289062 C 5.535156 -2.53125 5.492188 -2.710938 5.402344 -2.832031 C 5.316406 -2.953125 5.195312 -3.015625 5.035156 -3.015625 C 4.933594 -3.015625 4.84375 -3 4.765625 -2.96875 C 4.683594 -2.9375 4.613281 -2.898438 4.546875 -2.847656 C 4.476562 -2.800781 4.425781 -2.75 4.386719 -2.703125 C 4.351562 -2.652344 4.316406 -2.609375 4.292969 -2.574219 L 4.292969 -0.679688 C 4.292969 -0.597656 4.300781 -0.527344 4.320312 -0.472656 C 4.339844 -0.421875 4.378906 -0.378906 4.433594 -0.347656 C 4.46875 -0.328125 4.511719 -0.308594 4.558594 -0.292969 C 4.605469 -0.277344 4.65625 -0.265625 4.710938 -0.257812 L 4.710938 0 L 2.707031 0 L 2.707031 -0.257812 C 2.753906 -0.261719 2.804688 -0.269531 2.871094 -0.273438 C 2.933594 -0.28125 2.980469 -0.292969 3.007812 -0.308594 C 3.058594 -0.335938 3.089844 -0.375 3.105469 -0.421875 C 3.121094 -0.472656 3.128906 -0.546875 3.128906 -0.640625 L 3.128906 -2.289062 C 3.128906 -2.53125 3.085938 -2.710938 3 -2.832031 C 2.914062 -2.953125 2.789062 -3.015625 2.628906 -3.015625 C 2.527344 -3.015625 2.4375 -3 2.359375 -2.96875 C 2.28125 -2.9375 2.207031 -2.898438 2.140625 -2.847656 C 2.074219 -2.800781 2.019531 -2.75 1.980469 -2.703125 C 1.945312 -2.652344 1.914062 -2.609375 1.886719 -2.574219 L 1.886719 -0.679688 C 1.886719 -0.597656 1.898438 -0.53125 1.917969 -0.476562 C 1.941406 -0.421875 1.976562 -0.378906 2.03125 -0.347656 C 2.070312 -0.328125 2.113281 -0.308594 2.160156 -0.292969 C 2.207031 -0.277344 2.257812 -0.265625 2.3125 -0.257812 L 2.3125 0 L 0.199219 0 L 0.199219 -0.257812 C 0.261719 -0.261719 0.320312 -0.269531 0.382812 -0.273438 C 0.441406 -0.28125 0.488281 -0.292969 0.53125 -0.308594 C 0.609375 -0.339844 0.660156 -0.378906 0.6875 -0.433594 C 0.714844 -0.484375 0.730469 -0.554688 0.730469 -0.640625 L 0.730469 -2.695312 C 0.730469 -2.769531 0.710938 -2.84375 0.671875 -2.914062 C 0.628906 -2.988281 0.582031 -3.042969 0.527344 -3.082031 C 0.484375 -3.109375 0.429688 -3.132812 0.363281 -3.152344 C 0.300781 -3.171875 0.230469 -3.183594 0.152344 -3.191406 L 0.152344 -3.449219 L 1.832031 -3.539062 L 1.886719 -3.488281 L 1.886719 -2.992188 L 1.902344 -2.992188 C 1.964844 -3.050781 2.042969 -3.121094 2.136719 -3.199219 C 2.226562 -3.28125 2.3125 -3.347656 2.390625 -3.394531 C 2.476562 -3.453125 2.589844 -3.5 2.726562 -3.539062 C 2.863281 -3.574219 3.011719 -3.59375 3.175781 -3.59375 C 3.441406 -3.59375 3.664062 -3.535156 3.847656 -3.417969 C 4.027344 -3.304688 4.152344 -3.148438 4.226562 -2.957031 L 4.261719 -2.957031 C 4.328125 -3.019531 4.410156 -3.09375 4.511719 -3.179688 C 4.609375 -3.265625 4.699219 -3.332031 4.78125 -3.386719 C 4.875 -3.445312 4.992188 -3.492188 5.132812 -3.535156 C 5.273438 -3.574219 5.425781 -3.59375 5.589844 -3.59375 C 5.945312 -3.59375 6.21875 -3.488281 6.410156 -3.28125 C 6.601562 -3.070312 6.695312 -2.773438 6.695312 -2.386719 L 6.695312 -0.671875 C 6.695312 -0.585938 6.710938 -0.515625 6.734375 -0.464844 C 6.761719 -0.410156 6.808594 -0.371094 6.878906 -0.34375 C 6.914062 -0.324219 6.960938 -0.308594 7.015625 -0.292969 C 7.070312 -0.277344 7.136719 -0.265625 7.207031 -0.257812 Z "/>
</g>
<g id="glyph-0-7">
<path d="M 4.234375 -0.0742188 C 4.132812 -0.03125 4.011719 0.0117188 3.871094 0.0507812 C 3.730469 0.0859375 3.578125 0.105469 3.421875 0.105469 C 3.132812 0.105469 2.921875 0.0625 2.785156 -0.0234375 C 2.648438 -0.109375 2.558594 -0.230469 2.507812 -0.390625 L 2.484375 -0.390625 C 2.40625 -0.3125 2.328125 -0.242188 2.253906 -0.1875 C 2.179688 -0.128906 2.101562 -0.0820312 2.015625 -0.0429688 C 1.90625 0.0078125 1.800781 0.046875 1.695312 0.0742188 C 1.59375 0.101562 1.453125 0.113281 1.269531 0.113281 C 0.996094 0.113281 0.761719 0.03125 0.566406 -0.128906 C 0.375 -0.289062 0.277344 -0.503906 0.277344 -0.769531 C 0.277344 -0.921875 0.300781 -1.054688 0.34375 -1.160156 C 0.382812 -1.265625 0.445312 -1.363281 0.523438 -1.445312 C 0.59375 -1.519531 0.675781 -1.582031 0.769531 -1.632812 C 0.859375 -1.679688 0.960938 -1.726562 1.074219 -1.769531 C 1.285156 -1.847656 1.539062 -1.929688 1.835938 -2.011719 C 2.132812 -2.09375 2.351562 -2.171875 2.484375 -2.234375 L 2.484375 -2.574219 C 2.484375 -2.632812 2.480469 -2.710938 2.472656 -2.808594 C 2.460938 -2.902344 2.441406 -2.984375 2.414062 -3.050781 C 2.378906 -3.125 2.328125 -3.1875 2.257812 -3.242188 C 2.1875 -3.292969 2.09375 -3.320312 1.976562 -3.320312 C 1.875 -3.320312 1.789062 -3.304688 1.71875 -3.273438 C 1.648438 -3.246094 1.59375 -3.214844 1.550781 -3.183594 C 1.558594 -3.136719 1.578125 -3.066406 1.613281 -2.96875 C 1.644531 -2.875 1.660156 -2.78125 1.660156 -2.691406 C 1.660156 -2.652344 1.652344 -2.601562 1.628906 -2.539062 C 1.609375 -2.480469 1.578125 -2.433594 1.539062 -2.398438 C 1.484375 -2.351562 1.421875 -2.316406 1.355469 -2.289062 C 1.289062 -2.261719 1.183594 -2.25 1.046875 -2.25 C 0.847656 -2.25 0.699219 -2.296875 0.597656 -2.394531 C 0.496094 -2.488281 0.445312 -2.613281 0.445312 -2.765625 C 0.445312 -2.898438 0.496094 -3.015625 0.601562 -3.121094 C 0.707031 -3.222656 0.832031 -3.308594 0.984375 -3.378906 C 1.132812 -3.449219 1.300781 -3.503906 1.496094 -3.542969 C 1.6875 -3.582031 1.867188 -3.601562 2.03125 -3.601562 C 2.257812 -3.601562 2.46875 -3.585938 2.660156 -3.558594 C 2.847656 -3.53125 3.019531 -3.476562 3.175781 -3.394531 C 3.320312 -3.308594 3.4375 -3.191406 3.519531 -3.035156 C 3.605469 -2.878906 3.648438 -2.675781 3.648438 -2.421875 C 3.648438 -2.15625 3.644531 -1.84375 3.632812 -1.476562 C 3.625 -1.113281 3.617188 -0.875 3.617188 -0.757812 C 3.617188 -0.652344 3.632812 -0.570312 3.664062 -0.507812 C 3.699219 -0.445312 3.746094 -0.402344 3.8125 -0.371094 C 3.851562 -0.351562 3.914062 -0.339844 4 -0.335938 C 4.085938 -0.332031 4.164062 -0.332031 4.234375 -0.332031 L 4.234375 -0.0742188 M 2.484375 -1.910156 C 2.355469 -1.867188 2.222656 -1.816406 2.09375 -1.757812 C 1.964844 -1.699219 1.859375 -1.640625 1.773438 -1.574219 C 1.6875 -1.507812 1.621094 -1.425781 1.570312 -1.324219 C 1.519531 -1.21875 1.496094 -1.097656 1.496094 -0.960938 C 1.496094 -0.777344 1.539062 -0.644531 1.621094 -0.5625 C 1.703125 -0.480469 1.808594 -0.4375 1.929688 -0.4375 C 2.058594 -0.4375 2.167969 -0.464844 2.25 -0.515625 C 2.335938 -0.570312 2.410156 -0.636719 2.472656 -0.714844 Z "/>
</g>
<g id="glyph-0-8">
<path d="M 2.023438 -2.816406 C 2.023438 -2.632812 1.957031 -2.472656 1.816406 -2.335938 C 1.679688 -2.199219 1.519531 -2.128906 1.328125 -2.128906 C 1.140625 -2.128906 0.976562 -2.199219 0.835938 -2.332031 C 0.699219 -2.46875 0.632812 -2.628906 0.632812 -2.816406 C 0.632812 -3.007812 0.699219 -3.167969 0.835938 -3.304688 C 0.976562 -3.445312 1.140625 -3.511719 1.328125 -3.511719 C 1.519531 -3.511719 1.679688 -3.441406 1.816406 -3.304688 C 1.957031 -3.164062 2.023438 -3.003906 2.023438 -2.816406 M 2.023438 -0.585938 C 2.023438 -0.398438 1.957031 -0.238281 1.816406 -0.101562 C 1.679688 0.0351562 1.519531 0.101562 1.328125 0.101562 C 1.140625 0.101562 0.976562 0.0351562 0.835938 -0.101562 C 0.699219 -0.234375 0.632812 -0.398438 0.632812 -0.585938 C 0.632812 -0.773438 0.699219 -0.9375 0.835938 -1.074219 C 0.976562 -1.210938 1.140625 -1.28125 1.328125 -1.28125 C 1.519531 -1.28125 1.679688 -1.210938 1.816406 -1.070312 C 1.957031 -0.933594 2.023438 -0.769531 2.023438 -0.585938 Z "/>
</g>
</g>
</defs>
<g fill="rgb(91.764706%, 16.862745%, 12.156863%)" fill-opacity="1">
<use xlink:href="#glyph-0-0" x="30" y="26.623047"/>
<use xlink:href="#glyph-0-1" x="35" y="26.623047"/>
<use xlink:href="#glyph-0-2" x="39" y="26.623047"/>
<use xlink:href="#glyph-0-3" x="44" y="26.623047"/>
<use xlink:href="#glyph-0-4" x="49" y="26.623047"/>
<use xlink:href="#glyph-0-5" x="51" y="26.623047"/>
<use xlink:href="#glyph-0-6" x="55" y="26.623047"/>
<use xlink:href="#glyph-0-7" x="62" y="26.623047"/>
<use xlink:href="#glyph-0-8" x="66" y="26.623047"/>
</g>
</svg>
