<?xml version="1.0" encoding="UTF-8"?>
<svg xmlns="http://www.w3.org/2000/svg" xmlns:xlink="http://www.w3.org/1999/xlink" width="1920" height="1080" viewBox="0 0 1920 1080">
<defs>
<g>
<g id="glyph-0-0">
<path d="M 6.363281 -5.816406 C 6.6875 -5.519531 6.941406 -5.164062 7.132812 -4.746094 C 7.320312 -4.328125 7.414062 -3.851562 7.414062 -3.316406 C 7.414062 -2.839844 7.335938 -2.386719 7.175781 -1.957031 C 7.015625 -1.523438 6.785156 -1.15625 6.484375 -0.84375 C 6.167969 -0.519531 5.792969 -0.269531 5.367188 -0.0898438 C 4.941406 0.0898438 4.429688 0.179688 3.839844 0.179688 C 3.363281 0.179688 2.914062 0.101562 2.488281 -0.0546875 C 2.066406 -0.210938 1.691406 -0.441406 1.371094 -0.738281 C 1.050781 -1.03125 0.796875 -1.386719 0.609375 -1.804688 C 0.421875 -2.222656 0.328125 -2.6875 0.328125 -3.199219 C 0.328125 -3.734375 0.417969 -4.21875 0.601562 -4.65625 C 0.785156 -5.089844 1.035156 -5.464844 1.355469 -5.773438 C 1.671875 -6.078125 2.046875 -6.3125 2.484375 -6.476562 C 2.917969 -6.640625 3.382812 -6.722656 3.875 -6.722656 C 4.363281 -6.722656 4.820312 -6.644531 5.25 -6.484375 C 5.679688 -6.324219 6.050781 -6.101562 6.363281 -5.816406 M 5.179688 -1.132812 C 5.316406 -1.410156 5.417969 -1.726562 5.476562 -2.082031 C 5.539062 -2.4375 5.570312 -2.835938 5.570312 -3.285156 C 5.570312 -3.660156 5.542969 -4.03125 5.488281 -4.390625 C 5.4375 -4.75 5.34375 -5.066406 5.214844 -5.347656 C 5.082031 -5.628906 4.90625 -5.851562 4.691406 -6.023438 C 4.472656 -6.191406 4.199219 -6.277344 3.875 -6.277344 C 3.316406 -6.277344 2.894531 -6.011719 2.605469 -5.484375 C 2.316406 -4.957031 2.171875 -4.210938 2.171875 -3.246094 C 2.171875 -2.835938 2.203125 -2.449219 2.265625 -2.085938 C 2.328125 -1.722656 2.429688 -1.40625 2.5625 -1.136719 C 2.703125 -0.863281 2.878906 -0.648438 3.089844 -0.496094 C 3.300781 -0.34375 3.5625 -0.265625 3.875 -0.265625 C 4.179688 -0.265625 4.4375 -0.34375 4.65625 -0.5 C 4.875 -0.652344 5.050781 -0.863281 5.179688 -1.132812 Z "/>
</g>
<g id="glyph-0-1">
</g>
<g id="glyph-0-2">
<path d="M 3.699219 -0.210938 C 3.5 -0.125 3.289062 -0.046875 3.066406 0.0195312 C 2.84375 0.0898438 2.570312 0.125 2.246094 0.125 C 1.765625 0.125 1.410156 0.0078125 1.179688 -0.226562 C 0.945312 -0.457031 0.828125 -0.792969 0.828125 -1.226562 L 0.828125 -4.054688 L 0 -4.054688 L 0 -4.554688 L 0.847656 -4.554688 L 0.847656 -5.953125 L 2.34375 -5.953125 L 2.34375 -4.554688 L 3.636719 -4.554688 L 3.636719 -4.054688 L 2.351562 -4.054688 L 2.351562 -1.53125 C 2.351562 -1.171875 2.402344 -0.914062 2.503906 -0.765625 C 2.601562 -0.613281 2.78125 -0.539062 3.042969 -0.539062 C 3.125 -0.539062 3.238281 -0.546875 3.386719 -0.558594 C 3.535156 -0.570312 3.640625 -0.585938 3.699219 -0.597656 Z "/>
</g>
<g id="glyph-0-3">
<path d="M 4.859375 -3.730469 C 4.859375 -3.496094 4.789062 -3.292969 4.644531 -3.113281 C 4.5 -2.9375 4.308594 -2.851562 4.070312 -2.851562 C 3.847656 -2.851562 3.65625 -2.90625 3.503906 -3.019531 C 3.347656 -3.132812 3.269531 -3.300781 3.269531 -3.519531 C 3.269531 -3.628906 3.277344 -3.710938 3.292969 -3.769531 C 3.308594 -3.832031 3.320312 -3.886719 3.335938 -3.9375 C 3.191406 -3.933594 3.042969 -3.882812 2.886719 -3.792969 C 2.730469 -3.699219 2.589844 -3.578125 2.472656 -3.425781 L 2.472656 -0.894531 C 2.472656 -0.785156 2.488281 -0.699219 2.523438 -0.628906 C 2.554688 -0.554688 2.613281 -0.5 2.691406 -0.460938 C 2.761719 -0.425781 2.871094 -0.398438 3.023438 -0.375 C 3.175781 -0.351562 3.285156 -0.339844 3.351562 -0.335938 L 3.351562 0 L 0.265625 0 L 0.265625 -0.335938 C 0.34375 -0.34375 0.421875 -0.351562 0.5 -0.363281 C 0.578125 -0.371094 0.644531 -0.386719 0.699219 -0.40625 C 0.800781 -0.441406 0.867188 -0.492188 0.902344 -0.5625 C 0.941406 -0.632812 0.960938 -0.726562 0.960938 -0.839844 L 0.960938 -3.523438 C 0.960938 -3.632812 0.933594 -3.734375 0.878906 -3.820312 C 0.828125 -3.90625 0.765625 -3.976562 0.691406 -4.03125 C 0.636719 -4.066406 0.566406 -4.097656 0.480469 -4.121094 C 0.398438 -4.148438 0.304688 -4.164062 0.203125 -4.171875 L 0.203125 -4.511719 L 2.402344 -4.628906 L 2.472656 -4.5625 L 2.472656 -3.890625 L 2.488281 -3.890625 C 2.703125 -4.136719 2.925781 -4.332031 3.164062 -4.46875 C 3.402344 -4.609375 3.652344 -4.679688 3.910156 -4.679688 C 4.195312 -4.679688 4.425781 -4.59375 4.601562 -4.414062 C 4.773438 -4.238281 4.859375 -4.011719 4.859375 -3.730469 Z "/>
</g>
<g id="glyph-0-4">
<path d="M 3.183594 0 L 0.265625 0 L 0.265625 -0.335938 C 0.347656 -0.34375 0.425781 -0.351562 0.503906 -0.359375 C 0.578125 -0.367188 0.644531 -0.382812 0.699219 -0.40625 C 0.800781 -0.441406 0.867188 -0.496094 0.910156 -0.566406 C 0.949219 -0.632812 0.96875 -0.726562 0.96875 -0.839844 L 0.96875 -3.523438 C 0.96875 -3.628906 0.945312 -3.726562 0.894531 -3.808594 C 0.84375 -3.886719 0.785156 -3.953125 0.710938 -4.003906 C 0.65625 -4.039062 0.570312 -4.074219 0.457031 -4.109375 C 0.347656 -4.140625 0.246094 -4.164062 0.152344 -4.171875 L 0.152344 -4.511719 L 2.410156 -4.628906 L 2.480469 -4.5625 L 2.480469 -0.898438 C 2.480469 -0.792969 2.503906 -0.699219 2.550781 -0.625 C 2.597656 -0.550781 2.664062 -0.492188 2.75 -0.457031 C 2.808594 -0.429688 2.878906 -0.402344 2.953125 -0.382812 C 3.023438 -0.359375 3.101562 -0.347656 3.183594 -0.335938 L 3.183594 0 M 2.507812 -6.289062 C 2.507812 -6.054688 2.417969 -5.855469 2.238281 -5.691406 C 2.058594 -5.527344 1.847656 -5.445312 1.601562 -5.445312 C 1.351562 -5.445312 1.136719 -5.527344 0.957031 -5.691406 C 0.777344 -5.855469 0.6875 -6.054688 0.6875 -6.289062 C 0.6875 -6.523438 0.777344 -6.722656 0.957031 -6.890625 C 1.136719 -7.054688 1.351562 -7.136719 1.601562 -7.136719 C 1.847656 -7.136719 2.0625 -7.054688 2.242188 -6.890625 C 2.417969 -6.722656 2.507812 -6.523438 2.507812 -6.289062 Z "/>
</g>
<g id="glyph-0-5">
<path d="M 5.539062 -0.0976562 C 5.402344 -0.0390625 5.242188 0.015625 5.058594 0.0664062 C 4.875 0.113281 4.679688 0.136719 4.476562 0.136719 C 4.097656 0.136719 3.820312 0.0820312 3.640625 -0.03125 C 3.464844 -0.140625 3.34375 -0.304688 3.277344 -0.511719 L 3.25 -0.511719 C 3.144531 -0.40625 3.046875 -0.316406 2.949219 -0.246094 C 2.851562 -0.171875 2.746094 -0.109375 2.636719 -0.0546875 C 2.492188 0.0117188 2.351562 0.0625 2.21875 0.0976562 C 2.085938 0.128906 1.898438 0.148438 1.65625 0.148438 C 1.300781 0.148438 0.996094 0.0429688 0.742188 -0.167969 C 0.492188 -0.378906 0.363281 -0.660156 0.363281 -1.007812 C 0.363281 -1.207031 0.390625 -1.378906 0.449219 -1.515625 C 0.503906 -1.65625 0.582031 -1.78125 0.683594 -1.890625 C 0.773438 -1.988281 0.882812 -2.070312 1.003906 -2.132812 C 1.125 -2.199219 1.257812 -2.257812 1.402344 -2.3125 C 1.679688 -2.414062 2.011719 -2.519531 2.402344 -2.628906 C 2.789062 -2.738281 3.074219 -2.835938 3.25 -2.921875 L 3.25 -3.367188 C 3.25 -3.441406 3.246094 -3.542969 3.234375 -3.671875 C 3.21875 -3.796875 3.195312 -3.902344 3.152344 -3.988281 C 3.109375 -4.085938 3.042969 -4.171875 2.949219 -4.238281 C 2.859375 -4.304688 2.738281 -4.339844 2.585938 -4.339844 C 2.453125 -4.339844 2.339844 -4.320312 2.246094 -4.28125 C 2.15625 -4.242188 2.082031 -4.203125 2.027344 -4.164062 C 2.039062 -4.101562 2.0625 -4.007812 2.105469 -3.882812 C 2.148438 -3.757812 2.171875 -3.636719 2.171875 -3.519531 C 2.171875 -3.464844 2.15625 -3.402344 2.128906 -3.324219 C 2.101562 -3.242188 2.0625 -3.183594 2.011719 -3.136719 C 1.9375 -3.074219 1.859375 -3.027344 1.773438 -2.992188 C 1.683594 -2.957031 1.550781 -2.941406 1.367188 -2.941406 C 1.109375 -2.941406 0.914062 -3.003906 0.78125 -3.128906 C 0.648438 -3.253906 0.582031 -3.414062 0.582031 -3.617188 C 0.582031 -3.789062 0.648438 -3.941406 0.785156 -4.078125 C 0.921875 -4.214844 1.089844 -4.328125 1.285156 -4.417969 C 1.480469 -4.511719 1.703125 -4.582031 1.957031 -4.632812 C 2.207031 -4.683594 2.441406 -4.707031 2.65625 -4.707031 C 2.953125 -4.707031 3.226562 -4.691406 3.476562 -4.65625 C 3.726562 -4.621094 3.949219 -4.546875 4.148438 -4.4375 C 4.339844 -4.328125 4.492188 -4.171875 4.605469 -3.96875 C 4.714844 -3.761719 4.773438 -3.496094 4.773438 -3.167969 C 4.773438 -2.820312 4.765625 -2.410156 4.753906 -1.933594 C 4.738281 -1.457031 4.730469 -1.140625 4.730469 -0.992188 C 4.730469 -0.851562 4.753906 -0.742188 4.792969 -0.664062 C 4.835938 -0.585938 4.898438 -0.523438 4.984375 -0.484375 C 5.039062 -0.460938 5.121094 -0.445312 5.230469 -0.441406 C 5.34375 -0.4375 5.445312 -0.433594 5.539062 -0.433594 L 5.539062 -0.0976562 M 3.25 -2.5 C 3.078125 -2.441406 2.90625 -2.375 2.738281 -2.296875 C 2.566406 -2.222656 2.429688 -2.144531 2.320312 -2.058594 C 2.207031 -1.972656 2.117188 -1.863281 2.050781 -1.730469 C 1.988281 -1.59375 1.957031 -1.4375 1.957031 -1.257812 C 1.957031 -1.015625 2.011719 -0.839844 2.121094 -0.734375 C 2.230469 -0.625 2.363281 -0.570312 2.523438 -0.570312 C 2.695312 -0.570312 2.832031 -0.605469 2.941406 -0.675781 C 3.054688 -0.746094 3.148438 -0.832031 3.234375 -0.933594 Z "/>
</g>
<g id="glyph-0-6">
<path d="M 6.355469 0 L 3.582031 0 L 3.582031 -0.335938 C 3.640625 -0.34375 3.710938 -0.351562 3.796875 -0.359375 C 3.878906 -0.367188 3.941406 -0.382812 3.984375 -0.40625 C 4.046875 -0.441406 4.09375 -0.488281 4.121094 -0.554688 C 4.148438 -0.617188 4.164062 -0.714844 4.164062 -0.839844 L 4.164062 -2.996094 C 4.164062 -3.3125 4.105469 -3.546875 3.992188 -3.707031 C 3.875 -3.863281 3.703125 -3.941406 3.480469 -3.941406 C 3.355469 -3.941406 3.242188 -3.925781 3.136719 -3.886719 C 3.027344 -3.851562 2.925781 -3.796875 2.824219 -3.726562 C 2.734375 -3.664062 2.660156 -3.601562 2.609375 -3.535156 C 2.554688 -3.472656 2.507812 -3.414062 2.472656 -3.367188 L 2.472656 -0.890625 C 2.472656 -0.78125 2.488281 -0.691406 2.519531 -0.621094 C 2.546875 -0.546875 2.597656 -0.492188 2.671875 -0.457031 C 2.71875 -0.429688 2.78125 -0.402344 2.855469 -0.382812 C 2.929688 -0.359375 3 -0.347656 3.070312 -0.335938 L 3.070312 0 L 0.265625 0 L 0.265625 -0.335938 C 0.34375 -0.34375 0.421875 -0.351562 0.5 -0.363281 C 0.578125 -0.371094 0.644531 -0.386719 0.699219 -0.40625 C 0.800781 -0.441406 0.867188 -0.492188 0.902344 -0.5625 C 0.941406 -0.632812 0.960938 -0.726562 0.960938 -0.839844 L 0.960938 -3.523438 C 0.960938 -3.617188 0.933594 -3.710938 0.886719 -3.804688 C 0.835938 -3.898438 0.773438 -3.972656 0.691406 -4.03125 C 0.636719 -4.066406 0.566406 -4.097656 0.480469 -4.121094 C 0.398438 -4.148438 0.304688 -4.164062 0.203125 -4.171875 L 0.203125 -4.511719 L 2.402344 -4.628906 L 2.472656 -4.5625 L 2.472656 -3.890625 L 2.488281 -3.890625 C 2.578125 -3.96875 2.679688 -4.0625 2.804688 -4.167969 C 2.925781 -4.277344 3.039062 -4.363281 3.144531 -4.429688 C 3.257812 -4.503906 3.40625 -4.566406 3.59375 -4.621094 C 3.777344 -4.671875 3.972656 -4.699219 4.183594 -4.699219 C 4.683594 -4.699219 5.058594 -4.558594 5.308594 -4.273438 C 5.558594 -3.988281 5.6875 -3.609375 5.6875 -3.140625 L 5.6875 -0.878906 C 5.6875 -0.765625 5.703125 -0.675781 5.738281 -0.609375 C 5.769531 -0.542969 5.832031 -0.488281 5.925781 -0.449219 C 5.976562 -0.425781 6.035156 -0.402344 6.109375 -0.382812 C 6.179688 -0.359375 6.261719 -0.347656 6.355469 -0.335938 Z "/>
</g>
<g id="glyph-0-7">
<path d="M 5.433594 -4.058594 L 4.417969 -4.058594 C 4.539062 -3.921875 4.628906 -3.78125 4.6875 -3.632812 C 4.746094 -3.480469 4.777344 -3.324219 4.777344 -3.164062 C 4.777344 -2.953125 4.71875 -2.753906 4.605469 -2.566406 C 4.492188 -2.378906 4.34375 -2.230469 4.160156 -2.113281 C 3.972656 -1.992188 3.753906 -1.898438 3.5 -1.832031 C 3.246094 -1.761719 2.972656 -1.730469 2.679688 -1.730469 L 1.925781 -1.730469 C 1.890625 -1.703125 1.851562 -1.65625 1.804688 -1.597656 C 1.761719 -1.535156 1.738281 -1.480469 1.738281 -1.421875 C 1.738281 -1.285156 1.792969 -1.191406 1.898438 -1.140625 C 2.007812 -1.085938 2.203125 -1.058594 2.484375 -1.050781 C 2.765625 -1.046875 3.046875 -1.035156 3.335938 -1.015625 C 3.621094 -1 3.824219 -0.988281 3.949219 -0.988281 C 4.125 -0.976562 4.300781 -0.941406 4.476562 -0.878906 C 4.652344 -0.816406 4.804688 -0.734375 4.933594 -0.632812 C 5.074219 -0.523438 5.191406 -0.386719 5.285156 -0.21875 C 5.375 -0.0507812 5.421875 0.140625 5.421875 0.359375 C 5.421875 0.59375 5.367188 0.8125 5.253906 1.019531 C 5.140625 1.226562 4.972656 1.402344 4.742188 1.554688 C 4.496094 1.710938 4.207031 1.832031 3.867188 1.917969 C 3.527344 2.003906 3.105469 2.046875 2.605469 2.046875 C 1.796875 2.046875 1.183594 1.949219 0.761719 1.753906 C 0.339844 1.554688 0.128906 1.261719 0.128906 0.867188 C 0.128906 0.625 0.242188 0.425781 0.46875 0.265625 C 0.699219 0.109375 1.050781 0.0234375 1.53125 0.0078125 L 1.53125 -0.046875 C 1.246094 -0.140625 1.027344 -0.269531 0.867188 -0.425781 C 0.710938 -0.585938 0.632812 -0.769531 0.632812 -0.980469 C 0.632812 -1.109375 0.664062 -1.21875 0.726562 -1.308594 C 0.789062 -1.398438 0.871094 -1.476562 0.96875 -1.542969 C 1.054688 -1.601562 1.160156 -1.652344 1.28125 -1.695312 C 1.40625 -1.734375 1.507812 -1.769531 1.589844 -1.792969 L 1.589844 -1.84375 C 1.175781 -2 0.871094 -2.1875 0.675781 -2.40625 C 0.480469 -2.628906 0.382812 -2.898438 0.382812 -3.21875 C 0.382812 -3.671875 0.589844 -4.03125 1.007812 -4.300781 C 1.425781 -4.574219 1.953125 -4.707031 2.589844 -4.707031 C 2.800781 -4.707031 3.003906 -4.691406 3.199219 -4.65625 C 3.394531 -4.621094 3.542969 -4.589844 3.644531 -4.5625 L 5.433594 -4.5625 L 5.433594 -4.058594 M 3.269531 -3.183594 C 3.269531 -3.542969 3.210938 -3.824219 3.097656 -4.035156 C 2.984375 -4.242188 2.808594 -4.347656 2.570312 -4.347656 C 2.449219 -4.347656 2.34375 -4.320312 2.257812 -4.261719 C 2.167969 -4.207031 2.09375 -4.125 2.039062 -4.015625 C 1.984375 -3.910156 1.949219 -3.789062 1.933594 -3.648438 C 1.914062 -3.511719 1.90625 -3.367188 1.90625 -3.21875 C 1.90625 -2.882812 1.964844 -2.609375 2.082031 -2.394531 C 2.199219 -2.179688 2.363281 -2.070312 2.578125 -2.070312 C 2.800781 -2.070312 2.972656 -2.167969 3.089844 -2.359375 C 3.210938 -2.554688 3.269531 -2.828125 3.269531 -3.183594 M 4.039062 0.695312 C 4.039062 0.589844 4.011719 0.488281 3.953125 0.386719 C 3.894531 0.28125 3.761719 0.199219 3.5625 0.132812 C 3.449219 0.117188 3.269531 0.101562 3.015625 0.0976562 C 2.761719 0.0898438 2.414062 0.0859375 1.972656 0.0859375 C 1.867188 0.179688 1.777344 0.289062 1.703125 0.414062 C 1.632812 0.542969 1.59375 0.691406 1.59375 0.871094 C 1.59375 0.949219 1.617188 1.03125 1.660156 1.125 C 1.703125 1.21875 1.769531 1.304688 1.863281 1.382812 C 1.96875 1.472656 2.089844 1.542969 2.222656 1.59375 C 2.351562 1.644531 2.554688 1.667969 2.820312 1.667969 C 3.214844 1.667969 3.519531 1.59375 3.726562 1.4375 C 3.933594 1.285156 4.039062 1.039062 4.039062 0.695312 Z "/>
</g>
<g id="glyph-0-8">
<path d="M 6.28125 -0.0976562 L 4.082031 0.0351562 L 4.011719 -0.0273438 L 4.011719 -0.632812 L 3.984375 -0.632812 C 3.878906 -0.535156 3.777344 -0.445312 3.679688 -0.351562 C 3.578125 -0.261719 3.460938 -0.179688 3.320312 -0.105469 C 3.164062 -0.0234375 3.015625 0.0390625 2.875 0.078125 C 2.738281 0.117188 2.535156 0.136719 2.265625 0.136719 C 1.804688 0.136719 1.449219 0 1.199219 -0.28125 C 0.953125 -0.5625 0.828125 -0.957031 0.828125 -1.464844 L 0.828125 -3.542969 C 0.828125 -3.660156 0.808594 -3.757812 0.761719 -3.835938 C 0.714844 -3.910156 0.65625 -3.976562 0.578125 -4.035156 C 0.515625 -4.082031 0.4375 -4.113281 0.339844 -4.132812 C 0.242188 -4.152344 0.152344 -4.167969 0.0742188 -4.171875 L 0.0742188 -4.511719 L 2.300781 -4.628906 L 2.351562 -4.5625 L 2.351562 -1.492188 C 2.351562 -1.175781 2.414062 -0.945312 2.535156 -0.792969 C 2.65625 -0.640625 2.820312 -0.566406 3.035156 -0.566406 C 3.253906 -0.566406 3.449219 -0.625 3.621094 -0.738281 C 3.796875 -0.851562 3.921875 -0.972656 4.003906 -1.101562 L 4.003906 -3.585938 C 4.003906 -3.691406 3.984375 -3.785156 3.941406 -3.867188 C 3.902344 -3.953125 3.84375 -4.019531 3.765625 -4.070312 C 3.710938 -4.109375 3.632812 -4.132812 3.53125 -4.144531 C 3.425781 -4.15625 3.320312 -4.167969 3.214844 -4.171875 L 3.214844 -4.511719 L 5.453125 -4.628906 L 5.523438 -4.5625 L 5.523438 -1 C 5.523438 -0.894531 5.546875 -0.800781 5.589844 -0.726562 C 5.632812 -0.652344 5.695312 -0.585938 5.777344 -0.535156 C 5.835938 -0.496094 5.910156 -0.472656 6.003906 -0.457031 C 6.097656 -0.445312 6.1875 -0.4375 6.28125 -0.433594 Z "/>
</g>
<g id="glyph-0-9">
<path d="M 3.085938 0 L 0.179688 0 L 0.179688 -0.335938 C 0.261719 -0.34375 0.339844 -0.351562 0.414062 -0.359375 C 0.488281 -0.367188 0.558594 -0.382812 0.617188 -0.40625 C 0.714844 -0.441406 0.78125 -0.496094 0.816406 -0.566406 C 0.855469 -0.632812 0.871094 -0.726562 0.871094 -0.839844 L 0.871094 -5.949219 C 0.871094 -6.066406 0.847656 -6.171875 0.800781 -6.273438 C 0.753906 -6.375 0.6875 -6.449219 0.609375 -6.503906 C 0.546875 -6.542969 0.453125 -6.582031 0.328125 -6.617188 C 0.207031 -6.652344 0.09375 -6.675781 0 -6.683594 L 0 -7.019531 L 2.324219 -7.136719 L 2.394531 -7.066406 L 2.394531 -0.898438 C 2.394531 -0.785156 2.414062 -0.691406 2.453125 -0.621094 C 2.492188 -0.550781 2.558594 -0.496094 2.648438 -0.457031 C 2.710938 -0.429688 2.777344 -0.402344 2.84375 -0.382812 C 2.910156 -0.359375 2.992188 -0.347656 3.085938 -0.335938 Z "/>
</g>
<g id="glyph-0-10">
<path d="M 4.976562 -4.03125 C 5.203125 -3.816406 5.375 -3.566406 5.496094 -3.269531 C 5.617188 -2.972656 5.675781 -2.65625 5.675781 -2.308594 C 5.675781 -1.96875 5.617188 -1.648438 5.5 -1.34375 C 5.378906 -1.042969 5.207031 -0.78125 4.980469 -0.566406 C 4.738281 -0.335938 4.449219 -0.160156 4.109375 -0.0351562 C 3.773438 0.0859375 3.390625 0.148438 2.957031 0.148438 C 2.582031 0.148438 2.234375 0.09375 1.921875 -0.015625 C 1.605469 -0.121094 1.328125 -0.28125 1.082031 -0.496094 C 0.851562 -0.703125 0.664062 -0.957031 0.53125 -1.261719 C 0.394531 -1.5625 0.328125 -1.902344 0.328125 -2.277344 C 0.328125 -2.648438 0.386719 -2.976562 0.503906 -3.261719 C 0.625 -3.550781 0.800781 -3.804688 1.039062 -4.03125 C 1.265625 -4.246094 1.546875 -4.414062 1.878906 -4.53125 C 2.210938 -4.648438 2.585938 -4.707031 2.996094 -4.707031 C 3.429688 -4.707031 3.808594 -4.648438 4.132812 -4.53125 C 4.460938 -4.414062 4.742188 -4.246094 4.976562 -4.03125 M 3.796875 -0.835938 C 3.863281 -1.007812 3.914062 -1.214844 3.945312 -1.460938 C 3.976562 -1.707031 3.992188 -1.992188 3.992188 -2.320312 C 3.992188 -2.535156 3.976562 -2.78125 3.949219 -3.058594 C 3.917969 -3.335938 3.871094 -3.550781 3.808594 -3.710938 C 3.734375 -3.90625 3.632812 -4.058594 3.503906 -4.167969 C 3.371094 -4.28125 3.207031 -4.335938 3.007812 -4.335938 C 2.789062 -4.335938 2.613281 -4.273438 2.484375 -4.15625 C 2.351562 -4.035156 2.25 -3.878906 2.179688 -3.6875 C 2.117188 -3.515625 2.070312 -3.308594 2.046875 -3.074219 C 2.023438 -2.839844 2.011719 -2.59375 2.011719 -2.339844 C 2.011719 -2.003906 2.019531 -1.726562 2.042969 -1.503906 C 2.0625 -1.285156 2.117188 -1.066406 2.199219 -0.84375 C 2.269531 -0.652344 2.371094 -0.503906 2.503906 -0.390625 C 2.636719 -0.28125 2.804688 -0.226562 3.007812 -0.226562 C 3.191406 -0.226562 3.347656 -0.277344 3.480469 -0.378906 C 3.613281 -0.484375 3.71875 -0.636719 3.796875 -0.835938 Z "/>
</g>
<g id="glyph-0-11">
<path d="M 5.226562 -1.101562 C 5.117188 -0.925781 4.988281 -0.761719 4.835938 -0.605469 C 4.683594 -0.449219 4.511719 -0.316406 4.316406 -0.207031 C 4.109375 -0.0898438 3.902344 -0.00390625 3.691406 0.0585938 C 3.480469 0.117188 3.238281 0.148438 2.964844 0.148438 C 2.511719 0.148438 2.117188 0.0820312 1.785156 -0.046875 C 1.457031 -0.175781 1.183594 -0.347656 0.96875 -0.566406 C 0.753906 -0.785156 0.59375 -1.042969 0.488281 -1.339844 C 0.378906 -1.636719 0.328125 -1.957031 0.328125 -2.304688 C 0.328125 -2.621094 0.386719 -2.917969 0.5 -3.207031 C 0.617188 -3.496094 0.78125 -3.75 0.992188 -3.976562 C 1.199219 -4.191406 1.464844 -4.371094 1.78125 -4.503906 C 2.101562 -4.640625 2.457031 -4.707031 2.851562 -4.707031 C 3.28125 -4.707031 3.632812 -4.65625 3.910156 -4.550781 C 4.1875 -4.445312 4.417969 -4.300781 4.597656 -4.117188 C 4.773438 -3.941406 4.898438 -3.734375 4.980469 -3.496094 C 5.058594 -3.257812 5.101562 -3.007812 5.101562 -2.75 L 5.101562 -2.449219 L 1.984375 -2.449219 C 1.984375 -1.820312 2.105469 -1.339844 2.347656 -1.011719 C 2.589844 -0.679688 2.976562 -0.515625 3.503906 -0.515625 C 3.792969 -0.515625 4.054688 -0.59375 4.285156 -0.753906 C 4.515625 -0.914062 4.710938 -1.113281 4.875 -1.355469 L 5.226562 -1.101562 M 3.464844 -2.855469 C 3.464844 -3.039062 3.453125 -3.226562 3.433594 -3.421875 C 3.417969 -3.617188 3.382812 -3.773438 3.339844 -3.898438 C 3.285156 -4.042969 3.214844 -4.148438 3.125 -4.222656 C 3.035156 -4.296875 2.917969 -4.335938 2.78125 -4.335938 C 2.542969 -4.335938 2.355469 -4.214844 2.214844 -3.976562 C 2.070312 -3.734375 1.996094 -3.355469 1.984375 -2.835938 Z "/>
</g>
<g id="glyph-0-12">
<path d="M 6.261719 0 L 3.492188 0 L 3.492188 -0.335938 C 3.550781 -0.34375 3.625 -0.351562 3.707031 -0.359375 C 3.789062 -0.367188 3.851562 -0.382812 3.890625 -0.40625 C 3.957031 -0.441406 4 -0.488281 4.027344 -0.554688 C 4.054688 -0.617188 4.066406 -0.714844 4.066406 -0.839844 L 4.066406 -2.996094 C 4.066406 -3.3125 4.007812 -3.550781 3.890625 -3.707031 C 3.769531 -3.863281 3.601562 -3.941406 3.382812 -3.941406 C 3.261719 -3.941406 3.148438 -3.925781 3.042969 -3.886719 C 2.933594 -3.851562 2.832031 -3.796875 2.730469 -3.726562 C 2.640625 -3.664062 2.570312 -3.601562 2.515625 -3.535156 C 2.460938 -3.472656 2.417969 -3.414062 2.378906 -3.367188 L 2.378906 -0.890625 C 2.378906 -0.777344 2.394531 -0.6875 2.421875 -0.621094 C 2.449219 -0.554688 2.5 -0.5 2.578125 -0.457031 C 2.625 -0.429688 2.683594 -0.402344 2.761719 -0.382812 C 2.835938 -0.359375 2.910156 -0.347656 2.980469 -0.335938 L 2.980469 0 L 0.164062 0 L 0.164062 -0.335938 C 0.246094 -0.34375 0.324219 -0.351562 0.402344 -0.359375 C 0.476562 -0.367188 0.542969 -0.382812 0.601562 -0.40625 C 0.703125 -0.441406 0.769531 -0.496094 0.804688 -0.566406 C 0.839844 -0.632812 0.859375 -0.726562 0.859375 -0.839844 L 0.859375 -5.980469 C 0.859375 -6.078125 0.835938 -6.183594 0.789062 -6.292969 C 0.742188 -6.40625 0.679688 -6.488281 0.59375 -6.542969 C 0.535156 -6.582031 0.445312 -6.613281 0.328125 -6.636719 C 0.210938 -6.660156 0.105469 -6.675781 0.015625 -6.683594 L 0.015625 -7.019531 L 2.308594 -7.136719 L 2.378906 -7.066406 L 2.378906 -3.890625 L 2.398438 -3.890625 C 2.515625 -3.996094 2.621094 -4.089844 2.714844 -4.175781 C 2.808594 -4.261719 2.921875 -4.34375 3.054688 -4.429688 C 3.171875 -4.503906 3.316406 -4.566406 3.5 -4.621094 C 3.683594 -4.671875 3.878906 -4.699219 4.09375 -4.699219 C 4.589844 -4.699219 4.964844 -4.554688 5.214844 -4.269531 C 5.464844 -3.984375 5.589844 -3.609375 5.589844 -3.140625 L 5.589844 -0.878906 C 5.589844 -0.765625 5.605469 -0.675781 5.640625 -0.609375 C 5.671875 -0.542969 5.738281 -0.488281 5.828125 -0.449219 C 5.882812 -0.421875 5.945312 -0.402344 6.011719 -0.382812 C 6.082031 -0.363281 6.164062 -0.347656 6.261719 -0.335938 Z "/>
</g>
</g>
</defs>
<g fill="rgb(30.980392%, 76.470588%, 96.862745%)" fill-opacity="1">
<use xlink:href="#glyph-0-0" x="30" y="28.65918"/>
<use xlink:href="#glyph-0-1" x="38" y="28.65918"/>
<use xlink:href="#glyph-0-2" x="40" y="28.65918"/>
<use xlink:href="#glyph-0-3" x="44" y="28.65918"/>
<use xlink:href="#glyph-0-4" x="49" y="28.65918"/>
<use xlink:href="#glyph-0-5" x="52" y="28.65918"/>
<use xlink:href="#glyph-0-6" x="58" y="28.65918"/>
<use xlink:href="#glyph-0-7" x="65" y="28.65918"/>
<use xlink:href="#glyph-0-8" x="70" y="28.65918"/>
<use xlink:href="#glyph-0-9" x="76" y="28.65918"/>
<use xlink:href="#glyph-0-10" x="79" y="28.65918"/>
<use xlink:href="#glyph-0-1" x="85" y="28.65918"/>
<use xlink:href="#glyph-0-11" x="87" y="28.65918"/>
<use xlink:href="#glyph-0-1" x="92" y="28.65918"/>
<use xlink:href="#glyph-0-5" x="94" y="28.65918"/>
<use xlink:href="#glyph-0-1" x="100" y="28.65918"/>
<use xlink:href="#glyph-0-5" x="102" y="28.65918"/>
<use xlink:href="#glyph-0-9" x="108" y="28.65918"/>
<use xlink:href="#glyph-0-2" x="111" y="28.65918"/>
<use xlink:href="#glyph-0-8" x="115" y="28.65918"/>
<use xlink:href="#glyph-0-3" x="121" y="28.65918"/>
<use xlink:href="#glyph-0-5" x="126" y="28.65918"/>
<use xlink:href="#glyph-0-1" x="132" y="28.65918"/>
<use xlink:href="#glyph-0-12" x="134" y="28.65918"/>
</g>
</svg>
