<?xml version="1.0" encoding="UTF-8"?>
<svg xmlns="http://www.w3.org/2000/svg" xmlns:xlink="http://www.w3.org/1999/xlink" width="1920" height="1080" viewBox="0 0 1920 1080">
<defs>
<g>
<g id="glyph-0-0">
<path d="M 5.675781 0 L 2.949219 0 L 2.949219 -0.273438 C 3.074219 -0.285156 3.222656 -0.308594 3.394531 -0.34375 C 3.566406 -0.378906 3.652344 -0.425781 3.652344 -0.480469 C 3.652344 -0.5 3.652344 -0.519531 3.648438 -0.542969 C 3.644531 -0.566406 3.632812 -0.597656 3.617188 -0.636719 L 3.191406 -1.675781 L 1.460938 -1.675781 C 1.421875 -1.578125 1.378906 -1.464844 1.332031 -1.335938 C 1.28125 -1.207031 1.242188 -1.09375 1.207031 -0.992188 C 1.160156 -0.859375 1.136719 -0.765625 1.128906 -0.707031 C 1.121094 -0.648438 1.113281 -0.605469 1.113281 -0.582031 C 1.113281 -0.507812 1.171875 -0.441406 1.285156 -0.390625 C 1.398438 -0.335938 1.589844 -0.296875 1.855469 -0.273438 L 1.855469 0 L -0.199219 0 L -0.199219 -0.273438 C -0.121094 -0.28125 -0.03125 -0.292969 0.0664062 -0.3125 C 0.164062 -0.332031 0.238281 -0.359375 0.296875 -0.394531 C 0.394531 -0.453125 0.472656 -0.519531 0.542969 -0.601562 C 0.609375 -0.683594 0.664062 -0.78125 0.707031 -0.894531 C 0.980469 -1.554688 1.253906 -2.21875 1.527344 -2.882812 C 1.800781 -3.542969 2.105469 -4.277344 2.4375 -5.074219 L 3.140625 -5.074219 C 3.601562 -3.941406 3.964844 -3.046875 4.226562 -2.386719 C 4.484375 -1.730469 4.707031 -1.183594 4.890625 -0.75 C 4.921875 -0.679688 4.960938 -0.617188 5.007812 -0.558594 C 5.054688 -0.5 5.121094 -0.445312 5.207031 -0.394531 C 5.273438 -0.355469 5.351562 -0.328125 5.4375 -0.308594 C 5.523438 -0.292969 5.605469 -0.28125 5.675781 -0.273438 L 5.675781 0 M 3.042969 -2.023438 L 2.320312 -3.832031 L 1.605469 -2.023438 Z "/>
</g>
<g id="glyph-0-1">
<path d="M 3.71875 -2.851562 C 3.71875 -2.675781 3.660156 -2.515625 3.550781 -2.382812 C 3.441406 -2.246094 3.296875 -2.179688 3.113281 -2.179688 C 2.941406 -2.179688 2.796875 -2.222656 2.679688 -2.308594 C 2.558594 -2.394531 2.5 -2.523438 2.5 -2.691406 C 2.5 -2.773438 2.507812 -2.839844 2.519531 -2.882812 C 2.53125 -2.929688 2.539062 -2.972656 2.550781 -3.011719 C 2.441406 -3.007812 2.328125 -2.96875 2.207031 -2.898438 C 2.085938 -2.828125 1.980469 -2.738281 1.890625 -2.621094 L 1.890625 -0.683594 C 1.890625 -0.601562 1.902344 -0.535156 1.929688 -0.480469 C 1.953125 -0.425781 2 -0.382812 2.058594 -0.351562 C 2.109375 -0.328125 2.195312 -0.304688 2.3125 -0.289062 C 2.429688 -0.269531 2.511719 -0.261719 2.5625 -0.257812 L 2.5625 0 L 0.203125 0 L 0.203125 -0.257812 C 0.261719 -0.261719 0.324219 -0.269531 0.382812 -0.277344 C 0.441406 -0.285156 0.492188 -0.296875 0.535156 -0.308594 C 0.609375 -0.335938 0.664062 -0.375 0.691406 -0.429688 C 0.71875 -0.484375 0.734375 -0.554688 0.734375 -0.640625 L 0.734375 -2.695312 C 0.734375 -2.777344 0.714844 -2.855469 0.671875 -2.921875 C 0.632812 -2.988281 0.585938 -3.042969 0.527344 -3.082031 C 0.488281 -3.109375 0.433594 -3.132812 0.367188 -3.152344 C 0.304688 -3.171875 0.234375 -3.183594 0.15625 -3.191406 L 0.15625 -3.449219 L 1.835938 -3.539062 L 1.890625 -3.488281 L 1.890625 -2.976562 L 1.90625 -2.976562 C 2.066406 -3.164062 2.238281 -3.3125 2.421875 -3.417969 C 2.601562 -3.527344 2.792969 -3.578125 2.992188 -3.578125 C 3.210938 -3.578125 3.386719 -3.511719 3.519531 -3.375 C 3.652344 -3.242188 3.71875 -3.066406 3.71875 -2.851562 Z "/>
</g>
<g id="glyph-0-2">
<path d="M 3.996094 -0.84375 C 3.914062 -0.707031 3.8125 -0.582031 3.699219 -0.464844 C 3.582031 -0.34375 3.449219 -0.242188 3.300781 -0.160156 C 3.144531 -0.0703125 2.984375 0 2.824219 0.0429688 C 2.660156 0.0898438 2.476562 0.113281 2.269531 0.113281 C 1.917969 0.113281 1.621094 0.0625 1.367188 -0.0351562 C 1.113281 -0.132812 0.90625 -0.265625 0.742188 -0.433594 C 0.574219 -0.601562 0.453125 -0.796875 0.371094 -1.023438 C 0.289062 -1.25 0.25 -1.496094 0.25 -1.761719 C 0.25 -2.003906 0.292969 -2.234375 0.382812 -2.453125 C 0.472656 -2.671875 0.597656 -2.867188 0.757812 -3.039062 C 0.917969 -3.207031 1.121094 -3.34375 1.363281 -3.445312 C 1.605469 -3.550781 1.878906 -3.601562 2.179688 -3.601562 C 2.507812 -3.601562 2.777344 -3.5625 2.992188 -3.480469 C 3.203125 -3.402344 3.378906 -3.289062 3.515625 -3.148438 C 3.648438 -3.015625 3.746094 -2.855469 3.808594 -2.675781 C 3.871094 -2.492188 3.902344 -2.300781 3.902344 -2.101562 L 3.902344 -1.871094 L 1.515625 -1.871094 C 1.515625 -1.390625 1.609375 -1.023438 1.796875 -0.773438 C 1.980469 -0.519531 2.277344 -0.394531 2.679688 -0.394531 C 2.902344 -0.394531 3.101562 -0.457031 3.277344 -0.578125 C 3.453125 -0.699219 3.601562 -0.851562 3.726562 -1.035156 L 3.996094 -0.84375 M 2.648438 -2.183594 C 2.648438 -2.324219 2.640625 -2.46875 2.628906 -2.617188 C 2.613281 -2.765625 2.589844 -2.886719 2.554688 -2.980469 C 2.511719 -3.089844 2.457031 -3.175781 2.390625 -3.230469 C 2.320312 -3.285156 2.230469 -3.316406 2.125 -3.316406 C 1.945312 -3.316406 1.800781 -3.222656 1.691406 -3.039062 C 1.585938 -2.855469 1.527344 -2.566406 1.515625 -2.167969 Z "/>
</g>
<g id="glyph-0-3">
<path d="M 4.234375 -0.0742188 C 4.132812 -0.03125 4.011719 0.0117188 3.871094 0.0507812 C 3.730469 0.0859375 3.578125 0.105469 3.421875 0.105469 C 3.132812 0.105469 2.921875 0.0625 2.785156 -0.0234375 C 2.648438 -0.109375 2.558594 -0.230469 2.507812 -0.390625 L 2.484375 -0.390625 C 2.40625 -0.3125 2.328125 -0.242188 2.253906 -0.1875 C 2.179688 -0.128906 2.101562 -0.0820312 2.015625 -0.0429688 C 1.90625 0.0078125 1.800781 0.046875 1.695312 0.0742188 C 1.59375 0.101562 1.453125 0.113281 1.269531 0.113281 C 0.996094 0.113281 0.761719 0.03125 0.566406 -0.128906 C 0.375 -0.289062 0.277344 -0.503906 0.277344 -0.769531 C 0.277344 -0.921875 0.300781 -1.054688 0.34375 -1.160156 C 0.382812 -1.265625 0.445312 -1.363281 0.523438 -1.445312 C 0.59375 -1.519531 0.675781 -1.582031 0.769531 -1.632812 C 0.859375 -1.679688 0.960938 -1.726562 1.074219 -1.769531 C 1.285156 -1.847656 1.539062 -1.929688 1.835938 -2.011719 C 2.132812 -2.09375 2.351562 -2.171875 2.484375 -2.234375 L 2.484375 -2.574219 C 2.484375 -2.632812 2.480469 -2.710938 2.472656 -2.808594 C 2.460938 -2.902344 2.441406 -2.984375 2.414062 -3.050781 C 2.378906 -3.125 2.328125 -3.1875 2.257812 -3.242188 C 2.1875 -3.292969 2.09375 -3.320312 1.976562 -3.320312 C 1.875 -3.320312 1.789062 -3.304688 1.71875 -3.273438 C 1.648438 -3.246094 1.59375 -3.214844 1.550781 -3.183594 C 1.558594 -3.136719 1.578125 -3.066406 1.613281 -2.96875 C 1.644531 -2.875 1.660156 -2.78125 1.660156 -2.691406 C 1.660156 -2.652344 1.652344 -2.601562 1.628906 -2.539062 C 1.609375 -2.480469 1.578125 -2.433594 1.539062 -2.398438 C 1.484375 -2.351562 1.421875 -2.316406 1.355469 -2.289062 C 1.289062 -2.261719 1.183594 -2.25 1.046875 -2.25 C 0.847656 -2.25 0.699219 -2.296875 0.597656 -2.394531 C 0.496094 -2.488281 0.445312 -2.613281 0.445312 -2.765625 C 0.445312 -2.898438 0.496094 -3.015625 0.601562 -3.121094 C 0.707031 -3.222656 0.832031 -3.308594 0.984375 -3.378906 C 1.132812 -3.449219 1.300781 -3.503906 1.496094 -3.542969 C 1.6875 -3.582031 1.867188 -3.601562 2.03125 -3.601562 C 2.257812 -3.601562 2.46875 -3.585938 2.660156 -3.558594 C 2.847656 -3.53125 3.019531 -3.476562 3.175781 -3.394531 C 3.320312 -3.308594 3.4375 -3.191406 3.519531 -3.035156 C 3.605469 -2.878906 3.648438 -2.675781 3.648438 -2.421875 C 3.648438 -2.15625 3.644531 -1.84375 3.632812 -1.476562 C 3.625 -1.113281 3.617188 -0.875 3.617188 -0.757812 C 3.617188 -0.652344 3.632812 -0.570312 3.664062 -0.507812 C 3.699219 -0.445312 3.746094 -0.402344 3.8125 -0.371094 C 3.851562 -0.351562 3.914062 -0.339844 4 -0.335938 C 4.085938 -0.332031 4.164062 -0.332031 4.234375 -0.332031 L 4.234375 -0.0742188 M 2.484375 -1.910156 C 2.355469 -1.867188 2.222656 -1.816406 2.09375 -1.757812 C 1.964844 -1.699219 1.859375 -1.640625 1.773438 -1.574219 C 1.6875 -1.507812 1.621094 -1.425781 1.570312 -1.324219 C 1.519531 -1.21875 1.496094 -1.097656 1.496094 -0.960938 C 1.496094 -0.777344 1.539062 -0.644531 1.621094 -0.5625 C 1.703125 -0.480469 1.808594 -0.4375 1.929688 -0.4375 C 2.058594 -0.4375 2.167969 -0.464844 2.25 -0.515625 C 2.335938 -0.570312 2.410156 -0.636719 2.472656 -0.714844 Z "/>
</g>
<g id="glyph-0-4">
</g>
<g id="glyph-0-5">
<path d="M 4.226562 -3.242188 C 4.121094 -3.222656 4.015625 -3.183594 3.917969 -3.121094 C 3.816406 -3.058594 3.734375 -2.957031 3.667969 -2.824219 C 3.503906 -2.480469 3.339844 -2.136719 3.183594 -1.785156 C 3.023438 -1.4375 2.867188 -1.097656 2.714844 -0.773438 C 2.667969 -0.671875 2.613281 -0.546875 2.554688 -0.390625 C 2.496094 -0.234375 2.445312 -0.09375 2.40625 0.03125 L 1.757812 0.03125 C 1.484375 -0.597656 1.253906 -1.117188 1.0625 -1.53125 C 0.871094 -1.945312 0.667969 -2.390625 0.453125 -2.863281 C 0.40625 -2.972656 0.328125 -3.0625 0.222656 -3.125 C 0.121094 -3.1875 0.0117188 -3.226562 -0.09375 -3.242188 L -0.09375 -3.5 L 2.078125 -3.5 L 2.078125 -3.242188 C 1.996094 -3.238281 1.902344 -3.222656 1.796875 -3.1875 C 1.6875 -3.15625 1.632812 -3.113281 1.632812 -3.0625 C 1.632812 -3.046875 1.636719 -3.027344 1.648438 -2.996094 C 1.65625 -2.96875 1.667969 -2.9375 1.683594 -2.902344 C 1.757812 -2.722656 1.871094 -2.464844 2.023438 -2.128906 C 2.175781 -1.792969 2.335938 -1.441406 2.507812 -1.070312 C 2.625 -1.324219 2.734375 -1.578125 2.84375 -1.820312 C 2.949219 -2.066406 3.082031 -2.378906 3.238281 -2.761719 C 3.261719 -2.816406 3.273438 -2.863281 3.277344 -2.898438 C 3.277344 -2.933594 3.28125 -2.957031 3.28125 -2.96875 C 3.28125 -3.011719 3.261719 -3.046875 3.21875 -3.082031 C 3.179688 -3.113281 3.128906 -3.140625 3.074219 -3.164062 C 3.011719 -3.1875 2.957031 -3.203125 2.902344 -3.214844 C 2.847656 -3.226562 2.804688 -3.234375 2.769531 -3.242188 L 2.769531 -3.5 L 4.226562 -3.5 Z "/>
</g>
<g id="glyph-0-6">
<path d="M 4.761719 -0.0742188 L 3.023438 0.0273438 L 2.96875 -0.0195312 L 2.96875 -0.34375 L 2.945312 -0.351562 C 2.828125 -0.226562 2.675781 -0.121094 2.476562 -0.0273438 C 2.28125 0.0664062 2.085938 0.113281 1.882812 0.113281 C 1.410156 0.113281 1.019531 -0.0625 0.710938 -0.417969 C 0.402344 -0.769531 0.25 -1.226562 0.25 -1.785156 C 0.25 -2.28125 0.421875 -2.707031 0.765625 -3.0625 C 1.109375 -3.417969 1.527344 -3.59375 2.015625 -3.59375 C 2.207031 -3.59375 2.386719 -3.570312 2.558594 -3.527344 C 2.726562 -3.484375 2.863281 -3.433594 2.960938 -3.375 L 2.960938 -4.527344 C 2.960938 -4.617188 2.945312 -4.695312 2.910156 -4.773438 C 2.875 -4.851562 2.828125 -4.910156 2.769531 -4.953125 C 2.695312 -5.003906 2.605469 -5.039062 2.496094 -5.0625 C 2.386719 -5.085938 2.277344 -5.101562 2.164062 -5.109375 L 2.164062 -5.367188 L 4.074219 -5.460938 L 4.125 -5.402344 L 4.125 -0.78125 C 4.125 -0.691406 4.140625 -0.613281 4.171875 -0.554688 C 4.199219 -0.492188 4.246094 -0.445312 4.3125 -0.410156 C 4.359375 -0.382812 4.433594 -0.363281 4.527344 -0.351562 C 4.621094 -0.339844 4.699219 -0.332031 4.761719 -0.332031 L 4.761719 -0.0742188 M 2.960938 -0.703125 L 2.960938 -2.695312 C 2.945312 -2.75 2.921875 -2.808594 2.894531 -2.875 C 2.863281 -2.941406 2.824219 -3.003906 2.773438 -3.0625 C 2.726562 -3.109375 2.664062 -3.152344 2.585938 -3.191406 C 2.503906 -3.230469 2.417969 -3.25 2.320312 -3.25 C 2.085938 -3.25 1.890625 -3.117188 1.742188 -2.847656 C 1.589844 -2.582031 1.515625 -2.207031 1.515625 -1.722656 C 1.515625 -1.535156 1.53125 -1.363281 1.558594 -1.210938 C 1.582031 -1.058594 1.632812 -0.921875 1.699219 -0.796875 C 1.765625 -0.671875 1.855469 -0.574219 1.960938 -0.503906 C 2.066406 -0.433594 2.195312 -0.398438 2.347656 -0.398438 C 2.488281 -0.398438 2.609375 -0.425781 2.703125 -0.480469 C 2.796875 -0.535156 2.882812 -0.609375 2.960938 -0.703125 Z "/>
</g>
<g id="glyph-0-7">
<path d="M 2.023438 -2.816406 C 2.023438 -2.632812 1.957031 -2.472656 1.816406 -2.335938 C 1.679688 -2.199219 1.519531 -2.128906 1.328125 -2.128906 C 1.140625 -2.128906 0.976562 -2.199219 0.835938 -2.332031 C 0.699219 -2.46875 0.632812 -2.628906 0.632812 -2.816406 C 0.632812 -3.007812 0.699219 -3.167969 0.835938 -3.304688 C 0.976562 -3.445312 1.140625 -3.511719 1.328125 -3.511719 C 1.519531 -3.511719 1.679688 -3.441406 1.816406 -3.304688 C 1.957031 -3.164062 2.023438 -3.003906 2.023438 -2.816406 M 2.023438 -0.585938 C 2.023438 -0.398438 1.957031 -0.238281 1.816406 -0.101562 C 1.679688 0.0351562 1.519531 0.101562 1.328125 0.101562 C 1.140625 0.101562 0.976562 0.0351562 0.835938 -0.101562 C 0.699219 -0.234375 0.632812 -0.398438 0.632812 -0.585938 C 0.632812 -0.773438 0.699219 -0.9375 0.835938 -1.074219 C 0.976562 -1.210938 1.140625 -1.28125 1.328125 -1.28125 C 1.519531 -1.28125 1.679688 -1.210938 1.816406 -1.070312 C 1.957031 -0.933594 2.023438 -0.769531 2.023438 -0.585938 Z "/>
</g>
</g>
</defs>
<g fill="rgb(1.176471%, 70.980392%, 36.078431%)" fill-opacity="1">
<use xlink:href="#glyph-0-0" x="30" y="26.623047"/>
<use xlink:href="#glyph-0-1" x="35" y="26.623047"/>
<use xlink:href="#glyph-0-2" x="39" y="26.623047"/>
<use xlink:href="#glyph-0-3" x="43" y="26.623047"/>
<use xlink:href="#glyph-0-4" x="47" y="26.623047"/>
<use xlink:href="#glyph-0-5" x="49" y="26.623047"/>
<use xlink:href="#glyph-0-2" x="53" y="26.623047"/>
<use xlink:href="#glyph-0-1" x="57" y="26.623047"/>
<use xlink:href="#glyph-0-6" x="61" y="26.623047"/>
<use xlink:href="#glyph-0-2" x="66" y="26.623047"/>
<use xlink:href="#glyph-0-7" x="70" y="26.623047"/>
</g>
</svg>
