<?xml version="1.0" encoding="UTF-8"?>
<svg xmlns="http://www.w3.org/2000/svg" xmlns:xlink="http://www.w3.org/1999/xlink" width="1920" height="1080" viewBox="0 0 1920 1080">
<defs>
<g>
<g id="glyph-0-0">
<path d="M 10.132812 0 L 6.882812 0 C 6.324219 -0.859375 5.855469 -1.542969 5.484375 -2.054688 C 5.113281 -2.5625 4.652344 -3.152344 4.097656 -3.820312 L 3.773438 -3.820312 L 3.773438 -1.246094 C 3.773438 -1.105469 3.796875 -0.984375 3.851562 -0.882812 C 3.90625 -0.785156 4.007812 -0.699219 4.160156 -0.632812 C 4.234375 -0.601562 4.355469 -0.566406 4.515625 -0.535156 C 4.675781 -0.5 4.8125 -0.476562 4.929688 -0.464844 L 4.929688 0 L 0.410156 0 L 0.410156 -0.464844 C 0.527344 -0.476562 0.679688 -0.496094 0.867188 -0.515625 C 1.058594 -0.539062 1.191406 -0.566406 1.269531 -0.597656 C 1.421875 -0.660156 1.523438 -0.742188 1.574219 -0.839844 C 1.628906 -0.9375 1.652344 -1.058594 1.652344 -1.210938 L 1.652344 -7.1875 C 1.652344 -7.328125 1.632812 -7.449219 1.585938 -7.542969 C 1.542969 -7.640625 1.4375 -7.722656 1.269531 -7.792969 C 1.144531 -7.847656 0.992188 -7.890625 0.820312 -7.925781 C 0.648438 -7.960938 0.511719 -7.988281 0.410156 -8.003906 L 0.410156 -8.46875 L 5.164062 -8.46875 C 6.226562 -8.46875 7.03125 -8.300781 7.582031 -7.96875 C 8.132812 -7.636719 8.410156 -7.136719 8.410156 -6.464844 C 8.410156 -5.871094 8.238281 -5.394531 7.898438 -5.035156 C 7.558594 -4.675781 7.039062 -4.390625 6.34375 -4.191406 C 6.613281 -3.839844 6.929688 -3.433594 7.289062 -2.972656 C 7.648438 -2.511719 8.023438 -2.039062 8.414062 -1.558594 C 8.539062 -1.402344 8.707031 -1.210938 8.917969 -0.988281 C 9.132812 -0.761719 9.320312 -0.625 9.484375 -0.574219 C 9.574219 -0.546875 9.691406 -0.519531 9.832031 -0.5 C 9.972656 -0.480469 10.074219 -0.46875 10.132812 -0.464844 L 10.132812 0 M 6.070312 -6.296875 C 6.070312 -6.859375 5.910156 -7.273438 5.59375 -7.535156 C 5.277344 -7.796875 4.828125 -7.925781 4.242188 -7.925781 L 3.773438 -7.925781 L 3.773438 -4.378906 L 4.226562 -4.378906 C 4.808594 -4.378906 5.265625 -4.535156 5.585938 -4.839844 C 5.910156 -5.148438 6.070312 -5.632812 6.070312 -6.296875 Z "/>
</g>
<g id="glyph-0-1">
<path d="M 6.761719 -1.425781 C 6.621094 -1.199219 6.453125 -0.984375 6.257812 -0.785156 C 6.0625 -0.582031 5.835938 -0.410156 5.585938 -0.269531 C 5.320312 -0.117188 5.050781 -0.00390625 4.777344 0.0742188 C 4.503906 0.152344 4.191406 0.191406 3.835938 0.191406 C 3.25 0.191406 2.742188 0.109375 2.3125 -0.0585938 C 1.886719 -0.226562 1.53125 -0.453125 1.253906 -0.734375 C 0.976562 -1.015625 0.765625 -1.351562 0.628906 -1.734375 C 0.492188 -2.117188 0.421875 -2.535156 0.421875 -2.984375 C 0.421875 -3.390625 0.5 -3.777344 0.648438 -4.152344 C 0.796875 -4.523438 1.007812 -4.855469 1.28125 -5.144531 C 1.554688 -5.425781 1.894531 -5.65625 2.308594 -5.832031 C 2.71875 -6.007812 3.179688 -6.09375 3.6875 -6.09375 C 4.246094 -6.09375 4.703125 -6.027344 5.0625 -5.890625 C 5.417969 -5.753906 5.714844 -5.566406 5.949219 -5.328125 C 6.175781 -5.101562 6.34375 -4.835938 6.445312 -4.527344 C 6.550781 -4.21875 6.601562 -3.894531 6.601562 -3.558594 L 6.601562 -3.167969 L 2.566406 -3.167969 C 2.566406 -2.351562 2.722656 -1.734375 3.039062 -1.308594 C 3.351562 -0.882812 3.851562 -0.667969 4.535156 -0.667969 C 4.910156 -0.667969 5.246094 -0.769531 5.542969 -0.976562 C 5.84375 -1.179688 6.097656 -1.441406 6.308594 -1.753906 L 6.761719 -1.425781 M 4.480469 -3.695312 C 4.480469 -3.933594 4.46875 -4.175781 4.445312 -4.429688 C 4.421875 -4.679688 4.378906 -4.882812 4.320312 -5.042969 C 4.253906 -5.230469 4.160156 -5.371094 4.042969 -5.464844 C 3.925781 -5.5625 3.777344 -5.609375 3.597656 -5.609375 C 3.292969 -5.609375 3.046875 -5.453125 2.863281 -5.144531 C 2.683594 -4.835938 2.582031 -4.34375 2.566406 -3.671875 Z "/>
</g>
<g id="glyph-0-2">
<path d="M 3.109375 0.203125 C 2.722656 0.203125 2.347656 0.144531 1.976562 0.03125 C 1.609375 -0.0820312 1.324219 -0.199219 1.121094 -0.328125 L 0.941406 0.078125 L 0.476562 0.078125 L 0.398438 -2.148438 L 0.835938 -2.148438 C 0.894531 -1.96875 0.996094 -1.765625 1.132812 -1.542969 C 1.273438 -1.316406 1.433594 -1.117188 1.613281 -0.9375 C 1.796875 -0.757812 2.011719 -0.605469 2.253906 -0.484375 C 2.492188 -0.359375 2.75 -0.296875 3.027344 -0.296875 C 3.386719 -0.296875 3.65625 -0.367188 3.835938 -0.511719 C 4.011719 -0.652344 4.101562 -0.871094 4.101562 -1.164062 C 4.101562 -1.324219 4.058594 -1.453125 3.980469 -1.558594 C 3.902344 -1.660156 3.792969 -1.75 3.652344 -1.828125 C 3.496094 -1.90625 3.328125 -1.972656 3.140625 -2.027344 C 2.957031 -2.085938 2.730469 -2.152344 2.457031 -2.230469 C 2.1875 -2.3125 1.957031 -2.390625 1.761719 -2.472656 C 1.570312 -2.554688 1.371094 -2.683594 1.164062 -2.859375 C 0.984375 -3.015625 0.839844 -3.199219 0.734375 -3.417969 C 0.625 -3.636719 0.574219 -3.898438 0.574219 -4.203125 C 0.574219 -4.761719 0.808594 -5.214844 1.28125 -5.5625 C 1.75 -5.910156 2.371094 -6.082031 3.132812 -6.082031 C 3.496094 -6.082031 3.828125 -6.042969 4.132812 -5.972656 C 4.4375 -5.898438 4.691406 -5.816406 4.898438 -5.730469 L 5.023438 -6.082031 L 5.480469 -6.082031 L 5.574219 -4.046875 L 5.15625 -4.046875 C 5.015625 -4.460938 4.777344 -4.816406 4.441406 -5.117188 C 4.101562 -5.417969 3.738281 -5.566406 3.347656 -5.566406 C 3.042969 -5.566406 2.800781 -5.503906 2.625 -5.378906 C 2.449219 -5.25 2.363281 -5.074219 2.363281 -4.847656 C 2.363281 -4.542969 2.492188 -4.324219 2.746094 -4.191406 C 3.003906 -4.054688 3.363281 -3.925781 3.824219 -3.808594 C 4.535156 -3.625 5.054688 -3.375 5.382812 -3.058594 C 5.714844 -2.742188 5.878906 -2.339844 5.878906 -1.851562 C 5.878906 -1.199219 5.621094 -0.691406 5.113281 -0.335938 C 4.601562 0.0234375 3.933594 0.203125 3.109375 0.203125 Z "/>
</g>
<g id="glyph-0-3">
<path d="M 8.128906 -0.125 L 5.28125 0.046875 L 5.191406 -0.0351562 L 5.191406 -0.816406 L 5.15625 -0.816406 C 5.019531 -0.695312 4.890625 -0.574219 4.761719 -0.457031 C 4.632812 -0.339844 4.476562 -0.234375 4.296875 -0.136719 C 4.097656 -0.03125 3.902344 0.0507812 3.722656 0.101562 C 3.542969 0.152344 3.277344 0.179688 2.933594 0.179688 C 2.332031 0.179688 1.875 -0.00390625 1.554688 -0.363281 C 1.234375 -0.726562 1.074219 -1.238281 1.074219 -1.898438 L 1.074219 -4.582031 C 1.074219 -4.738281 1.042969 -4.863281 0.984375 -4.960938 C 0.925781 -5.058594 0.847656 -5.148438 0.746094 -5.222656 C 0.667969 -5.28125 0.566406 -5.324219 0.441406 -5.351562 C 0.3125 -5.375 0.199219 -5.394531 0.09375 -5.402344 L 0.09375 -5.835938 L 2.976562 -5.992188 L 3.042969 -5.902344 L 3.042969 -1.933594 C 3.042969 -1.523438 3.121094 -1.222656 3.28125 -1.027344 C 3.4375 -0.832031 3.652344 -0.734375 3.925781 -0.734375 C 4.210938 -0.734375 4.464844 -0.808594 4.6875 -0.953125 C 4.914062 -1.101562 5.078125 -1.257812 5.179688 -1.425781 L 5.179688 -4.644531 C 5.179688 -4.777344 5.15625 -4.898438 5.101562 -5.007812 C 5.050781 -5.113281 4.976562 -5.203125 4.875 -5.269531 C 4.804688 -5.316406 4.703125 -5.347656 4.570312 -5.367188 C 4.433594 -5.382812 4.300781 -5.394531 4.160156 -5.402344 L 4.160156 -5.835938 L 7.058594 -5.992188 L 7.148438 -5.902344 L 7.148438 -1.296875 C 7.148438 -1.15625 7.175781 -1.039062 7.234375 -0.941406 C 7.289062 -0.84375 7.371094 -0.761719 7.476562 -0.691406 C 7.550781 -0.644531 7.648438 -0.613281 7.769531 -0.59375 C 7.890625 -0.574219 8.011719 -0.566406 8.128906 -0.5625 Z "/>
</g>
<g id="glyph-0-4">
<path d="M 12.199219 0 L 8.652344 0 L 8.652344 -0.4375 C 8.742188 -0.449219 8.832031 -0.457031 8.925781 -0.464844 C 9.019531 -0.472656 9.097656 -0.492188 9.164062 -0.523438 C 9.25 -0.566406 9.304688 -0.632812 9.328125 -0.726562 C 9.351562 -0.820312 9.363281 -0.9375 9.363281 -1.085938 L 9.363281 -3.875 C 9.363281 -4.28125 9.292969 -4.589844 9.144531 -4.796875 C 9 -5 8.792969 -5.101562 8.519531 -5.101562 C 8.347656 -5.101562 8.195312 -5.074219 8.0625 -5.023438 C 7.929688 -4.96875 7.804688 -4.902344 7.695312 -4.820312 C 7.578125 -4.738281 7.488281 -4.65625 7.425781 -4.570312 C 7.359375 -4.488281 7.308594 -4.417969 7.261719 -4.355469 L 7.261719 -1.152344 C 7.261719 -1.007812 7.28125 -0.890625 7.3125 -0.800781 C 7.347656 -0.714844 7.410156 -0.640625 7.5 -0.589844 C 7.5625 -0.554688 7.636719 -0.523438 7.714844 -0.496094 C 7.796875 -0.46875 7.882812 -0.449219 7.972656 -0.4375 L 7.972656 0 L 4.582031 0 L 4.582031 -0.4375 C 4.660156 -0.445312 4.75 -0.453125 4.855469 -0.464844 C 4.960938 -0.476562 5.042969 -0.496094 5.09375 -0.523438 C 5.175781 -0.570312 5.230469 -0.632812 5.253906 -0.714844 C 5.28125 -0.800781 5.292969 -0.921875 5.292969 -1.085938 L 5.292969 -3.875 C 5.292969 -4.28125 5.222656 -4.589844 5.074219 -4.796875 C 4.929688 -5 4.722656 -5.101562 4.449219 -5.101562 C 4.277344 -5.101562 4.125 -5.074219 3.992188 -5.023438 C 3.859375 -4.96875 3.734375 -4.902344 3.625 -4.820312 C 3.507812 -4.738281 3.417969 -4.65625 3.355469 -4.570312 C 3.289062 -4.488281 3.238281 -4.417969 3.191406 -4.355469 L 3.191406 -1.152344 C 3.191406 -1.011719 3.210938 -0.898438 3.246094 -0.804688 C 3.28125 -0.714844 3.347656 -0.640625 3.4375 -0.589844 C 3.5 -0.554688 3.574219 -0.523438 3.65625 -0.496094 C 3.738281 -0.46875 3.824219 -0.449219 3.914062 -0.4375 L 3.914062 0 L 0.339844 0 L 0.339844 -0.4375 C 0.445312 -0.445312 0.546875 -0.453125 0.644531 -0.464844 C 0.742188 -0.476562 0.828125 -0.496094 0.902344 -0.523438 C 1.027344 -0.574219 1.117188 -0.640625 1.164062 -0.730469 C 1.210938 -0.820312 1.234375 -0.9375 1.234375 -1.085938 L 1.234375 -4.558594 C 1.234375 -4.6875 1.203125 -4.8125 1.132812 -4.933594 C 1.066406 -5.054688 0.984375 -5.148438 0.890625 -5.214844 C 0.816406 -5.265625 0.726562 -5.304688 0.617188 -5.335938 C 0.507812 -5.367188 0.386719 -5.390625 0.257812 -5.402344 L 0.257812 -5.835938 L 3.101562 -5.992188 L 3.191406 -5.902344 L 3.191406 -5.0625 L 3.21875 -5.0625 C 3.328125 -5.160156 3.460938 -5.277344 3.613281 -5.417969 C 3.765625 -5.554688 3.910156 -5.664062 4.046875 -5.746094 C 4.195312 -5.84375 4.382812 -5.921875 4.613281 -5.984375 C 4.84375 -6.050781 5.097656 -6.082031 5.371094 -6.082031 C 5.824219 -6.082031 6.203125 -5.984375 6.507812 -5.785156 C 6.8125 -5.589844 7.027344 -5.328125 7.15625 -5 L 7.210938 -5 C 7.324219 -5.109375 7.464844 -5.234375 7.632812 -5.378906 C 7.800781 -5.527344 7.953125 -5.640625 8.09375 -5.730469 C 8.246094 -5.828125 8.445312 -5.914062 8.6875 -5.980469 C 8.925781 -6.046875 9.183594 -6.082031 9.460938 -6.082031 C 10.058594 -6.082031 10.523438 -5.90625 10.847656 -5.550781 C 11.171875 -5.195312 11.332031 -4.691406 11.332031 -4.039062 L 11.332031 -1.140625 C 11.332031 -0.992188 11.355469 -0.875 11.398438 -0.785156 C 11.441406 -0.695312 11.523438 -0.625 11.636719 -0.578125 C 11.703125 -0.550781 11.78125 -0.523438 11.875 -0.496094 C 11.96875 -0.46875 12.074219 -0.449219 12.199219 -0.4375 Z "/>
</g>
<g id="glyph-0-5">
<path d="M 6.441406 -5.214844 C 6.734375 -4.941406 6.957031 -4.613281 7.113281 -4.230469 C 7.269531 -3.847656 7.347656 -3.4375 7.347656 -2.988281 C 7.347656 -2.546875 7.269531 -2.132812 7.117188 -1.738281 C 6.964844 -1.347656 6.738281 -1.011719 6.445312 -0.734375 C 6.132812 -0.4375 5.757812 -0.207031 5.320312 -0.046875 C 4.886719 0.113281 4.386719 0.191406 3.824219 0.191406 C 3.339844 0.191406 2.894531 0.121094 2.484375 -0.0195312 C 2.078125 -0.15625 1.71875 -0.367188 1.402344 -0.644531 C 1.101562 -0.910156 0.863281 -1.242188 0.6875 -1.632812 C 0.511719 -2.023438 0.421875 -2.460938 0.421875 -2.949219 C 0.421875 -3.425781 0.5 -3.851562 0.652344 -4.222656 C 0.808594 -4.59375 1.035156 -4.925781 1.34375 -5.214844 C 1.636719 -5.496094 2 -5.710938 2.433594 -5.863281 C 2.863281 -6.015625 3.347656 -6.09375 3.878906 -6.09375 C 4.4375 -6.09375 4.925781 -6.015625 5.351562 -5.863281 C 5.773438 -5.710938 6.136719 -5.496094 6.441406 -5.214844 M 4.910156 -1.082031 C 5 -1.304688 5.0625 -1.574219 5.105469 -1.890625 C 5.148438 -2.210938 5.167969 -2.582031 5.167969 -3 C 5.167969 -3.28125 5.148438 -3.597656 5.109375 -3.957031 C 5.070312 -4.316406 5.007812 -4.597656 4.929688 -4.804688 C 4.835938 -5.054688 4.703125 -5.25 4.53125 -5.394531 C 4.363281 -5.539062 4.148438 -5.609375 3.890625 -5.609375 C 3.609375 -5.609375 3.382812 -5.53125 3.214844 -5.378906 C 3.042969 -5.222656 2.914062 -5.019531 2.824219 -4.773438 C 2.738281 -4.546875 2.683594 -4.28125 2.648438 -3.976562 C 2.617188 -3.671875 2.601562 -3.355469 2.601562 -3.027344 C 2.601562 -2.59375 2.617188 -2.234375 2.644531 -1.949219 C 2.671875 -1.664062 2.738281 -1.378906 2.847656 -1.09375 C 2.9375 -0.84375 3.070312 -0.652344 3.242188 -0.507812 C 3.410156 -0.363281 3.628906 -0.292969 3.890625 -0.292969 C 4.128906 -0.292969 4.335938 -0.359375 4.507812 -0.492188 C 4.675781 -0.625 4.8125 -0.820312 4.910156 -1.082031 Z "/>
</g>
</g>
</defs>
<g fill="rgb(30.980392%, 76.470588%, 96.862745%)" fill-opacity="1">
<use xlink:href="#glyph-0-0" x="30" y="31.208008"/>
<use xlink:href="#glyph-0-1" x="40" y="31.208008"/>
<use xlink:href="#glyph-0-2" x="47" y="31.208008"/>
<use xlink:href="#glyph-0-3" x="53" y="31.208008"/>
<use xlink:href="#glyph-0-4" x="61" y="31.208008"/>
<use xlink:href="#glyph-0-5" x="73" y="31.208008"/>
</g>
</svg>
