<?xml version="1.0" encoding="UTF-8"?>
<svg xmlns="http://www.w3.org/2000/svg" xmlns:xlink="http://www.w3.org/1999/xlink" width="1920" height="1080" viewBox="0 0 1920 1080">
<defs>
<g>
<g id="glyph-0-0">
<path d="M 5.011719 0 L 2.929688 0 L 2.929688 -0.25 C 3.113281 -0.261719 3.265625 -0.285156 3.386719 -0.320312 C 3.507812 -0.355469 3.570312 -0.398438 3.570312 -0.453125 C 3.570312 -0.472656 3.566406 -0.5 3.5625 -0.527344 C 3.558594 -0.558594 3.550781 -0.585938 3.542969 -0.609375 L 3.125 -1.730469 L 1.371094 -1.730469 C 1.304688 -1.566406 1.25 -1.421875 1.210938 -1.300781 C 1.167969 -1.179688 1.132812 -1.066406 1.097656 -0.960938 C 1.066406 -0.863281 1.046875 -0.78125 1.035156 -0.714844 C 1.023438 -0.652344 1.015625 -0.601562 1.015625 -0.5625 C 1.015625 -0.464844 1.089844 -0.394531 1.238281 -0.34375 C 1.386719 -0.289062 1.554688 -0.261719 1.738281 -0.25 L 1.738281 0 L -0.144531 0 L -0.144531 -0.25 C -0.0820312 -0.253906 -0.0078125 -0.269531 0.0859375 -0.289062 C 0.175781 -0.3125 0.25 -0.34375 0.308594 -0.382812 C 0.40625 -0.445312 0.476562 -0.511719 0.527344 -0.582031 C 0.582031 -0.648438 0.632812 -0.746094 0.679688 -0.867188 C 0.933594 -1.496094 1.210938 -2.199219 1.511719 -2.984375 C 1.816406 -3.765625 2.085938 -4.464844 2.324219 -5.074219 L 2.605469 -5.074219 L 4.273438 -0.757812 C 4.308594 -0.667969 4.347656 -0.59375 4.394531 -0.535156 C 4.4375 -0.480469 4.5 -0.425781 4.582031 -0.371094 C 4.636719 -0.335938 4.707031 -0.308594 4.792969 -0.289062 C 4.878906 -0.265625 4.953125 -0.253906 5.011719 -0.25 L 5.011719 0 M 3 -2.046875 L 2.238281 -3.988281 L 1.492188 -2.046875 Z "/>
</g>
</g>
</defs>
<g fill="rgb(100%, 100%, 100%)" fill-opacity="1">
<use xlink:href="#glyph-0-0" x="30" y="26.623047"/>
</g>
</svg>
